<svg width="30" height="30" viewBox="0 0 30 30" fill="none" xmlns="http://www.w3.org/2000/svg">
<path d="M22.0313 14.5313C18.0594 14.4681 15.0248 18.4955 16.1743 22.2887C16.1742 22.2887 12.1875 24.5901 12.1875 24.5901V14.8459L20.625 9.97462V12.7126C20.6316 13.3276 21.5545 13.3287 21.5625 12.7126V9.164C21.5594 9.13676 21.5561 9.10989 21.5517 9.08258C21.5336 8.94397 21.4417 8.83326 21.3281 8.75797C21.3281 8.75797 11.9531 3.344 11.9531 3.344C11.8037 3.27292 11.6338 3.26989 11.4844 3.34401C11.4844 3.344 2.10937 8.75659 2.10937 8.75659C1.97127 8.85055 1.88258 8.99514 1.87502 9.16401C1.875 9.164 1.875 19.9874 1.875 19.9874C1.875 20.1549 1.96426 20.3096 2.10937 20.3934L11.4844 25.8078C11.6333 25.8854 11.8043 25.889 11.9531 25.8078C11.9531 25.8078 16.5064 23.1796 16.5064 23.1796C17.4749 25.2655 19.5842 26.7188 22.0312 26.7188C30.1122 26.3849 30.1164 14.8668 22.0313 14.5313ZM7.03126 6.9977L15.4686 11.8689L11.7188 14.0339L3.28143 9.16264L7.03126 6.9977ZM11.7187 4.2914L20.1551 9.16321L16.4063 11.3276L7.96893 6.45634L11.7187 4.2914ZM2.81251 9.97462L11.25 14.8459V24.59L2.81251 19.7168V9.97462ZM22.0313 25.7813C19.1881 25.7813 16.875 23.4682 16.875 20.625C17.1582 13.7846 26.9053 13.7866 27.1875 20.6251C27.1875 23.4682 24.8744 25.7813 22.0313 25.7813Z" fill="#8A38F5"/>
<path d="M24.8437 20.1562H22.5V17.8125C22.4903 17.198 21.5728 17.1949 21.5625 17.8125V20.1562H19.2187C18.9597 20.1562 18.75 20.3659 18.75 20.625C18.75 20.8841 18.9597 21.0937 19.2187 21.0937H21.5625V23.4375C21.5625 23.6966 21.7722 23.9062 22.0312 23.9062C22.2903 23.9062 22.5 23.6966 22.5 23.4375V21.0937H24.8437C25.4582 21.0841 25.4613 20.1665 24.8437 20.1562Z" fill="#8A38F5"/>
</svg>
