<svg width="1210" height="1210" viewBox="0 0 1210 1210" fill="none" xmlns="http://www.w3.org/2000/svg">
<mask id="mask0_1083_10356" style="mask-type:luminance" maskUnits="userSpaceOnUse" x="0" y="0" width="1210" height="1210">
<path d="M1210 0H0V1210H1210V0Z" fill="white"/>
</mask>
<g mask="url(#mask0_1083_10356)">
<path d="M506.941 387.15C489.401 387.15 475.111 400.29 472.991 417.24H405.281V306.73H647.521V430.29C647.521 476.35 611.201 478.09 609.651 478.13H405.281V425.77H472.991C475.111 442.71 489.401 455.86 506.941 455.86C525.911 455.86 541.271 440.49 541.271 421.51C541.271 402.53 525.911 387.15 506.941 387.15Z" fill="#1F1F1F"/>
<path d="M1078.59 374.9V349.34H1078.49V286.04C1078.49 255.1 1053.4 230.06 1022.51 230.06H959.21V128.86H933.6V230.06H878.19V128.86H852.68V230.06H797.27V128.86H771.71V230.06H716.36V128.86H690.75V230.06H635.4V128.86H609.79V230.06H554.44V128.86H528.88V230.06H473.47V128.86H447.91V230.06H384.66C353.72 230.06 328.63 255.1 328.63 286.04V349.34H227.43V374.9H328.63V430.26H227.43V455.87H328.63V511.23H227.43V536.84H328.63V592.2H227.43V617.76H328.63V673.17H227.43V698.73H328.63V754.09H227.43V779.7H328.63V835.06H227.43V860.62H328.63V923.92C328.63 954.86 353.72 979.95 384.66 979.95H447.91V1081.15H473.47V979.95H528.88V1081.15H554.44V979.95H609.79V1081.15H635.4V979.95H690.75V1081.15H716.36V979.95H771.71V1081.15H797.27V979.95H852.68V1081.15H878.19V979.95H933.6V1081.15H959.21V979.95H1022.51C1053.4 979.95 1078.49 954.86 1078.49 923.92V860.62H1078.59V835.06H1078.49V779.7H1078.59V754.09H1078.49V698.73H1078.59V673.17H1078.49V617.76H1078.59V592.2H1078.49V536.84H1078.59V511.23H1078.49V455.87H1078.59V430.26H1078.49V374.9H1078.59ZM1018.84 920.3H388.24V289.7H1018.84V920.3Z" fill="white"/>
<path d="M1001.74 709.08V717.65H871.482C869.392 734.59 855.072 747.71 837.562 747.71C818.592 747.71 803.172 732.34 803.172 713.37C803.172 694.4 818.592 679.03 837.562 679.03C855.072 679.03 869.392 692.2 871.482 709.09H1001.74V709.08Z" fill="white"/>
<path d="M472.991 425.77H405.281V417.25H472.991C475.111 400.3 489.401 387.16 506.941 387.16C525.911 387.16 541.271 402.53 541.271 421.52C541.271 440.51 525.911 455.87 506.941 455.87C489.401 455.87 475.111 442.72 472.991 425.78V425.77Z" fill="white"/>
<path d="M747.601 767.73C747.601 786.76 732.231 802.07 713.261 802.07C694.291 802.07 678.921 786.75 678.921 767.73C678.921 750.22 692.041 735.95 708.981 733.81V683.11C708.981 666.12 704.121 652.74 694.551 643.33C678.501 627.65 654.251 627.91 653.881 628.01H405.281V619.44H654.351C658.431 619.44 682.991 620.22 700.451 637.21C711.741 648.24 717.491 663.71 717.491 683.1V733.8C734.481 735.94 747.601 750.21 747.601 767.72V767.73Z" fill="white"/>
<path d="M656.021 306.75V430.27C656.021 484.48 610.391 486.62 609.761 486.62H405.281V478.15H609.661C610.601 478.1 625.181 477.42 635.951 465.66C642.431 458.6 647.561 447.57 647.561 430.27V306.75H656.031H656.021Z" fill="white"/>
<path d="M852.141 306.75V421.95C850.731 421.79 849.321 421.48 847.851 421.48C846.381 421.48 844.971 421.79 843.621 421.95V306.75H852.141Z" fill="white"/>
<path d="M797.258 306.75H788.738V398.07H797.258V306.75Z" fill="white"/>
<path d="M1001.74 797.84H906.289V806.36H1001.74V797.84Z" fill="white"/>
<path d="M535.171 813.52C535.171 814.93 535.431 816.34 535.591 817.75H405.281V809.23H535.591C535.431 810.64 535.171 812.05 535.171 813.52Z" fill="white"/>
<path d="M388.25 289.7V920.3H1018.85V289.7H388.25ZM1001.75 903.2H405.29V306.74H1001.75V903.2Z" fill="#8963D3"/>
<path d="M837.571 679.02C855.081 679.02 869.401 692.19 871.491 709.08H1001.75V306.74H852.151V421.95C869.091 424.04 882.211 438.31 882.211 455.87C882.211 474.84 866.841 490.21 847.871 490.21C828.901 490.21 813.481 474.84 813.481 455.87C813.481 438.31 826.651 424.04 843.641 421.95V306.74H797.281V398.06H788.761V306.74H656.041V430.26C656.041 484.46 610.411 486.61 609.781 486.61H405.301V619.43H654.371C658.451 619.43 683.011 620.21 700.471 637.2C711.761 648.23 717.511 663.7 717.511 683.09V733.79C734.501 735.93 747.621 750.2 747.621 767.71C747.621 786.74 732.251 802.05 713.281 802.05C694.311 802.05 678.941 786.73 678.941 767.71C678.941 750.2 692.061 735.93 709.001 733.79V683.09C709.001 666.1 704.141 652.72 694.571 643.31C678.521 627.63 654.271 627.89 653.901 627.99H405.301V809.21H535.611C537.701 792.27 552.021 779.1 569.531 779.1C588.501 779.1 603.871 794.52 603.871 813.49C603.871 832.46 588.501 847.83 569.531 847.83C552.021 847.83 537.701 834.66 535.611 817.72H405.301V903.18H1001.76V806.32H906.311V797.8H1001.76V717.62H871.501C869.411 734.56 855.091 747.68 837.581 747.68C818.611 747.68 803.191 732.31 803.191 713.34C803.191 694.37 818.611 679 837.581 679L837.571 679.02ZM799.931 570.08H799.881C794.651 573.32 788.541 575.15 782.001 575.15C764.491 575.15 750.221 561.98 748.081 545.04C747.871 543.63 747.611 542.27 747.611 540.81C747.611 539.35 747.871 537.93 748.081 536.52C750.171 519.59 764.491 506.41 782.001 506.41C788.531 506.41 794.651 508.24 799.881 511.48H799.931C809.761 517.49 816.341 528.36 816.341 540.8C816.341 553.24 809.751 564.06 799.931 570.07V570.08Z" fill="#1F1F1F"/>
<path d="M603.852 813.52C603.852 832.49 588.482 847.86 569.512 847.86C552.002 847.86 537.682 834.69 535.592 817.75C535.432 816.34 535.172 814.93 535.172 813.52C535.172 812.11 535.432 810.65 535.592 809.23C537.682 792.29 552.002 779.12 569.512 779.12C588.482 779.12 603.852 794.54 603.852 813.51V813.52Z" fill="#8963D3"/>
<path d="M882.199 455.88C882.199 474.85 866.829 490.22 847.859 490.22C828.889 490.22 813.469 474.85 813.469 455.88C813.469 438.32 826.639 424.05 843.629 421.96C844.989 421.8 846.399 421.49 847.859 421.49C849.319 421.49 850.739 421.8 852.149 421.96C869.089 424.05 882.209 438.32 882.209 455.88H882.199Z" fill="#8963D3"/>
<path d="M816.332 540.82C816.332 553.21 809.742 564.08 799.922 570.09H799.872C794.642 573.33 788.532 575.16 781.992 575.16C764.482 575.16 750.212 561.99 748.072 545.05C747.862 543.64 747.602 542.28 747.602 540.82C747.602 539.36 747.862 537.95 748.072 536.53C750.162 519.59 764.482 506.42 781.992 506.42C788.522 506.42 794.642 508.25 799.872 511.49C799.922 511.44 799.922 511.49 799.922 511.49C809.752 517.5 816.332 528.37 816.332 540.81V540.82Z" fill="#8963D3"/>
</g>
</svg>
