<svg width="48" height="48" viewBox="0 0 48 48" fill="none" xmlns="http://www.w3.org/2000/svg">
<rect x="0.25" y="0.25" width="47.5" height="47.5" rx="23.75" fill="#F6F6F6"/>
<rect x="0.25" y="0.25" width="47.5" height="47.5" rx="23.75" stroke="#8A38F5" stroke-width="0.5"/>
<path d="M18 34.5C17.45 34.5 16.9792 34.3042 16.5875 33.9125C16.1958 33.5208 16 33.05 16 32.5V22.5C16 21.95 16.1958 21.4792 16.5875 21.0875C16.9792 20.6958 17.45 20.5 18 20.5H19V18.5C19 17.1167 19.4875 15.9375 20.4625 14.9625C21.4375 13.9875 22.6167 13.5 24 13.5C25.3833 13.5 26.5625 13.9875 27.5375 14.9625C28.5125 15.9375 29 17.1167 29 18.5V20.5H30C30.55 20.5 31.0208 20.6958 31.4125 21.0875C31.8042 21.4792 32 21.95 32 22.5V32.5C32 33.05 31.8042 33.5208 31.4125 33.9125C31.0208 34.3042 30.55 34.5 30 34.5H18ZM18 32.5H30V22.5H18V32.5ZM24 29.5C24.55 29.5 25.0208 29.3042 25.4125 28.9125C25.8042 28.5208 26 28.05 26 27.5C26 26.95 25.8042 26.4792 25.4125 26.0875C25.0208 25.6958 24.55 25.5 24 25.5C23.45 25.5 22.9792 25.6958 22.5875 26.0875C22.1958 26.4792 22 26.95 22 27.5C22 28.05 22.1958 28.5208 22.5875 28.9125C22.9792 29.3042 23.45 29.5 24 29.5ZM21 20.5H27V18.5C27 17.6667 26.7083 16.9583 26.125 16.375C25.5417 15.7917 24.8333 15.5 24 15.5C23.1667 15.5 22.4583 15.7917 21.875 16.375C21.2917 16.9583 21 17.6667 21 18.5V20.5Z" fill="#8A38F5"/>
</svg>
