<svg width="525" height="231" viewBox="0 0 525 231" fill="none" xmlns="http://www.w3.org/2000/svg">
<mask id="mask0_1083_10364" style="mask-type:luminance" maskUnits="userSpaceOnUse" x="0" y="0" width="229" height="230">
<path d="M228.507 0H0V229.86H228.507V0Z" fill="white"/>
</mask>
<g mask="url(#mask0_1083_10364)">
<path d="M95.735 73.5459C92.4226 73.5459 89.7239 76.0421 89.3236 79.2621H76.5366V58.2688H122.283V81.7411C122.283 90.491 115.424 90.8216 115.132 90.8292H76.5366V80.8825H89.3236C89.7239 84.1005 92.4226 86.5986 95.735 86.5986C99.3175 86.5986 102.218 83.6788 102.218 80.0732C102.218 76.4676 99.3175 73.5459 95.735 73.5459Z" fill="#1F1F1F"/>
<path d="M203.691 71.2188V66.3632H203.672V54.3383C203.672 48.4607 198.933 43.7039 193.1 43.7039H181.146V24.4792H176.309V43.7039H165.845V24.4792H161.028V43.7039H150.564V24.4792H145.737V43.7039H135.284V24.4792H130.447V43.7039H119.995V24.4792H115.158V43.7039H104.705V24.4792H99.8785V43.7039H89.4143V24.4792H84.5874V43.7039H72.6427C66.7997 43.7039 62.0615 48.4607 62.0615 54.3383V66.3632H42.95V71.2188H62.0615V81.7353H42.95V86.6004H62.0615V97.117H42.95V101.982H62.0615V112.499H42.95V117.354H62.0615V127.88H42.95V132.736H62.0615V143.252H42.95V148.117H62.0615V158.634H42.95V163.49H62.0615V175.514C62.0615 181.392 66.7997 186.158 72.6427 186.158H84.5874V205.383H89.4143V186.158H99.8785V205.383H104.705V186.158H115.158V205.383H119.995V186.158H130.447V205.383H135.284V186.158H145.737V205.383H150.564V186.158H161.028V205.383H165.845V186.158H176.309V205.383H181.146V186.158H193.1C198.933 186.158 203.672 181.392 203.672 175.514V163.49H203.691V158.634H203.672V148.117H203.691V143.252H203.672V132.736H203.691V127.88H203.672V117.354H203.691V112.499H203.672V101.982H203.691V97.117H203.672V86.6004H203.691V81.7353H203.672V71.2188H203.691ZM192.407 174.827H73.3187V55.0336H192.407V174.827Z" fill="white"/>
<path d="M189.177 134.702V136.33H164.578C164.183 139.548 161.479 142.04 158.172 142.04C154.59 142.04 151.678 139.121 151.678 135.517C151.678 131.913 154.59 128.993 158.172 128.993C161.479 128.993 164.183 131.495 164.578 134.704H189.177V134.702Z" fill="white"/>
<path d="M89.3236 80.8825H76.5366V79.264H89.3236C89.7239 76.044 92.4226 73.5479 95.735 73.5479C99.3175 73.5479 102.218 76.4676 102.218 80.0751C102.218 83.6826 99.3175 86.6005 95.735 86.6005C92.4226 86.6005 89.7239 84.1024 89.3236 80.8844V80.8825Z" fill="white"/>
<path d="M141.183 145.844C141.183 149.459 138.281 152.367 134.698 152.367C131.116 152.367 128.213 149.457 128.213 145.844C128.213 142.517 130.691 139.806 133.89 139.4V129.769C133.89 126.541 132.972 123.999 131.165 122.212C128.134 119.233 123.554 119.282 123.484 119.301H76.5366V117.673H123.573C124.344 117.673 128.982 117.822 132.279 121.049C134.411 123.144 135.497 126.083 135.497 129.767V139.398C138.706 139.805 141.183 142.515 141.183 145.842V145.844Z" fill="white"/>
<path d="M123.889 58.2725V81.7372C123.889 92.0353 115.271 92.4418 115.152 92.4418H76.5366V90.8328H115.134C115.311 90.8233 118.064 90.6941 120.098 88.4601C121.322 87.119 122.291 85.0236 122.291 81.7372V58.2725H123.89H123.889Z" fill="white"/>
<path d="M160.926 58.2725V80.1567C160.66 80.1263 160.393 80.0674 160.116 80.0674C159.838 80.0674 159.572 80.1263 159.317 80.1567V58.2725H160.926Z" fill="white"/>
<path d="M150.562 58.2725H148.953V75.6203H150.562V58.2725Z" fill="white"/>
<path d="M189.177 151.563H171.152V153.182H189.177V151.563Z" fill="white"/>
<path d="M101.066 154.542C101.066 154.81 101.115 155.078 101.146 155.346H76.5366V153.727H101.146C101.115 153.995 101.066 154.263 101.066 154.542Z" fill="white"/>
<path d="M73.3206 55.0334V174.827H192.409V55.0334H73.3206ZM189.179 171.578H76.5385V58.2705H189.179V171.578Z" fill="#8963D3"/>
<path d="M158.174 128.991C161.481 128.991 164.185 131.493 164.58 134.702H189.179V58.2705H160.928V80.1566C164.127 80.5537 166.604 83.2645 166.604 86.6003C166.604 90.204 163.702 93.1238 160.119 93.1238C156.537 93.1238 153.625 90.204 153.625 86.6003C153.625 83.2645 156.112 80.5537 159.321 80.1566V58.2705H150.566V75.6183H148.957V58.2705H123.893V81.7352C123.893 92.0315 115.275 92.4399 115.156 92.4399H76.5405V117.671H123.577C124.348 117.671 128.986 117.819 132.283 121.047C134.415 123.142 135.501 126.081 135.501 129.765V139.396C138.71 139.802 141.187 142.513 141.187 145.84C141.187 149.455 138.285 152.363 134.702 152.363C131.12 152.363 128.217 149.453 128.217 145.84C128.217 142.513 130.695 139.802 133.894 139.396V129.765C133.894 126.537 132.976 123.995 131.169 122.208C128.138 119.229 123.558 119.278 123.488 119.297H76.5405V153.723H101.149C101.544 150.505 104.248 148.003 107.555 148.003C111.138 148.003 114.04 150.933 114.04 154.536C114.04 158.14 111.138 161.06 107.555 161.06C104.248 161.06 101.544 158.558 101.149 155.34H76.5405V171.574H189.181V153.174H171.156V151.556H189.181V136.324H164.582C164.187 139.542 161.483 142.035 158.176 142.035C154.594 142.035 151.682 139.115 151.682 135.511C151.682 131.907 154.594 128.988 158.176 128.988L158.174 128.991ZM151.066 108.296H151.057C150.069 108.912 148.915 109.26 147.68 109.26C144.373 109.26 141.678 106.758 141.274 103.54C141.235 103.272 141.185 103.013 141.185 102.736C141.185 102.459 141.235 102.189 141.274 101.921C141.669 98.705 144.373 96.2012 147.68 96.2012C148.913 96.2012 150.069 96.5489 151.057 97.1644H151.066C152.922 98.3061 154.165 100.371 154.165 102.734C154.165 105.097 152.92 107.153 151.066 108.295V108.296Z" fill="#1F1F1F"/>
<path d="M114.037 154.542C114.037 158.146 111.134 161.066 107.551 161.066C104.245 161.066 101.54 158.564 101.146 155.346C101.116 155.078 101.066 154.81 101.066 154.542C101.066 154.274 101.116 153.997 101.146 153.727C101.54 150.509 104.245 148.007 107.551 148.007C111.134 148.007 114.037 150.937 114.037 154.54V154.542Z" fill="#8963D3"/>
<path d="M166.603 86.6023C166.603 90.206 163.7 93.1258 160.118 93.1258C156.535 93.1258 153.623 90.206 153.623 86.6023C153.623 83.2665 156.11 80.5557 159.319 80.1586C159.576 80.1282 159.842 80.0693 160.118 80.0693C160.393 80.0693 160.661 80.1282 160.928 80.1586C164.127 80.5557 166.605 83.2665 166.605 86.6023H166.603Z" fill="#8963D3"/>
<path d="M154.163 102.738C154.163 105.092 152.919 107.157 151.064 108.298H151.055C150.067 108.914 148.913 109.261 147.678 109.261C144.371 109.261 141.676 106.76 141.272 103.542C141.233 103.274 141.184 103.015 141.184 102.738C141.184 102.461 141.233 102.193 141.272 101.923C141.667 98.705 144.371 96.2031 147.678 96.2031C148.911 96.2031 150.067 96.5508 151.055 97.1663C151.064 97.1568 151.064 97.1663 151.064 97.1663C152.921 98.308 154.163 100.373 154.163 102.736V102.738Z" fill="#8963D3"/>
</g>
<path d="M263.021 101.667H246.878L268.817 40.8904H285.373L307.31 101.667H291.167L287.441 90.8137H266.745L263.021 101.667ZM270.471 79.5259H283.717L277.094 59.1234L270.471 79.5259Z" fill="white"/>
<path d="M311.448 40.8904H346.217C352.012 40.8904 356.22 42.2657 358.841 45.0146C361.462 47.7634 362.773 52.1782 362.773 58.2553V66.0686C362.773 70.8729 362.014 74.6076 360.496 77.2691C358.977 79.9324 356.564 81.6972 353.251 82.5654L363.598 101.667H347.456L337.936 83.4335H326.346V101.667H311.446V40.8904H311.448ZM347.873 58.2553C347.873 54.7827 346.217 53.0464 342.906 53.0464H326.35V71.2794H342.906C346.217 71.2794 347.873 69.5431 347.873 66.0705V58.2572V58.2553Z" fill="white"/>
<path d="M420.721 67.8068L409.132 89.5125H397.542L385.952 67.8068V101.668H371.052V40.8904H386.781L403.338 73.0157L419.894 40.8904H435.623V101.667H420.723V67.8049L420.721 67.8068Z" fill="white"/>
<path d="M251.398 176.208C269.064 176.208 280.392 176.208 286.512 176.208C287.963 176.208 289.902 176.371 290.374 175.872C291.224 174.977 291.245 173.761 291.245 172.237V163.303H269.476C262.851 163.303 258.038 161.732 255.042 158.588C252.045 155.446 250.546 150.399 250.546 143.45V140.471C250.546 133.522 252.043 128.477 255.042 125.333C258.039 122.191 262.851 120.618 269.476 120.618H302.698V134.516H273.263C269.476 134.516 267.584 136.501 267.584 140.471V142.456C267.584 146.427 269.476 148.412 273.263 148.412H290.299C296.482 148.412 301.025 149.935 303.928 152.979C306.829 156.024 308.281 160.788 308.281 167.274V172.237C308.281 178.725 306.829 183.489 303.928 186.532C301.025 189.578 296.421 190.11 290.238 190.11C287.02 190.11 283.744 190.091 280.038 190.11H251.398V176.208Z" fill="#8963D3"/>
<path d="M316.8 120.618H354.658C360.841 120.618 365.385 122.092 368.288 125.034C371.19 127.979 372.64 132.464 372.64 138.486C372.64 142.456 371.819 145.682 370.18 148.165C368.539 150.648 366.52 152.384 364.121 153.376C369.234 154.833 372.703 158.406 374.533 164.095C375.163 166.147 375.479 168.529 375.479 171.242C375.479 177.727 374.027 182.494 371.126 185.537C368.223 188.582 363.68 190.104 357.497 190.104H316.798V120.618H316.8ZM355.606 140.471C355.606 136.501 353.714 134.516 349.928 134.516H333.838V148.414H349.928C353.714 148.414 355.606 146.428 355.606 142.458V140.473V140.471ZM358.445 168.267C358.445 164.297 356.552 162.312 352.766 162.312H333.836V176.21H352.766C356.552 176.21 358.445 174.224 358.445 170.254V168.269V168.267Z" fill="#8963D3"/>
<path d="M435.11 190.106C420.406 190.06 409.366 190.06 400.09 190.06C393.905 190.06 389.361 189.578 386.46 186.533C383.558 183.489 382.107 178.725 382.107 172.237V140.473C382.107 133.524 383.605 128.479 386.604 125.335C389.601 122.193 394.413 120.62 401.038 120.62H435.112V134.518H404.824C401.038 134.518 399.145 136.503 399.145 140.473V172.237C399.221 173.791 399.11 175.182 400.178 175.794C401.13 176.337 402.363 176.202 403.687 176.202C405.011 176.202 406.463 176.195 408.04 176.198C409.617 176.202 411.245 176.198 412.956 176.198C414.667 176.198 416.357 176.2 418.119 176.198C419.877 176.198 422.024 176.198 424.84 176.21C427.639 176.219 430.912 176.2 435.11 176.2V190.106Z" fill="#8963D3"/>
<path opacity="0.5" d="M511.875 2.45632H512.194C512.177 2.60993 512.134 2.74739 512.064 2.86872C511.992 2.99003 511.892 3.08632 511.764 3.15756C511.633 3.22768 511.471 3.26275 511.278 3.26275C511.137 3.26275 511.008 3.23604 510.891 3.1826C510.776 3.12918 510.678 3.05348 510.595 2.95553C510.512 2.85646 510.447 2.73792 510.402 2.59989C510.357 2.46076 510.336 2.30603 510.336 2.13575V1.89364C510.336 1.72334 510.357 1.56918 510.402 1.43116C510.447 1.29202 510.512 1.17292 510.597 1.07385C510.682 0.974791 510.784 0.898544 510.902 0.845116C511.023 0.791687 511.157 0.764972 511.307 0.764972C511.49 0.764972 511.643 0.799478 511.769 0.868491C511.896 0.937502 511.994 1.03323 512.064 1.15567C512.134 1.27699 512.177 1.4178 512.194 1.57808H511.875C511.86 1.46455 511.832 1.36715 511.79 1.2859C511.747 1.20353 511.688 1.14008 511.611 1.09556C511.533 1.05104 511.431 1.02878 511.307 1.02878C511.199 1.02878 511.105 1.04937 511.023 1.09055C510.942 1.13174 510.874 1.19017 510.817 1.26586C510.765 1.34155 510.723 1.43227 510.695 1.53801C510.668 1.64376 510.653 1.76119 510.653 1.8903V2.13575C510.653 2.25484 510.666 2.36671 510.691 2.47134C510.716 2.57596 510.753 2.66779 510.804 2.74683C510.855 2.82586 510.921 2.88819 510.999 2.93382C511.078 2.97835 511.171 3.00061 511.278 3.00061C511.414 3.00061 511.522 2.9789 511.603 2.93549C511.684 2.89208 511.745 2.82975 511.786 2.74851C511.828 2.66724 511.858 2.56984 511.875 2.45632ZM512.504 2.34612V2.30771C512.504 2.17748 512.521 2.0567 512.559 1.9454C512.596 1.83298 512.651 1.73559 512.723 1.65322C512.793 1.56974 512.878 1.50518 512.98 1.45954C513.08 1.41279 513.193 1.38941 513.318 1.38941C513.444 1.38941 513.558 1.41279 513.658 1.45954C513.76 1.50518 513.847 1.56974 513.917 1.65322C513.988 1.73559 514.043 1.83298 514.081 1.9454C514.119 2.0567 514.137 2.17748 514.137 2.30771V2.34612C514.137 2.47634 514.119 2.59712 514.081 2.70842C514.043 2.81974 513.988 2.91712 513.917 3.00061C513.847 3.08298 513.76 3.14753 513.66 3.19428C513.56 3.23993 513.448 3.26275 513.322 3.26275C513.195 3.26275 513.082 3.23993 512.982 3.19428C512.88 3.14753 512.795 3.08298 512.723 3.00061C512.651 2.91712 512.596 2.81974 512.559 2.70842C512.521 2.59712 512.504 2.47634 512.504 2.34612ZM512.81 2.30771V2.34612C512.81 2.43628 512.821 2.52142 512.842 2.60157C512.863 2.68059 512.895 2.75073 512.936 2.81194C512.98 2.87316 513.033 2.92159 513.097 2.9572C513.161 2.9917 513.237 3.00895 513.322 3.00895C513.405 3.00895 513.478 2.9917 513.543 2.9572C513.607 2.92159 513.66 2.87316 513.701 2.81194C513.743 2.75073 513.775 2.68059 513.796 2.60157C513.818 2.52142 513.83 2.43628 513.83 2.34612V2.30771C513.83 2.21867 513.818 2.13463 513.796 2.0556C513.775 1.97545 513.743 1.90477 513.699 1.84356C513.658 1.78122 513.605 1.73225 513.541 1.69663C513.476 1.66101 513.403 1.6432 513.318 1.6432C513.235 1.6432 513.159 1.66101 513.095 1.69663C513.033 1.73225 512.98 1.78122 512.936 1.84356C512.895 1.90477 512.863 1.97545 512.842 2.0556C512.821 2.13463 512.81 2.21867 512.81 2.30771ZM514.831 1.80849V3.22935H514.523V1.42281H514.814L514.831 1.80849ZM514.757 2.25763L514.628 2.25262C514.63 2.12906 514.649 2.01497 514.683 1.91033C514.719 1.8046 514.77 1.71277 514.834 1.63485C514.897 1.55694 514.974 1.49683 515.063 1.45453C515.152 1.41112 515.252 1.38941 515.359 1.38941C515.448 1.38941 515.527 1.40166 515.599 1.42615C515.669 1.44952 515.729 1.48737 515.779 1.53968C515.83 1.592 515.869 1.6599 515.896 1.74338C515.922 1.82575 515.935 1.92648 515.935 2.04559V3.22935H515.627V2.04225C515.627 1.94762 515.612 1.87194 515.586 1.81517C515.558 1.75729 515.518 1.71555 515.463 1.68995C515.41 1.66324 515.346 1.64988 515.269 1.64988C515.191 1.64988 515.121 1.66602 515.059 1.6983C514.997 1.73058 514.944 1.7751 514.899 1.83187C514.853 1.88864 514.819 1.95376 514.793 2.02722C514.77 2.09956 514.757 2.17636 514.757 2.25763ZM517.153 1.42281V1.6599H516.183V1.42281H517.153ZM516.511 0.983695H516.819V2.78188C516.819 2.84311 516.829 2.88931 516.847 2.92046C516.866 2.95164 516.889 2.97223 516.919 2.98224C516.949 2.99227 516.982 2.99727 517.015 2.99727C517.042 2.99727 517.068 2.99505 517.095 2.9906C517.125 2.98503 517.146 2.98057 517.161 2.97725L517.163 3.22935C517.138 3.23714 517.106 3.24438 517.066 3.25106C517.027 3.25885 516.98 3.26275 516.925 3.26275C516.849 3.26275 516.779 3.24772 516.717 3.21767C516.655 3.18761 516.604 3.13752 516.566 3.0674C516.53 2.99617 516.511 2.90044 516.511 2.78021V0.983695ZM517.822 1.70665V3.22935H517.514V1.42281H517.812L517.822 1.70665ZM518.383 1.41279L518.381 1.69997C518.354 1.6944 518.33 1.69106 518.307 1.68995C518.285 1.68772 518.26 1.68661 518.232 1.68661C518.16 1.68661 518.098 1.69774 518.043 1.72C517.99 1.74227 517.943 1.77343 517.905 1.8135C517.867 1.85357 517.839 1.90144 517.816 1.95708C517.795 2.01162 517.78 2.07173 517.775 2.13742L517.688 2.1875C517.688 2.07842 517.699 1.976 517.72 1.88029C517.743 1.78456 517.777 1.69997 517.822 1.6265C517.867 1.55193 517.924 1.49404 517.994 1.45286C518.064 1.41056 518.149 1.38941 518.247 1.38941C518.268 1.38941 518.294 1.3922 518.322 1.39776C518.351 1.40222 518.371 1.40722 518.383 1.41279ZM518.551 2.34612V2.30771C518.551 2.17748 518.57 2.0567 518.607 1.9454C518.645 1.83298 518.7 1.73559 518.77 1.65322C518.842 1.56974 518.927 1.50518 519.029 1.45954C519.129 1.41279 519.242 1.38941 519.367 1.38941C519.493 1.38941 519.607 1.41279 519.707 1.45954C519.809 1.50518 519.895 1.56974 519.965 1.65322C520.037 1.73559 520.092 1.83298 520.13 1.9454C520.167 2.0567 520.186 2.17748 520.186 2.30771V2.34612C520.186 2.47634 520.167 2.59712 520.13 2.70842C520.092 2.81974 520.037 2.91712 519.965 3.00061C519.895 3.08298 519.809 3.14753 519.708 3.19428C519.608 3.23993 519.495 3.26275 519.37 3.26275C519.244 3.26275 519.131 3.23993 519.029 3.19428C518.929 3.14753 518.842 3.08298 518.77 3.00061C518.7 2.91712 518.645 2.81974 518.607 2.70842C518.57 2.59712 518.551 2.47634 518.551 2.34612ZM518.859 2.30771V2.34612C518.859 2.43628 518.868 2.52142 518.891 2.60157C518.912 2.68059 518.942 2.75073 518.985 2.81194C519.029 2.87316 519.082 2.92159 519.146 2.9572C519.21 2.9917 519.284 3.00895 519.37 3.00895C519.454 3.00895 519.527 2.9917 519.59 2.9572C519.654 2.92159 519.708 2.87316 519.75 2.81194C519.792 2.75073 519.824 2.68059 519.844 2.60157C519.867 2.52142 519.878 2.43628 519.878 2.34612V2.30771C519.878 2.21867 519.867 2.13463 519.844 2.0556C519.824 1.97545 519.792 1.90477 519.748 1.84356C519.707 1.78122 519.654 1.73225 519.59 1.69663C519.525 1.66101 519.452 1.6432 519.367 1.6432C519.282 1.6432 519.208 1.66101 519.144 1.69663C519.082 1.73225 519.029 1.78122 518.985 1.84356C518.942 1.90477 518.912 1.97545 518.891 2.0556C518.868 2.13463 518.859 2.21867 518.859 2.30771ZM520.906 0.664795V3.22935H520.596V0.664795H520.906ZM521.731 0.664795V3.22935H521.423V0.664795H521.731ZM522.97 3.26275C522.845 3.26275 522.732 3.2416 522.63 3.1993C522.528 3.15589 522.441 3.09521 522.369 3.01731C522.298 2.93938 522.241 2.847 522.203 2.74015C522.164 2.63329 522.145 2.51642 522.145 2.38953V2.31941C522.145 2.17247 522.167 2.04168 522.209 1.92703C522.252 1.81128 522.311 1.71332 522.386 1.63318C522.46 1.55304 522.543 1.49238 522.638 1.45119C522.732 1.41001 522.828 1.38941 522.93 1.38941C523.059 1.38941 523.168 1.41168 523.263 1.4562C523.355 1.50072 523.433 1.56306 523.493 1.6432C523.552 1.72223 523.597 1.81573 523.625 1.92371C523.654 2.03056 523.669 2.14743 523.669 2.27433V2.41289H522.328V2.16079H523.361V2.13742C523.357 2.05727 523.34 1.97935 523.312 1.90367C523.283 1.82797 523.24 1.76564 523.18 1.71666C523.117 1.66769 523.034 1.6432 522.93 1.6432C522.86 1.6432 522.796 1.65823 522.738 1.68828C522.679 1.71722 522.628 1.76063 522.587 1.81851C522.545 1.87639 522.511 1.94707 522.488 2.03056C522.466 2.11403 522.454 2.21031 522.454 2.31941V2.38953C522.454 2.47524 522.466 2.55594 522.488 2.63162C522.513 2.7062 522.547 2.77187 522.592 2.82863C522.639 2.88542 522.696 2.92992 522.76 2.96222C522.826 2.99449 522.902 3.01062 522.987 3.01062C523.095 3.01062 523.187 2.98836 523.263 2.94385C523.336 2.89932 523.402 2.83977 523.459 2.76519L523.646 2.9138C523.606 2.97278 523.557 3.02899 523.497 3.08243C523.438 3.13585 523.365 3.17926 523.278 3.21265C523.191 3.24605 523.089 3.26275 522.97 3.26275ZM524.333 1.70665V3.22935H524.027V1.42281H524.326L524.333 1.70665ZM524.894 1.41279V1.69997C524.868 1.6944 524.843 1.69106 524.821 1.68995C524.798 1.68772 524.773 1.68661 524.743 1.68661C524.673 1.68661 524.611 1.69774 524.556 1.72C524.501 1.74227 524.456 1.77343 524.418 1.8135C524.381 1.85357 524.35 1.90144 524.33 1.95708C524.309 2.01162 524.294 2.07173 524.288 2.13742L524.201 2.1875C524.201 2.07842 524.213 1.976 524.233 1.88029C524.254 1.78456 524.288 1.69997 524.333 1.6265C524.379 1.55193 524.437 1.49404 524.507 1.45286C524.577 1.41056 524.662 1.38941 524.758 1.38941C524.781 1.38941 524.807 1.3922 524.836 1.39776C524.864 1.40222 524.885 1.40722 524.894 1.41279Z" fill="white"/>
</svg>
