<svg width="169" height="89" viewBox="0 0 169 89" fill="none" xmlns="http://www.w3.org/2000/svg">
<path d="M106.15 79.5874H90.1504V73.6914H106.15V79.5874ZM90.4171 79.3194H105.884V73.9594H90.4171V79.3194Z" fill="#D2D2D2"/>
<path d="M121.883 79.5874H105.883V73.6914H121.883V79.5874ZM106.149 79.3194H121.616V73.9594H106.149V79.3194Z" fill="#D2D2D2"/>
<path d="M72.2871 66.4561H56.2871V60.5601H72.2871V66.4561ZM56.5538 66.1881H72.0204V60.8281H56.5538V66.1881Z" fill="#D2D2D2"/>
<path d="M19.9638 30.0874C23.5811 26.452 23.5811 20.5578 19.9638 16.9224C16.3464 13.2869 10.4816 13.2869 6.86423 16.9224C3.24689 20.5578 3.24689 26.452 6.86422 30.0874C10.4816 33.7228 16.3464 33.7228 19.9638 30.0874Z" fill="#D2D2D2"/>
<path d="M13.525 23.7376L7.43945 22.2959L7.53112 21.9046L13.3055 23.2725L14.7627 20.2656L15.1224 20.4418L13.525 23.7376Z" fill="#2C2C2D"/>
<path d="M44.0783 13.7433L40.168 14.8713L40.636 16.5099L44.5463 15.3819L44.0783 13.7433Z" fill="white"/>
<path d="M39.7532 13.9042L39.0686 11.5074C37.4432 11.1432 36.1543 9.9273 35.6941 8.31656C35.0041 5.90101 36.3982 3.37176 38.8014 2.67837C41.2051 1.98432 43.7215 3.38609 44.4115 5.80131C44.8717 7.41219 44.4209 9.13014 43.2353 10.3054L43.9199 12.7022L39.7532 13.9042ZM40.051 2.76889C39.6621 2.76889 39.267 2.82282 38.8751 2.93585C36.6129 3.58857 35.301 5.96914 35.9503 8.24245C36.3904 9.78319 37.6361 10.9401 39.2014 11.2619L39.2806 11.2781L39.9361 13.5726L43.59 12.5184L42.9347 10.2239L42.9931 10.1679C44.1502 9.06079 44.5955 7.41594 44.1554 5.87535C43.6183 3.99586 41.9063 2.76889 40.051 2.76889Z" fill="white"/>
<path d="M37.2258 7.74217C36.8478 6.6894 37.0383 5.78504 37.7919 5.0542L37.9771 5.24709C37.2965 5.90711 37.1328 6.69349 37.4765 7.65112L37.2258 7.74217Z" fill="white"/>
<path d="M59.4634 34.2051V29.5382C58.2009 29.1834 57.3301 28.0381 57.3301 26.7097V20.4767C57.3301 18.8555 58.6426 17.5364 60.2557 17.5364H74.2801C75.8932 17.5364 77.2057 18.8555 77.2057 20.4767V26.7097C77.2057 28.3309 75.8932 29.65 74.2801 29.65H63.4294L59.4634 34.2051ZM60.2557 17.858C58.819 17.858 57.6501 19.0328 57.6501 20.4767V26.7097C57.6501 27.9308 58.4765 28.9782 59.6599 29.257L59.7835 29.286V33.3493L63.2841 29.3284H74.2801C75.7168 29.3284 76.8857 28.1537 76.8857 26.7097V20.4767C76.8857 19.0328 75.7168 17.858 74.2801 17.858H60.2557Z" fill="white"/>
<path d="M62.369 25.1876C61.6055 25.1876 60.9844 24.5525 60.9844 23.772C60.9844 22.9913 61.6054 22.3562 62.369 22.3562C63.1326 22.3562 63.7538 22.9912 63.7538 23.772C63.7538 24.5525 63.1326 25.1876 62.369 25.1876ZM62.369 22.6779C61.782 22.6779 61.3044 23.1687 61.3044 23.772C61.3044 24.3752 61.782 24.866 62.369 24.866C62.9562 24.866 63.4338 24.3752 63.4338 23.772C63.4338 23.1687 62.9561 22.6779 62.369 22.6779Z" fill="white"/>
<path d="M67.2675 25.1876C66.504 25.1876 65.8828 24.5525 65.8828 23.772C65.8828 22.9913 66.504 22.3562 67.2675 22.3562C68.0309 22.3562 68.6522 22.9912 68.6522 23.772C68.6522 24.5525 68.0309 25.1876 67.2675 25.1876ZM67.2675 22.6779C66.6804 22.6779 66.2028 23.1687 66.2028 23.772C66.2028 24.3752 66.6804 24.866 67.2675 24.866C67.8545 24.866 68.3321 24.3752 68.3321 23.772C68.3321 23.1687 67.8545 22.6779 67.2675 22.6779Z" fill="white"/>
<path d="M72.166 25.1876C71.4024 25.1876 70.7812 24.5525 70.7812 23.772C70.7812 22.9913 71.4024 22.3562 72.166 22.3562C72.9294 22.3562 73.5507 22.9912 73.5507 23.772C73.5506 24.5525 72.9294 25.1876 72.166 25.1876ZM72.166 22.6779C71.5788 22.6779 71.1013 23.1687 71.1013 23.772C71.1013 24.3752 71.5788 24.866 72.166 24.866C72.753 24.866 73.2306 24.3752 73.2306 23.772C73.2306 23.1687 72.7529 22.6779 72.166 22.6779Z" fill="white"/>
<path d="M56.1057 58.7254L63.3818 51.7749L67.7682 56.1313L55.742 67.8656C53.6612 69.896 50.3221 69.796 48.3652 67.6447L50.223 59.3468L56.1057 58.7254Z" fill="#FF8F78"/>
<path d="M56.1063 58.7254L50.9975 62.5528L50.4277 56.0058L55.2362 54.9478L56.1063 58.7254Z" fill="#FF8F78"/>
<path d="M74.6914 46.8329L66.8047 38.7803L56.6682 48.8073L64.5549 56.86L74.6914 46.8329Z" fill="#599BFF"/>
<path d="M70.8071 47.3315L66.2461 42.6746L65.0876 43.8205L69.6486 48.4775L70.8071 47.3315Z" fill="white"/>
<path d="M71.354 53.5383C71.1409 53.7115 70.8609 53.7122 70.634 53.5611C70.477 53.4566 70.3592 53.3039 70.2418 53.1559C69.687 52.4561 69.0488 51.8487 68.452 51.1891C68.1237 50.8264 67.8004 50.2378 68.1964 49.8071C68.6803 49.2807 69.6975 50.155 70.0566 50.4652C70.5811 50.9181 71.0761 51.488 71.3954 52.1063C71.545 52.3961 71.6933 52.7517 71.6262 53.0855C71.5904 53.2636 71.4901 53.4276 71.354 53.5383Z" fill="#FF8F78"/>
<path d="M70.0507 54.4867C70.0423 54.491 70.0373 54.4999 70.0304 54.5062C69.4229 55.0572 68.7969 53.9325 68.4635 53.5694C68.0179 53.084 67.5714 52.5995 67.1291 52.111C66.8007 51.7482 66.4778 51.1594 66.8751 50.7276C67.3607 50.1997 68.3785 51.0737 68.7377 51.3836C69.2623 51.8362 70.1433 52.392 70.4624 53.0109C70.6457 53.3668 70.8179 54.0828 70.0507 54.4867Z" fill="#FF8F78"/>
<path d="M68.8906 55.6291C68.6783 55.8022 68.4055 55.8106 68.1887 55.6711C68.0387 55.5746 67.928 55.4306 67.8178 55.291C67.2966 54.631 66.6916 54.0627 66.1285 53.4426C65.8187 53.1017 65.52 52.5426 65.9175 52.1159C66.4035 51.5944 67.3703 52.4099 67.7115 52.6992C68.2099 53.1217 68.9689 53.227 69.2629 53.8149C69.4007 54.0904 69.6041 54.6074 69.5295 54.9316C69.4897 55.1045 69.0263 55.5184 68.8906 55.6291Z" fill="#FF8F78"/>
<path d="M68.4486 55.8003C68.5548 55.5635 68.5169 55.3082 68.3675 55.1386C68.2641 55.0213 68.1165 54.9706 67.9965 54.881C67.2273 54.306 66.8097 54.1154 66.2115 53.7339C65.8825 53.524 65.3775 53.3742 65.0949 53.841C64.7495 54.4115 65.5735 55.1233 65.8655 55.3742C66.292 55.7407 66.8061 56.0515 67.3337 56.1903C67.5811 56.2554 67.8797 56.303 68.1317 56.1597C68.2662 56.0834 68.3807 55.9516 68.4486 55.8003Z" fill="#FF8F78"/>
<path d="M56.3919 58.4363L53.6602 61.1848L53.8865 61.412L56.6182 58.6635L56.3919 58.4363Z" fill="#2C2C2D"/>
<path d="M67.6675 56.4091C67.2063 56.3545 65.4302 55.2372 64.9551 54.5549L65.2173 54.3706C65.6551 54.999 67.3687 56.05 67.7049 56.0898L67.6675 56.4091Z" fill="#2C2C2D"/>
<path d="M56.2601 88.6996H26.3828L27.6548 76.5297L28.2148 71.1617L46.0975 70.3845L52.1908 70.1191L56.2601 88.6996Z" fill="#FF5970"/>
<g opacity="0.6">
<path d="M55.5335 85.3792C54.7991 85.5515 53.9759 85.6259 53.0577 85.5896C49.971 85.4695 47.0083 84.3417 44.1431 83.2509C42.5284 82.6361 40.8587 82.0004 39.1749 81.5461C35.2606 80.49 31.1293 80.3775 27.1664 81.209L27.1445 81.4182C31.0958 80.5783 35.2182 80.6861 39.1231 81.7402C40.7972 82.192 42.4622 82.8258 44.0723 83.4388C46.9524 84.5354 49.9307 85.6692 53.0499 85.7907C53.9853 85.8264 54.8252 85.7501 55.5763 85.5744L55.5335 85.3792Z" fill="white"/>
<path d="M50.7947 78.828C51.66 78.9026 52.5323 78.7905 53.3761 78.6822C53.5979 78.6538 53.8232 78.6256 54.0493 78.6001L54.0061 78.4027C53.7858 78.4278 53.5667 78.4551 53.3509 78.4827C52.5175 78.5895 51.6556 78.7 50.8117 78.6275C49.543 78.5189 48.0297 77.7889 47.705 76.4434C47.4311 75.3075 48.1092 74.1641 48.9028 73.5344C49.7942 72.8269 50.923 72.5155 52.0101 72.2842C52.2196 72.2395 52.43 72.2046 52.6399 72.1647L52.5968 71.9683C52.3874 72.0081 52.1776 72.0428 51.9687 72.0873C50.8579 72.3239 49.7025 72.6438 48.7788 73.3768C47.9352 74.046 47.2158 75.2685 47.5107 76.4905C47.8605 77.9408 49.412 78.7095 50.7947 78.828Z" fill="white"/>
</g>
<path opacity="0.2" d="M46.097 70.3845L27.6543 76.5298L28.2143 71.1617L46.097 70.3845Z" fill="#2C2C2D"/>
<path d="M40.984 70.7365L40.666 70.7715L41.4914 78.3429L41.8093 78.3079L40.984 70.7365Z" fill="#2C2C2D"/>
<path d="M50.9971 62.5529L52.1891 70.1205L28.2151 71.1598L25.4316 48.4631L28.9954 41.7387L39.2315 40.3914L50.0466 42.5695C51.5358 42.8682 52.7155 44.0195 53.0561 45.507L55.2358 54.9479L50.4274 56.0059L50.9971 62.5529Z" fill="#FFD966"/>
<path d="M49.9848 49.1089L49.666 49.137L50.2665 56.0232L50.5853 55.9951L49.9848 49.1089Z" fill="#2C2C2D"/>
<path d="M52.1814 69.9649L35.9219 70.5896L35.9341 70.911L52.1936 70.2863L52.1814 69.9649Z" fill="#2C2C2D"/>
<path d="M26.769 52.8382L28.9952 41.7388L26.738 42.0344C24.258 42.3611 22.0039 43.6431 20.4465 45.6097L14.9102 52.6065L21.6051 57.9429L26.769 52.8382Z" fill="#FFD966"/>
<path d="M30.9091 70.9638L28.0483 71.0416L31.2993 69.4857C31.2993 69.4857 32.8071 71.3122 33.3861 71.1567C33.9682 71.0011 33.2313 69.1745 32.0331 67.7338L30.5591 66.8068C30.2101 66.5873 29.7708 66.5725 29.4081 66.7682L24.3699 69.4857L17.326 62.1732L21.6055 57.9428L14.9107 52.6064L10.1304 58.6476C8.56373 60.5427 8.52347 63.2841 10.0344 65.2227C13.4557 69.6195 17.1371 73.422 22.6669 75.398C23.3109 75.6282 24.0169 75.6251 24.664 75.398C25.4938 75.1024 26.6703 74.7041 27.3887 74.5422C27.3887 74.5422 29.1195 74.9312 29.9059 75.1646C31.3301 75.5909 30.4446 74.2684 28.9367 73.1793L30.3703 72.7935C30.3703 72.7935 32.6924 74.2311 33.3488 74.1128C34.0053 73.9977 32.6121 72.1306 30.9091 70.9638Z" fill="#FF8F78"/>
<path d="M33.1194 69.4983L32.3346 68.4729C32.04 68.0882 31.5483 67.9222 31.0819 68.0504L27.8689 68.9356L27.7871 68.6356L31.0001 67.7505C31.588 67.5888 32.2082 67.7976 32.5799 68.2833L33.3646 69.3088L33.1194 69.4983Z" fill="#2C2C2D"/>
<path d="M30.274 74.5465L29.1349 73.5569C28.9633 73.4075 28.7531 73.3145 28.5271 73.2884L26.3652 73.0374L26.4006 72.728L28.5626 72.979C28.8508 73.0128 29.1186 73.1311 29.3375 73.3216L30.4766 74.3109L30.274 74.5465Z" fill="#2C2C2D"/>
<path d="M14.7244 61.3886L14.6504 61.7017L17.2906 62.3325L17.3647 62.0195L14.7244 61.3886Z" fill="#2C2C2D"/>
<path d="M32.8908 73.0892L31.1957 71.455C30.9758 71.2427 30.6724 71.1234 30.3699 71.1341L28.0533 71.197L28.0449 70.886L30.3616 70.8232C30.7485 70.807 31.1307 70.9611 31.4101 71.2304L33.1051 72.8646L32.8908 73.0892Z" fill="#2C2C2D"/>
<path d="M28.2619 50.9294L23.8613 55.2166L24.084 55.4474L28.4846 51.1603L28.2619 50.9294Z" fill="#2C2C2D"/>
<path d="M41.623 32.6073C47.526 32.9821 46.3643 25.3249 39.6549 26.3139C39.6549 26.3139 38.281 23.8264 34.4663 25.6396C31.08 27.2491 28.0781 37.1886 28.0781 37.1886L35.3243 38.6271L41.623 32.6073Z" fill="#2C2C2D"/>
<path d="M40.663 34.6802V41.5287C40.663 43.1539 39.3543 44.4719 37.7371 44.4719C36.12 44.4719 34.8086 43.1539 34.8086 41.5287V34.6802H40.663Z" fill="#FF8F78"/>
<path d="M40.6622 37.8094V40.5181C38.5704 40.0168 37.1356 38.4132 35.9824 36.3433L40.6622 37.8094Z" fill="#2C2C2D"/>
<path d="M41.1857 31.9763C43.2265 33.2178 45.2137 36.7046 44.9452 39.5654L39.6328 38.782L41.1857 31.9763Z" fill="#2C2C2D"/>
<path d="M42.8619 35.2081C42.7996 36.2945 42.5524 37.2184 41.9403 37.5643C39.4112 38.9942 35.2998 36.2992 35.2998 36.2992L34.8032 33.1027L34.2812 29.4305L37.6905 28.0284C39.4043 27.5665 40.7532 27.9124 41.7371 28.9755C42.2845 29.5721 42.4162 30.2406 42.5409 31.0415C42.6425 31.6984 42.7788 32.6292 42.8412 33.5856C42.8781 34.1333 42.8896 34.6881 42.8619 35.2081Z" fill="#FF8F78"/>
<path d="M35.523 33.7377C35.8135 30.5933 39.3222 28.8864 41.8252 28.9762C40.0373 26.9548 38.1496 27.2099 36.685 26.9548L32.707 29.4255L35.523 33.7377Z" fill="#2C2C2D"/>
<path d="M35.6542 35.0233C36.3043 34.5946 36.4032 33.5913 35.8751 32.7823C35.3469 31.9734 34.3918 31.6652 33.7416 32.0939C33.0915 32.5226 32.9926 33.5259 33.5207 34.3348C34.0489 35.1438 35.0041 35.452 35.6542 35.0233Z" fill="#FF8F78"/>
<path d="M34.9133 33.8776C34.8039 33.3729 34.5267 33.1016 34.041 33.0239L34.0829 32.7593C34.6747 32.8539 35.0418 33.211 35.174 33.8206L34.9133 33.8776Z" fill="#2C2C2D"/>
<path d="M39.4425 32.9276C39.4824 33.165 39.356 33.3843 39.1604 33.4175C38.9647 33.4507 38.7738 33.2852 38.7339 33.0478C38.694 32.8104 38.8204 32.5911 39.016 32.5579C39.2117 32.5248 39.4026 32.6903 39.4425 32.9276Z" fill="#2C2C2D"/>
<path d="M41.9416 32.755C41.9876 32.9913 41.8671 33.2139 41.6724 33.2522C41.4776 33.2906 41.2824 33.1301 41.2364 32.8939C41.1903 32.6577 41.3108 32.4351 41.5056 32.3968C41.7003 32.3584 41.8955 32.5188 41.9416 32.755Z" fill="#2C2C2D"/>
<path d="M40.644 34.8418L40.5977 34.5779C40.6444 34.5696 40.6944 34.5639 40.7449 34.5582C41.0231 34.5269 41.0739 34.4952 41.0651 34.3594C41.0541 34.1886 40.9031 33.9884 40.7819 33.8275C40.7549 33.7917 40.7289 33.7571 40.7054 33.7244L40.9215 33.5674C40.9439 33.5987 40.9688 33.6315 40.9946 33.6657C41.1373 33.8551 41.3149 34.091 41.3313 34.3418C41.3584 34.7588 40.9931 34.7998 40.7747 34.8244C40.7298 34.8297 40.6854 34.8345 40.644 34.8418Z" fill="#2C2C2D"/>
<path d="M40.2031 35.2626C40.474 35.5773 40.5219 35.9816 40.3102 36.1657C40.0986 36.3497 39.7073 36.2437 39.4364 35.929C39.1656 35.6143 39.1176 35.21 39.3293 35.0259C39.541 34.8419 39.9322 34.9478 40.2031 35.2626Z" fill="#F4F4F4"/>
<path d="M39.6277 31.4185C39.6733 31.6882 39.4725 31.692 38.8309 31.8987C38.3653 32.0487 37.9967 32.1348 37.9415 31.9618C37.8864 31.7889 38.2191 31.5271 38.6847 31.377C39.1503 31.227 39.5631 31.0366 39.6277 31.4185Z" fill="#2C2C2D"/>
<path d="M41.0538 31.3626C41.0144 31.6237 41.2026 31.6299 41.8055 31.8384C42.2432 31.9896 42.5892 32.0777 42.6388 31.9106C42.6884 31.7434 42.3737 31.4853 41.936 31.334C41.4984 31.1826 41.1096 30.9928 41.0538 31.3626Z" fill="#2C2C2D"/>
<path opacity="0.4" d="M38.2985 35.1288C38.6152 34.8105 38.6152 34.2945 38.2985 33.9762C37.9818 33.6579 37.4683 33.6579 37.1516 33.9762C36.8349 34.2945 36.8349 34.8105 37.1516 35.1288C37.4683 35.4471 37.9818 35.4471 38.2985 35.1288Z" fill="#FF5970"/>
<path opacity="0.4" d="M42.8635 35.2082C42.8381 35.2128 42.815 35.2128 42.7896 35.2128C42.3415 35.2128 41.9766 34.8484 41.9766 34.398C41.9766 33.9477 42.3415 33.5833 42.7896 33.5833C42.808 33.5833 42.8242 33.5833 42.8427 33.5856C42.8797 34.1334 42.8912 34.6882 42.8635 35.2082Z" fill="#FF5970"/>
<path d="M99.244 34.8522C92.0489 34.8522 86.1953 28.9693 86.1953 21.7382C86.1953 14.5071 92.049 8.62402 99.244 8.62402C106.439 8.62402 112.293 14.5071 112.293 21.7382C112.293 28.9693 106.439 34.8522 99.244 34.8522ZM99.244 8.94562C92.2252 8.94562 86.515 14.6843 86.515 21.7382C86.515 28.7919 92.2252 34.5306 99.244 34.5306C106.263 34.5306 111.973 28.792 111.973 21.7382C111.973 14.6843 106.263 8.94562 99.244 8.94562Z" fill="white"/>
<path d="M97.2162 24.45L97.194 23.858C97.1257 22.6953 97.5098 21.5103 98.531 20.279C99.2567 19.4132 99.8458 18.6838 99.8458 17.9091C99.8458 17.111 99.325 16.5867 98.1912 16.5413C97.4433 16.5413 96.5348 16.8151 95.9457 17.2252L95.1738 14.7411C95.9919 14.2622 97.3528 13.8066 98.9612 13.8066C101.956 13.8066 103.316 15.4704 103.316 17.3615C103.316 19.0939 102.25 20.2335 101.39 21.1911C100.549 22.1256 100.21 23.0145 100.232 24.0398V24.45H97.2162ZM96.6252 27.5956C96.6252 26.3875 97.4654 25.5217 98.6454 25.5217C99.8698 25.5217 100.664 26.3875 100.686 27.5956C100.686 28.7806 99.8698 29.6696 98.6454 29.6696C97.4433 29.6696 96.6252 28.7806 96.6252 27.5956Z" fill="#FF5970"/>
<path d="M161.641 10.8423V8.69861H159.506C159.322 7.37342 158.804 6.15609 158.039 5.13635L159.548 3.61961L158.039 2.1038L156.53 3.62055C155.516 2.85092 154.304 2.33026 152.986 2.14567V0H150.853V2.14567C149.534 2.33033 148.323 2.85092 147.308 3.62055L145.799 2.1038L144.291 3.61961L145.8 5.13635C145.034 6.15609 144.516 7.37342 144.332 8.69861H142.197V10.8423H144.332C144.516 12.1675 145.034 13.3848 145.8 14.4045L144.291 15.9213L145.799 17.4371L147.308 15.9203C148.323 16.69 149.534 17.2106 150.853 17.3952V19.5409H152.986V17.3952C154.304 17.2106 155.516 16.69 156.53 15.9203L158.039 17.4371L159.548 15.9213L158.039 14.4045C158.804 13.3848 159.322 12.1675 159.506 10.8423H161.641Z" fill="#D2D2D2"/>
<path d="M151.919 14.6338C154.592 14.6338 156.758 12.4564 156.758 9.77038C156.758 7.0844 154.592 4.90698 151.919 4.90698C149.247 4.90698 147.08 7.0844 147.08 9.77038C147.08 12.4564 149.247 14.6338 151.919 14.6338Z" fill="#F4F4F4"/>
<path d="M168.686 30.9085V29.5046H167.288C167.168 28.6368 166.829 27.8396 166.327 27.1718L167.316 26.1785L166.328 25.1858L165.339 26.1791C164.675 25.6751 163.882 25.3342 163.018 25.2132V23.8081H161.621V25.2132C160.758 25.3342 159.965 25.6751 159.3 26.1791L158.312 25.1858L157.324 26.1785L158.312 27.1718C157.811 27.8396 157.472 28.6368 157.351 29.5046H155.953V30.9085H157.351C157.472 31.7763 157.811 32.5735 158.312 33.2414L157.324 34.2346L158.312 35.2273L159.3 34.234C159.965 34.7381 160.758 35.079 161.621 35.1999V36.605H163.018V35.1999C163.882 35.079 164.675 34.7381 165.339 34.234L166.328 35.2273L167.316 34.2346L166.327 33.2414C166.829 32.5735 167.168 31.7763 167.288 30.9085H168.686Z" fill="#D2D2D2"/>
<path d="M165.452 30.7154C165.732 28.9791 164.559 27.3431 162.831 27.0613C161.103 26.7795 159.476 27.9586 159.195 29.695C158.915 31.4313 160.088 33.0673 161.816 33.3491C163.543 33.6309 165.171 32.4518 165.452 30.7154Z" fill="#F4F4F4"/>
<path d="M124.282 12.5921C123.878 11.7321 123.81 10.729 124.078 9.82092C123.122 9.70749 122.017 9.0931 121.787 7.98144C121.768 7.88784 121.756 7.79484 121.75 7.70231C121.307 7.76315 120.847 7.78399 120.399 7.67277C119.765 7.51485 119.268 7.08806 119.102 6.55889C118.826 5.67771 119.458 4.825 120.038 4.26481C121.587 2.76723 123.609 1.75412 125.732 1.41235L125.783 1.7298C123.724 2.06138 121.762 3.044 120.26 4.4967C119.746 4.9937 119.18 5.73828 119.407 6.46221C119.566 6.96786 120.064 7.25783 120.476 7.36055C120.891 7.46393 121.33 7.43813 121.756 7.37689C121.835 6.53497 122.402 5.7693 122.919 5.23457C123.824 4.30012 124.93 3.53156 126.119 3.01191C126.501 2.84495 126.951 2.67557 127.429 2.695C127.96 2.71557 128.43 2.99456 128.625 3.40554C128.819 3.81223 128.75 4.33597 128.445 4.772C128.175 5.15712 127.781 5.41728 127.432 5.63094C125.805 6.62951 123.952 7.32845 122.073 7.65193C122.071 7.6522 122.07 7.65247 122.068 7.65273C122.072 7.74017 122.083 7.82807 122.101 7.91604C122.294 8.8513 123.291 9.42482 124.177 9.50823C124.18 9.50837 124.182 9.50863 124.185 9.5089C124.209 9.44753 124.235 9.38669 124.262 9.32646C124.729 8.30116 125.653 7.50828 126.733 7.20551C127.186 7.07921 127.687 7.12189 128.01 7.31479C128.216 7.43807 128.351 7.6203 128.402 7.84201C128.532 8.40903 128.059 8.93759 127.138 9.25571C126.302 9.54428 125.363 9.86433 124.406 9.84377C124.135 10.6946 124.191 11.6441 124.572 12.4548L124.282 12.5921ZM127.262 7.45502C127.116 7.45502 126.964 7.47478 126.82 7.51532C125.829 7.7929 124.982 8.51991 124.554 9.46012C124.544 9.4811 124.535 9.50213 124.526 9.52317C125.391 9.51895 126.258 9.21946 127.034 8.95146C127.315 8.85438 128.223 8.49238 128.09 7.9139C128.059 7.77809 127.977 7.66948 127.846 7.59109C127.696 7.50158 127.486 7.45502 127.262 7.45502ZM127.358 3.01519C126.968 3.01519 126.579 3.16166 126.247 3.30691C125.096 3.80995 124.024 4.55398 123.149 5.45888C122.689 5.93459 122.184 6.60392 122.084 7.3235C123.902 7.00196 125.692 6.32245 127.266 5.35644C127.587 5.1596 127.948 4.92161 128.183 4.58701C128.418 4.25108 128.478 3.84191 128.337 3.54429C128.192 3.23964 127.831 3.03235 127.416 3.0164C127.397 3.0156 127.377 3.01519 127.358 3.01519Z" fill="white"/>
<path d="M147.844 88.6998H116.468L116.025 69.9372L119.02 69.444L140.617 65.8796L143.268 74.2546L147.844 88.6998Z" fill="#FFD966"/>
<path opacity="0.2" d="M143.268 74.2546L119.02 69.444L140.617 65.8796L143.268 74.2546Z" fill="#2C2C2D"/>
<path d="M132.205 88.8571L130.369 80.4481L124.891 79.0209L124.971 78.7095L130.639 80.1864L132.518 88.788L132.205 88.8571Z" fill="#2C2C2D"/>
<path d="M115.605 47.1469L113.848 67.5335C113.738 68.8154 114.745 69.9165 116.026 69.9129L140.274 69.8445C141.455 69.8412 142.418 68.8943 142.447 67.7086L142.46 41.5387L130.848 41.1499L119.755 41.7172L115.605 47.1469Z" fill="#599BFF"/>
<path d="M140.746 62.3028C138.347 63.6253 135.591 64.6722 136.025 65.4145C136.46 66.1603 140.824 64.3254 140.824 64.3254C140.824 64.3254 135.548 67.3006 135.947 68.0595C136.61 69.3202 141.443 65.9591 141.443 65.9591C141.443 65.9591 137.666 68.9816 138.115 69.6154C138.93 70.7663 142.062 67.5928 142.062 67.5928C141.521 68.1373 140.176 69.8048 140.643 70.1626C141.317 70.6783 145.262 67.4112 145.262 67.4112L147.476 65.714L142.625 60.9702L140.746 62.3028Z" fill="#FF8F78"/>
<path d="M103.62 43.4528C103.047 42.5563 102.092 41.9792 101.035 41.8923C100.013 41.8082 98.7817 41.7592 98.0964 41.9213C96.7805 42.2325 92.4937 40.8115 92.2859 41.2638C91.6272 42.6981 95.4646 44.5663 97.6319 45.2663L99.1633 48.7427L104.72 45.1748L103.62 43.4528Z" fill="#FF8F78"/>
<path d="M155.081 48.5138L143.006 38.435C142.128 37.5852 140.993 37.0534 139.78 36.9231L128.13 35.6719L117.774 37.4066C115.698 37.7544 113.872 38.9854 112.764 40.7841L107.463 49.4671L104.721 45.1748L99.1641 48.7427C100.393 51.5315 101.621 54.3203 102.85 57.1091C103.242 58.0003 103.672 58.9004 104.278 59.6677C104.782 60.306 105.449 60.8609 106.256 61.041C107.695 61.3621 109.763 60.6209 110.615 59.4068L119.531 46.7131L136.82 44.7477L148.42 54.5297L142.626 60.9702L147.477 65.714C148.9 64.4836 156.242 59.0051 157.314 56.5359C158.518 53.7649 157.369 50.3525 155.081 48.5138Z" fill="#599BFF"/>
<path d="M140.535 69.7695C140.51 69.6439 140.491 68.9116 142.577 66.8149L142.796 67.0348C140.811 69.0301 140.839 69.7111 140.84 69.7176L140.535 69.7695Z" fill="#2C2C2D"/>
<path d="M138.268 69.642L137.963 69.5892C138.129 68.6205 138.958 67.9485 140.331 66.8349C140.652 66.5744 141.005 66.2884 141.387 65.968L141.586 66.2069C141.202 66.5286 140.848 66.8154 140.525 67.0771C139.209 68.1444 138.414 68.7888 138.268 69.642Z" fill="#2C2C2D"/>
<path d="M135.891 68.0393C136.072 67.5113 136.484 67.1421 136.869 66.795C137.264 66.4484 137.693 66.1519 138.119 65.8553C138.55 65.5644 138.99 65.2906 139.437 65.0294C139.884 64.7688 140.333 64.5125 140.792 64.2739L140.856 64.3772C140.439 64.686 140.009 64.9727 139.58 65.2602L138.289 66.1118C137.858 66.3917 137.44 66.6894 137.035 66.9983C136.83 67.1509 136.639 67.3184 136.457 67.493C136.28 67.6691 136.109 67.858 136.005 68.0799L135.891 68.0393Z" fill="#2C2C2D"/>
<g opacity="0.6">
<path d="M156.102 49.5365C156.059 49.484 156.016 49.4314 155.972 49.3801C154.844 50.7285 154.127 52.4293 154.002 54.1872C153.88 55.912 154.331 57.663 155.223 59.1408C155.273 59.0917 155.32 59.0433 155.369 58.9946C154.514 57.5611 154.083 55.8687 154.202 54.2014C154.322 52.4972 155.014 50.8482 156.102 49.5365Z" fill="white"/>
<path d="M110.457 59.6074C109.844 58.9322 109.136 58.3422 108.349 57.8697C106.628 56.8364 104.595 56.3937 102.611 56.5707C102.64 56.6354 102.668 56.7 102.697 56.7646C104.618 56.6071 106.581 57.0424 108.247 58.0425C109.021 58.5076 109.717 59.0893 110.321 59.7551C110.368 59.7065 110.415 59.658 110.457 59.6074Z" fill="white"/>
<path d="M139.857 40.4039C140.547 40.7606 141.312 40.9284 142.081 40.9284C143.1 40.9284 144.126 40.6333 144.992 40.0936L144.83 39.9582C143.375 40.8402 141.471 41.0126 139.949 40.2251C138.603 39.5292 137.694 38.1536 137.409 36.6686L137.203 36.6465C137.487 38.2135 138.44 39.6709 139.857 40.4039Z" fill="white"/>
<path d="M118.505 37.2841C118.327 38.5101 117.763 39.68 116.853 40.5134C115.611 41.6528 113.805 42.0899 112.153 41.7824L112.043 41.9634C112.421 42.0386 112.806 42.0789 113.192 42.0789C114.577 42.0789 115.966 41.5985 116.988 40.6618C117.947 39.7833 118.534 38.5442 118.708 37.25L118.505 37.2841Z" fill="white"/>
<path d="M115.626 51.4532L115.467 51.3307C117.198 49.0663 119.917 47.5245 122.74 47.2065C125.563 46.8894 128.554 47.7876 130.741 49.6115L130.613 49.7659C128.467 47.9768 125.531 47.0932 122.762 47.4065C119.992 47.7182 117.324 49.2312 115.626 51.4532Z" fill="white"/>
<path d="M131.433 52.5693C128.612 52.5693 125.76 51.5386 123.617 49.7087L123.747 49.5554C126.145 51.6033 129.446 52.6337 132.575 52.3099C135.705 51.9873 138.728 50.3054 140.663 47.811L140.82 47.9346C138.853 50.4714 135.778 52.1818 132.595 52.51C132.21 52.5497 131.821 52.5693 131.433 52.5693Z" fill="white"/>
</g>
<path d="M107.598 49.387L107.33 49.5635L108.955 52.0531L109.223 51.8766L107.598 49.387Z" fill="#2C2C2D"/>
<path d="M115.439 47.1269L114.963 54.1152L115.282 54.1372L115.758 47.1489L115.439 47.1269Z" fill="#2C2C2D"/>
<path d="M139.382 46.5001L139.176 46.7461L142.976 49.9619L143.182 49.7159L139.382 46.5001Z" fill="#2C2C2D"/>
<path d="M128.435 42.604C128.371 42.604 128.307 42.6029 128.243 42.6005C126.663 42.5452 125.262 41.8304 124.588 40.7353L124.86 40.566C125.479 41.5711 126.78 42.2275 128.254 42.2791C129.828 42.3352 131.201 41.7064 132.025 40.5566L132.284 40.7446C131.444 41.9175 130.016 42.604 128.435 42.604Z" fill="#2C2C2D"/>
<path d="M151.508 53.8871L148.396 54.3765L148.446 54.6942L151.557 54.2049L151.508 53.8871Z" fill="#2C2C2D"/>
<path d="M131.559 30.3057L131.556 36.6607C131.556 38.5148 130.061 40.0199 128.216 40.0199H128.139C126.294 40.0199 124.797 38.5148 124.797 36.6607V30.3057H131.559Z" fill="#FF8F78"/>
<path d="M130.075 32.7521C128.672 34.7607 126.69 35.9339 124.797 36.1799V32.7606L128.319 31.7019L130.075 32.7521Z" fill="#2C2C2D"/>
<path d="M131.947 24.6746L131.393 28.5756L130.468 32.8464C130.468 32.8464 125.294 34.983 123.816 33.3097C123.45 32.8981 123.232 32.1934 123.112 31.3703C123.021 30.7739 122.985 30.1109 122.98 29.4505C122.958 27.3385 123.262 25.2315 123.262 25.2315L131.947 24.6746Z" fill="#FF8F78"/>
<path d="M131.166 28.6975C131.233 26.8723 130.366 25.6726 128.746 24.9778C124.307 27.6004 121.468 27.1886 120.596 23.0464C120.596 23.0464 122.873 23.3326 125.293 21.58C127.714 19.8274 129.137 19.8274 130.952 22.1165C134.226 23.0107 134.76 25.8362 132.554 28.626L131.166 28.6975Z" fill="#2C2C2D"/>
<path d="M132.347 30.1925C133.172 29.5321 133.417 28.4635 132.896 27.8056C132.374 27.1477 131.283 27.1497 130.458 27.8101C129.633 28.4705 129.388 29.5392 129.909 30.1971C130.431 30.855 131.522 30.853 132.347 30.1925Z" fill="#FF8F78"/>
<path d="M126.358 28.2582C126.344 28.4901 126.487 28.6878 126.678 28.6999C126.87 28.712 127.036 28.5337 127.051 28.3019C127.065 28.07 126.922 27.8723 126.731 27.8602C126.54 27.8481 126.373 28.0264 126.358 28.2582Z" fill="#2C2C2D"/>
<path d="M123.881 28.5101C123.86 28.7415 123.998 28.943 124.189 28.96C124.38 28.9771 124.551 28.8034 124.572 28.572C124.592 28.3406 124.454 28.1391 124.264 28.122C124.073 28.1049 123.901 28.2787 123.881 28.5101Z" fill="#2C2C2D"/>
<path d="M125.398 30.3449C125.357 30.342 125.314 30.3418 125.27 30.3415C125.06 30.34 124.709 30.3373 124.694 29.9404C124.684 29.6992 124.831 29.4555 124.949 29.2595L125.009 29.1587L125.221 29.2817L125.159 29.387C125.058 29.5548 124.932 29.7635 124.939 29.9307C124.944 30.0669 124.997 30.093 125.272 30.0951C125.321 30.0954 125.369 30.0959 125.415 30.0991L125.398 30.3449Z" fill="#2C2C2D"/>
<path d="M126.066 27.3384C126.159 27.5857 126.328 27.4909 126.963 27.3506C127.424 27.2488 127.773 27.1408 127.736 26.9696C127.698 26.7984 127.294 26.7421 126.833 26.844C126.372 26.9459 125.936 26.9883 126.066 27.3384Z" fill="#2C2C2D"/>
<path d="M124.866 27.5381C124.806 27.7859 124.636 27.7222 124.021 27.6869C123.575 27.6613 123.234 27.6128 123.251 27.4453C123.267 27.2778 123.642 27.1628 124.088 27.1884C124.534 27.214 124.95 27.1873 124.866 27.5381Z" fill="#2C2C2D"/>
<path opacity="0.4" d="M127.576 29.7313C127.631 30.2611 128.103 30.6455 128.63 30.5898C129.158 30.5342 129.54 30.0596 129.485 29.5298C129.429 29.0001 128.957 28.6157 128.43 28.6714C127.903 28.727 127.52 29.2015 127.576 29.7313Z" fill="#FF5970"/>
<path opacity="0.4" d="M123.133 31.3701C123.126 31.3701 123.118 31.3726 123.111 31.3701C123.02 30.7738 122.983 30.1108 122.979 29.4504C123.489 29.4184 123.935 29.7954 123.989 30.3105C124.043 30.8403 123.66 31.3135 123.133 31.3701Z" fill="#FF5970"/>
<path d="M125.404 31.9253C125.317 31.6199 125.352 31.3615 125.508 31.1573C125.815 30.7559 126.501 30.6795 127.026 30.6901L127.022 30.9364C126.361 30.924 125.893 31.0575 125.702 31.3073C125.595 31.4481 125.574 31.6281 125.64 31.8575L125.404 31.9253Z" fill="#2C2C2D"/>
<path d="M131.151 29.5096C131.083 28.7168 131.425 28.2373 132.168 28.0845L132.217 28.326C131.591 28.4548 131.337 28.8132 131.395 29.4885L131.151 29.5096Z" fill="#2C2C2D"/>
<path d="M168.685 88.5398H3.35547V88.8612H168.685V88.5398Z" fill="#2C2C2D"/>
</svg>
