<svg width="354" height="303" viewBox="0 0 354 303" fill="none" xmlns="http://www.w3.org/2000/svg">
<path d="M348.731 74.3423C351.707 74.8107 353.74 77.6029 353.271 80.5785L330.77 223.541C330.302 226.517 327.51 228.549 324.534 228.081L220.417 211.694C217.441 211.226 215.408 208.434 215.877 205.458L234.671 86.0456L269.252 61.833L348.731 74.3423Z" fill="#F5F5F5"/>
<path d="M261.174 90.2171L234.671 86.0458L269.252 61.8333L265.252 87.2486C264.945 89.1943 263.12 90.5233 261.174 90.2171Z" fill="#8A38F5"/>
<path d="M269.252 61.833L265.252 87.2483C264.945 89.194 263.12 90.5233 261.174 90.2168L234.671 86.0456" stroke="#454545" stroke-width="0.9882" stroke-miterlimit="10" stroke-linecap="round" stroke-linejoin="round"/>
<path d="M280.632 146.364C281.053 142.701 281.671 139.783 282.486 137.612C283.302 135.442 284.623 133.518 286.452 131.841C287.512 130.83 288.677 129.989 289.951 129.317C291.222 128.646 292.406 127.917 293.504 127.131C294.6 126.345 295.554 125.432 296.366 124.393C297.177 123.354 297.687 121.935 297.894 120.133C298.243 117.092 297.649 114.868 296.112 113.465C294.575 112.062 292.657 111.228 290.36 110.964C287.068 110.586 284.697 111.243 283.246 112.931C281.793 114.62 280.734 116.999 280.067 120.067L268.054 118.687C268.403 115.646 269.217 112.94 270.496 110.57C271.773 108.201 273.429 106.252 275.461 104.723C277.491 103.196 279.848 102.114 282.533 101.479C285.215 100.843 288.11 100.704 291.215 101.06C297.92 101.831 303.055 103.805 306.622 106.982C310.188 110.16 311.619 114.822 310.913 120.968C310.685 122.956 310.283 124.67 309.709 126.114C309.133 127.558 308.372 128.838 307.427 129.957C306.48 131.074 305.357 132.094 304.057 133.013C302.755 133.934 301.296 134.867 299.678 135.813C298.19 136.712 296.976 137.564 296.034 138.367C295.093 139.171 294.346 140.045 293.799 140.988C293.25 141.931 292.851 142.94 292.602 144.011C292.353 145.084 292.15 146.304 291.994 147.669L280.632 146.364ZM278.195 164.295L279.597 152.095L292.169 153.539L290.767 165.739L278.195 164.295Z" fill="#8A38F5"/>
<path d="M230.081 165.933C216.298 179.479 200.269 197.76 185.373 221.378C175.01 237.809 167.328 253.443 161.595 267.201C174.805 273.145 188.015 279.09 201.225 285.034L235.187 169.46L230.081 165.933Z" fill="#FEC02D"/>
<path d="M255.115 156.586L229.708 164.527C222.746 175.568 218.725 185.348 216.365 192.15C205.372 223.827 208.898 252.816 209.895 261.008C209.895 261.008 209.912 261.148 213.115 285.034H329.282C329.667 276.377 329.593 264.403 327.548 250.357C325.124 233.702 322.874 218.241 312.798 201.26C308.701 194.355 294.446 172.259 267.112 160.693C262.237 158.63 258.022 157.357 255.115 156.586Z" fill="#FEC02D"/>
<path d="M314.878 204.952C300.736 209.489 282.727 213.941 261.563 216.11C241.848 218.131 224.469 217.649 210.384 216.327C209.98 219.65 209.576 222.972 209.172 226.295C224.215 227.522 242.104 227.892 262.12 226.142C284.543 224.181 303.968 220.055 319.748 215.623C318.124 212.066 316.501 208.509 314.878 204.952Z" fill="#FF7129"/>
<path opacity="0.5" d="M205.865 196.068L200.111 197.351L221.064 285.034H232.927L205.865 196.068Z" fill="#E8A600"/>
<path d="M252.869 268.238L247.941 266.705L236.646 272.544L233.797 265.637L248.132 260.124L253.984 262.866L252.869 268.238Z" fill="#E8A600"/>
<path opacity="0.5" d="M329.464 271.907C317.948 274.787 304.181 277.363 288.539 278.612C274.825 279.707 262.419 279.563 251.702 278.842C251.702 274.44 251.702 270.038 251.702 265.637C277.268 262.78 302.833 259.924 328.399 257.068L329.464 271.907Z" fill="#E8A600"/>
<path d="M244.855 174.843C252.038 173.611 256.864 166.789 255.632 159.606L250.833 131.615L224.819 136.074L229.618 164.066C230.85 171.249 237.671 176.074 244.855 174.843Z" fill="#F7A99C"/>
<path d="M228.275 156.231L243.681 144.563C243.767 146.06 244.008 153.095 238.801 158.896C235.476 162.601 231.545 164.003 229.708 164.527L228.275 156.231Z" fill="#FF7769"/>
<path d="M249.945 122.838C249.953 122.402 250.955 121.568 251.259 121.289C251.772 120.818 252.346 120.413 252.962 120.089C254.159 119.458 255.536 119.119 256.891 119.189C259.588 119.329 262.267 121.104 263.166 123.695C263.689 125.2 263.612 126.866 263.197 128.404C262.574 130.718 261.196 132.811 259.357 134.348C257.834 135.621 256.003 136.511 254.073 136.969C253.687 137.061 249.676 137.669 249.679 137.511C249.767 132.62 249.856 127.729 249.945 122.838Z" fill="#F7A99C"/>
<path d="M253.557 122.484C253.615 124.625 253.711 135.955 245.152 145.472C243.576 147.226 233.094 158.881 221.161 156.183C205.828 152.715 203.271 128.975 203.149 127.687C202.736 123.331 201.52 110.502 210.816 101.912C218.402 94.903 228.025 95.3042 229.393 95.3829C230.834 95.4658 240.048 96.1444 246.963 103.848C253.239 110.839 253.461 118.98 253.557 122.484Z" fill="#F7A99C"/>
<path d="M211.261 126.281C211.352 128.154 210.173 129.733 208.627 129.808C207.081 129.883 205.754 128.426 205.663 126.554C205.572 124.682 206.751 123.103 208.297 123.028C209.843 122.953 211.17 124.409 211.261 126.281Z" fill="#454545"/>
<path d="M216.725 128.149L214.793 132.011C214.438 132.721 214.769 133.583 215.508 133.872L218.08 134.88" stroke="#454545" stroke-width="6.1486" stroke-miterlimit="10" stroke-linecap="round" stroke-linejoin="round"/>
<path d="M235.182 133.118C235.284 135.219 233.664 137.005 231.563 137.108C229.462 137.21 227.676 135.59 227.574 133.489C227.471 131.388 229.092 129.602 231.193 129.499C233.294 129.397 235.08 131.017 235.182 133.118Z" fill="#FF7769"/>
<path d="M253.337 131.933C253.253 131.523 252.729 128.738 254.615 126.331C256.093 124.446 258.116 123.985 258.671 123.877" stroke="#454545" stroke-width="6.1486" stroke-miterlimit="10" stroke-linecap="round" stroke-linejoin="round"/>
<path d="M254.495 126.92C254.616 126.879 256.081 126.408 257.328 127.358C258.354 128.14 258.478 129.309 258.495 129.503" stroke="#454545" stroke-width="6.1486" stroke-miterlimit="10" stroke-linecap="round" stroke-linejoin="round"/>
<path d="M205.934 132.132C205.208 132.168 204.546 132.415 203.985 132.797C204.411 134.798 205.033 137.206 205.93 139.721C206.055 139.727 206.177 139.746 206.305 139.74C208.406 139.638 210.026 137.852 209.924 135.751C209.821 133.65 208.035 132.03 205.934 132.132Z" fill="#FF7769"/>
<path d="M226.201 122.257L223.03 125.855L227.57 127.453" stroke="#454545" stroke-width="6.1486" stroke-miterlimit="10" stroke-linecap="round" stroke-linejoin="round"/>
<path d="M227.57 142.549L216.156 143.85C216.187 143.617 216.687 140.246 219.396 139.02C222.052 137.818 225.794 139.148 227.57 142.549Z" fill="white"/>
<path d="M253.435 119.859C252.807 120.104 251.324 120.777 250.145 122.363C249.058 123.824 248.798 125.296 248.72 125.969C236.882 124.846 230.048 121.519 225.933 118.523C225.933 118.523 225.632 118.305 216.954 111.712C215.555 113.22 213.366 115.241 210.267 116.975C207.456 118.548 204.855 119.35 202.95 119.781C196.729 118.334 192.391 113.686 192.247 108.833C192.095 103.721 196.639 99.8521 199.864 98.2438C205.125 95.6197 207.547 98.6812 215.261 96.6603C221.48 95.0313 221.248 92.6907 227.079 91.2775C228.841 90.8504 236.162 89.0759 243.519 92.9493C249.724 96.2163 254.64 102.809 255.13 110.412C255.398 114.572 254.269 117.928 253.435 119.859Z" fill="#454545"/>
<path d="M255.115 156.586C265.554 158.967 285.083 164.978 303.275 181.251C303.275 181.251 321.609 197.652 334.112 228.065C335.22 230.76 336.459 233.604 337.827 239.583C338.888 244.218 339.366 248.491 339.522 252.224C339.639 255.014 337.92 257.552 335.295 258.505C332.99 259.342 330.335 260.275 327.393 261.256C321.943 263.073 309.855 268.025 296.162 269.925C267.607 273.888 251.755 274.879 251.755 274.879L249.679 225.588L287.422 220.81L255.115 156.586Z" fill="#FEC02D"/>
<path d="M224.613 181.932C219.872 198.513 216.934 212.394 215.076 222.517" stroke="#454545" stroke-width="3.6063" stroke-miterlimit="10" stroke-linecap="round" stroke-linejoin="round"/>
<path opacity="0.5" d="M273.984 178.96L295.162 226.668H282.344L273.984 178.96Z" fill="#E8A600"/>
<path d="M227.834 285.042L239.272 281.801L214.307 193.688L202.868 196.929L227.834 285.042Z" fill="#8A38F5"/>
<path d="M250.504 237.194C250.504 237.194 229.042 235.057 226.755 235.763C224.467 236.468 216.636 240.901 215.529 242.166C214.422 243.431 214.027 244.617 214.185 245.803C214.343 246.988 215.924 248.333 215.924 248.333C214.685 250.262 214.643 251.584 214.906 252.478C215.378 254.075 217.251 255.743 217.268 255.763C217.13 256.257 216.974 256.967 216.932 257.829C216.892 258.648 216.811 260.298 217.625 261.803C218.833 264.038 221.322 264.676 221.866 264.803C221.866 264.803 220.905 266.594 222.169 268.096C223.434 269.598 227.229 271.495 231.735 270.863C236.241 270.231 247.941 264.46 247.941 264.46L251.702 265.637L250.504 237.194Z" fill="#F7A99C"/>
<path opacity="0.5" d="M191.88 196.068C220.719 196.068 244.098 172.689 244.098 143.85C244.098 115.011 220.719 91.6321 191.88 91.6321C163.041 91.6321 139.662 115.011 139.662 143.85C139.662 172.689 163.041 196.068 191.88 196.068Z" fill="#CDEBF5"/>
<path d="M191.88 84.8459C224.467 84.8459 250.884 111.263 250.884 143.85C250.884 176.437 224.467 202.854 191.88 202.854C159.293 202.854 132.876 176.437 132.876 143.85C132.876 111.263 159.293 84.8459 191.88 84.8459ZM191.88 193.219C219.146 193.219 241.249 171.116 241.249 143.85C241.249 116.584 219.146 94.4804 191.88 94.4804C164.614 94.4804 142.51 116.584 142.51 143.85C142.51 171.116 164.614 193.219 191.88 193.219Z" fill="#8A38F5"/>
<path d="M215.924 248.332C215.924 248.332 223.827 246.859 227.821 245.001C231.815 243.143 233.301 242.122 233.301 242.122" stroke="#454545" stroke-width="5.4095" stroke-miterlimit="10" stroke-linecap="round" stroke-linejoin="round"/>
<path d="M217.268 255.764C217.268 255.764 226.428 254.847 230.143 252.711C233.859 250.574 235.187 249.181 235.187 249.181" stroke="#454545" stroke-width="5.4095" stroke-miterlimit="10" stroke-linecap="round" stroke-linejoin="round"/>
<path d="M220.288 264.244C224.211 264.09 227.158 263.214 229.214 262.37C232.641 260.965 236.924 258.283 236.924 258.283" stroke="#454545" stroke-width="5.4095" stroke-miterlimit="10" stroke-linecap="round" stroke-linejoin="round"/>
<path d="M250.503 237.194L251.701 265.637L247.94 264.459L249.146 237.062L250.503 237.194Z" fill="#FF7769"/>
<path d="M275.471 181.932C275.471 181.932 295.158 225.217 294.603 226.331C294.048 227.446 249.679 225.588 249.679 225.588L251.755 274.879C251.755 274.879 286.397 272.689 300.102 269.288C313.807 265.887 329.464 260.557 329.464 260.557" stroke="#454545" stroke-width="3.6063" stroke-miterlimit="10" stroke-linecap="round" stroke-linejoin="round"/>
<path d="M189.187 108.894C189.492 109.574 189.54 110.37 189.257 111.124C188.688 112.64 186.998 113.408 185.481 112.839C182.726 111.806 179.742 111.37 176.851 111.579C173.621 111.813 171.147 112.784 169.961 113.342C168.553 114.004 165.623 115.381 163.439 118.387C160.398 122.573 160.652 127.471 160.903 129.383C161.113 130.989 159.982 132.461 158.376 132.671C156.77 132.882 155.296 131.748 155.088 130.144C154.663 126.904 154.568 120.621 158.694 114.94C161.764 110.714 165.759 108.836 167.465 108.034C169.365 107.141 172.462 106.017 176.427 105.73C180.156 105.459 183.999 106.019 187.541 107.348C188.304 107.635 188.878 108.205 189.187 108.894Z" fill="white"/>
<path d="M291.881 177.536C299.041 183.902 308.237 193.409 316.631 206.581C325.25 220.107 330.023 232.789 332.75 242.122" stroke="white" stroke-width="3.6063" stroke-miterlimit="10" stroke-linecap="round" stroke-linejoin="round"/>
<path d="M153.173 285.034H240.856C244.276 285.034 247.048 282.262 247.048 278.842V274.879H153.173V285.034Z" fill="#BCBCBC"/>
<path d="M87.7613 285.034H183.423C187.179 285.034 189.852 281.823 189.393 277.862L182.164 215.484C181.704 211.523 178.287 208.312 174.53 208.312H78.8689C75.1121 208.312 72.439 211.523 72.898 215.484L80.1278 277.862C80.5872 281.823 84.0048 285.034 87.7613 285.034Z" fill="#BCBCBC"/>
<path d="M78.525 285.034H174.186C177.943 285.034 180.616 281.823 180.157 277.862L172.927 215.484C172.468 211.523 169.051 208.312 165.294 208.312H69.6325C65.8758 208.312 63.2027 211.523 63.6616 215.484L70.8915 277.862C71.3507 281.823 74.7682 285.034 78.525 285.034Z" fill="#7C7C7C"/>
<path d="M63.6621 219.071L70.892 278.232C70.892 278.232 70.5685 285.034 81.7144 285.034C92.8605 285.034 144.319 285.034 144.319 285.034C137.58 284.991 113.981 284.02 92.3032 266.272C70.6689 248.559 65.0432 225.676 63.6621 219.071Z" fill="#A8A8A8"/>
<path d="M65.6543 226.668C67.8206 233.681 73.0841 247.411 85.6983 260.235C98.1422 272.885 111.568 278.379 118.519 280.693" stroke="#454545" stroke-miterlimit="10" stroke-linecap="round" stroke-linejoin="round"/>
<path d="M121.89 252.917H125.233L123.103 239.356H119.759L121.89 252.917Z" fill="#FEC02D"/>
<path d="M117.5 252.917H120.844L119.375 243.567H116.031L117.5 252.917Z" fill="#FEC02D"/>
<path d="M215.343 93.1785C220.168 95.9012 232.354 103.618 240.35 119.184C248.323 134.705 247.523 149.064 246.932 154.576" stroke="#E5E5E5" stroke-width="3.6063" stroke-miterlimit="10" stroke-linecap="round" stroke-linejoin="round"/>
<path d="M209.443 257.541L211.324 244.276" stroke="#454545" stroke-width="3.6063" stroke-miterlimit="10" stroke-linecap="round" stroke-linejoin="round"/>
<path d="M23.9894 244.299H149.324C152.196 244.299 154.524 241.971 154.524 239.099V147.34C154.524 144.468 152.196 142.139 149.324 142.139H23.9894C21.1173 142.139 18.7891 144.468 18.7891 147.34V239.099C18.7891 241.971 21.1173 244.299 23.9894 244.299Z" fill="#F4F4F4"/>
<path opacity="0.5" d="M18.7891 153.959V147.34C18.7891 144.468 21.1175 142.139 23.9897 142.139H149.324C152.196 142.139 154.524 144.468 154.524 147.34V153.959H18.7891Z" fill="#D6D6D6"/>
<path d="M147.465 148.668C147.465 149.558 148.186 150.278 149.075 150.278C149.964 150.278 150.685 149.558 150.685 148.668C150.685 147.779 149.964 147.058 149.075 147.058C148.186 147.058 147.465 147.779 147.465 148.668Z" fill="#F5F5F5"/>
<path d="M142.376 148.668C142.376 149.558 143.097 150.278 143.986 150.278C144.875 150.278 145.596 149.558 145.596 148.668C145.596 147.779 144.875 147.058 143.986 147.058C143.097 147.058 142.376 147.779 142.376 148.668Z" fill="#F5F5F5"/>
<path d="M137.174 148.668C137.174 149.558 137.895 150.278 138.784 150.278C139.673 150.278 140.394 149.558 140.394 148.668C140.394 147.779 139.673 147.058 138.784 147.058C137.895 147.058 137.174 147.779 137.174 148.668Z" fill="#F5F5F5"/>
<path d="M95.2668 178.232V171.609C95.2668 169.436 93.5056 167.675 91.3328 167.675H52.8823C50.7095 167.675 48.9482 169.436 48.9482 171.609V178.232V222.361C48.9482 224.533 50.7097 226.295 52.8823 226.295H114.368C116.541 226.295 118.302 224.533 118.302 222.361V182.166C118.302 179.994 116.541 178.232 114.368 178.232H95.2668Z" fill="#EDD364"/>
<path d="M75.8788 187.485L83.6251 195.231L91.3717 187.485L96.0461 192.159L88.2996 199.906L96.0461 207.652L91.3717 212.327L83.6251 204.58L75.8788 212.327L71.2041 207.652L78.9506 199.906L71.2041 192.159L75.8788 187.485Z" fill="#CE6161"/>
<path d="M149.324 142.139H23.9894C21.1173 142.139 18.7891 144.468 18.7891 147.34V239.099" stroke="#454545" stroke-width="0.9882" stroke-miterlimit="10" stroke-linecap="round" stroke-linejoin="round"/>
<path d="M8.63637 302.307H344.702C349.471 302.307 353.338 298.441 353.338 293.671C353.338 288.901 349.471 285.034 344.702 285.034H8.63637C3.86664 285.034 0 288.901 0 293.671C0 298.441 3.86664 302.307 8.63637 302.307Z" fill="#9B7C53"/>
<path d="M24.6157 165.772C24.0199 161.029 23.9022 157.164 24.2623 154.179C24.6225 151.194 25.6956 148.364 27.4838 145.69C28.5084 144.091 29.7179 142.674 31.115 141.437C32.5103 140.201 33.7782 138.918 34.9194 137.59C36.0577 136.264 36.979 134.82 37.6828 133.262C38.3851 131.703 38.5911 129.76 38.2981 127.427C37.8035 123.489 36.3722 120.87 34.0044 119.575C31.6366 118.28 28.9645 117.819 25.991 118.193C21.7283 118.728 18.9436 120.284 17.6343 122.856C16.3231 125.43 15.7197 128.752 15.823 132.822L0.266787 134.776C-0.227888 130.837 -0.0349141 127.178 0.847953 123.8C1.72947 120.424 3.21574 117.46 5.30519 114.91C7.3933 112.363 10.0304 110.275 13.2166 108.65C16.3997 107.025 20.003 105.96 24.0238 105.455C32.7064 104.364 39.7817 105.273 45.2517 108.179C50.7196 111.087 53.955 116.518 54.9547 124.478C55.2779 127.052 55.2981 129.335 55.0191 131.33C54.7376 133.325 54.1729 135.172 53.3262 136.871C52.477 138.57 51.3747 140.199 50.02 141.757C48.6632 143.317 47.112 144.94 45.3647 146.629C43.767 148.219 42.4993 149.665 41.56 150.966C40.621 152.268 39.9497 153.599 39.5501 154.954C39.1484 156.312 38.9559 157.705 38.9721 159.13C38.9869 160.559 39.1075 162.157 39.3293 163.924L24.6157 165.772ZM27.0567 189.108L25.0726 173.31L41.3524 171.265L43.3365 187.063L27.0567 189.108Z" fill="#5900CE"/>
<path d="M127.557 88.38C143.827 72.1096 143.827 45.7302 127.557 29.4598C111.287 13.1895 84.9072 13.1895 68.6368 29.4598C52.3665 45.7302 52.3665 72.1096 68.6368 88.38C84.9072 104.65 111.287 104.65 127.557 88.38Z" fill="#8A38F5"/>
<path opacity="0.5" d="M122.004 82.827C135.208 69.6235 135.208 48.2164 122.004 35.0129C108.801 21.8094 87.3937 21.8094 74.1902 35.0129C60.9868 48.2164 60.9867 69.6235 74.1902 82.827C87.3937 96.0304 108.801 96.0305 122.004 82.827Z" fill="#D6D6D6"/>
<path d="M96.9837 62.6353H99.2129V35.1249H96.9837V62.6353Z" fill="#D6D6D6"/>
<path d="M82.6598 69.5022L83.7744 71.4326L99.2102 62.5205L98.0956 60.59L82.6598 69.5022Z" fill="#D6D6D6"/>
</svg>
