<svg width="320" height="144" viewBox="0 0 320 144" fill="none" xmlns="http://www.w3.org/2000/svg">
<path d="M171.17 126.713H143.695C142.65 126.713 141.831 125.816 141.924 124.776L144.777 92.9225C144.859 92.0057 145.627 91.3037 146.547 91.3037H168.126C169.042 91.3037 169.808 92.0001 169.895 92.9122L172.939 124.766C173.039 125.809 172.219 126.713 171.17 126.713Z" fill="#D1D3D4"/>
<path d="M168.128 91.3037H146.55C145.63 91.3037 144.862 92.0062 144.78 92.9225L143.115 111.513C147.953 110.203 158.225 108.328 171.616 110.894L169.898 92.9122C169.811 92.0001 169.045 91.3037 168.128 91.3037Z" fill="#D1D3D4"/>
<path d="M222.998 106.406H91.8626C89.5151 106.406 87.5947 104.486 87.5947 102.138V24.6185C87.5947 22.2709 89.5155 20.3506 91.8626 20.3506H222.998C225.346 20.3506 227.266 22.2714 227.266 24.6185V102.138C227.267 104.486 225.346 106.406 222.998 106.406Z" fill="white"/>
<path d="M222.998 20.3506H91.8626C89.5151 20.3506 87.5947 22.2714 87.5947 24.6185V89.5106H227.266V24.6185C227.267 22.2714 225.346 20.3506 222.998 20.3506Z" fill="#383838"/>
<path d="M221.798 25.0195H93.0635V84.7987H221.798V25.0195Z" fill="#E1D6EF"/>
<path d="M96.8011 28.9904C96.8011 29.518 96.3734 29.9456 95.8459 29.9456C95.3183 29.9456 94.8906 29.518 94.8906 28.9904C94.8906 28.4628 95.3183 28.0352 95.8459 28.0352C96.3734 28.0352 96.8011 28.4624 96.8011 28.9904Z" fill="#E54C64"/>
<path d="M100.33 28.9904C100.33 29.518 99.9027 29.9456 99.3752 29.9456C98.8476 29.9456 98.4199 29.518 98.4199 28.9904C98.4199 28.4628 98.8476 28.0352 99.3752 28.0352C99.9027 28.0347 100.33 28.4624 100.33 28.9904Z" fill="#FBB040"/>
<path d="M103.862 28.9904C103.862 29.518 103.434 29.9456 102.907 29.9456C102.379 29.9456 101.952 29.518 101.952 28.9904C101.952 28.4628 102.379 28.0352 102.907 28.0352C103.434 28.0347 103.862 28.4624 103.862 28.9904Z" fill="#8DC63F"/>
<path d="M218.527 29.9456H116.741C116.024 29.9456 115.437 29.3585 115.437 28.641C115.437 27.9235 116.024 27.3359 116.741 27.3359H218.527C219.245 27.3359 219.832 27.9231 219.832 28.641C219.832 29.3585 219.245 29.9456 218.527 29.9456Z" fill="white"/>
<path d="M117.967 32.0049L117.158 29.3474H117.587L118.161 31.382H118.189L118.756 29.3474H119.192L119.753 31.3751H119.781L120.355 29.3474H120.784L119.974 32.0049H119.573L118.992 29.9633H118.95L118.369 32.0049H117.967ZM117.967 38.0049L117.158 35.3474H117.587L118.161 37.382H118.189L118.756 35.3474H119.192L119.753 37.3751H119.781L120.355 35.3474H120.784L119.974 38.0049H119.573L118.992 35.9633H118.95L118.369 38.0049H117.967ZM117.967 44.0049L117.158 41.3474H117.587L118.161 43.382H118.189L118.756 41.3474H119.192L119.753 43.3751H119.781L120.355 41.3474H120.784L119.974 44.0049H119.573L118.992 41.9633H118.95L118.369 44.0049H117.967ZM121.26 44.0326C121.175 44.0326 121.101 44.002 121.04 43.9409C120.979 43.8797 120.948 43.8065 120.948 43.7211C120.948 43.6358 120.979 43.5626 121.04 43.5014C121.101 43.4403 121.175 43.4097 121.26 43.4097C121.345 43.4097 121.418 43.4403 121.48 43.5014C121.541 43.5626 121.571 43.6358 121.571 43.7211C121.571 43.7777 121.557 43.8296 121.528 43.8769C121.5 43.9241 121.463 43.9622 121.416 43.991C121.369 44.0187 121.318 44.0326 121.26 44.0326Z" fill="#1F74C2"/>
<path d="M181.761 125.396H133.106C132.996 125.396 132.905 125.487 132.905 125.597V126.512C132.905 126.622 132.995 126.713 133.106 126.713H181.76C181.871 126.713 181.961 126.623 181.961 126.512V125.597C181.961 125.487 181.871 125.396 181.761 125.396Z" fill="white"/>
<path opacity="0.4" d="M150.492 113.54H119.971C119.438 113.54 119.002 113.104 119.002 112.572V97.1915C119.002 96.6588 119.438 96.2227 119.971 96.2227H150.492C151.025 96.2227 151.461 96.6588 151.461 97.1915V112.572C151.461 113.104 151.025 113.54 150.492 113.54Z" fill="#F6F3FA"/>
<path d="M150.492 113.54H119.971C119.438 113.54 119.002 113.104 119.002 112.572V97.1915C119.002 96.6588 119.438 96.2227 119.971 96.2227H150.492C151.025 96.2227 151.461 96.6588 151.461 97.1915V112.572C151.461 113.104 151.025 113.54 150.492 113.54Z" stroke="#8A38F5" stroke-miterlimit="10"/>
<g opacity="0.8">
<path opacity="0.6" d="M140.069 105.974C138.608 106.944 136.638 106.546 135.668 105.086C134.698 103.625 135.095 101.654 136.556 100.684C138.017 99.7137 139.987 100.111 140.958 101.572C141.927 103.033 141.529 105.004 140.069 105.974Z" fill="white"/>
<path opacity="0.6" d="M140.069 105.974C140.229 105.867 140.376 105.748 140.51 105.619L137.929 100.178C137.452 100.235 136.982 100.401 136.555 100.685C136.523 100.706 136.492 100.729 136.46 100.751L139.249 106.363C139.533 106.275 139.809 106.147 140.069 105.974Z" fill="white"/>
<path opacity="0.6" d="M138.76 106.473L135.974 101.18C135.875 101.288 135.784 101.402 135.702 101.521L138.259 106.503C138.426 106.506 138.593 106.497 138.76 106.473Z" fill="white"/>
<path d="M135.436 105.238C134.383 103.653 134.816 101.508 136.401 100.455C137.986 99.4024 140.131 99.8353 141.184 101.42C142.237 103.005 141.804 105.151 140.219 106.204C138.634 107.256 136.488 106.824 135.436 105.238ZM140.725 101.725C139.841 100.393 138.038 100.029 136.706 100.914C135.374 101.799 135.011 103.602 135.895 104.934C136.78 106.265 138.583 106.629 139.915 105.744C141.246 104.86 141.61 103.057 140.725 101.725Z" fill="#BF93FD"/>
<path d="M135.82 105.315L129.476 109.792C129.253 109.95 128.944 109.897 128.786 109.673C128.628 109.45 128.682 109.141 128.905 108.983C128.912 108.978 128.921 108.972 128.929 108.968L135.515 104.856C135.644 104.776 135.814 104.815 135.895 104.944C135.973 105.069 135.938 105.232 135.82 105.315Z" fill="#BF93FD"/>
</g>
<path d="M162.778 32.6226L163.404 41.6551" stroke="#B5B5B5" stroke-width="2" stroke-miterlimit="10" stroke-linejoin="round"/>
<path d="M164.38 31.0871C164.322 30.1763 163.517 29.4861 162.582 29.5456C161.647 29.6051 160.936 30.3917 160.994 31.3026C161.052 32.2134 161.857 32.9036 162.792 32.8441C163.727 32.7846 164.438 31.998 164.38 31.0871Z" stroke="#B5B5B5" stroke-width="2" stroke-miterlimit="10" stroke-linejoin="round"/>
<path d="M141.742 56.5545L150.782 56.0454" stroke="#B5B5B5" stroke-width="2" stroke-miterlimit="10" stroke-linejoin="round"/>
<path d="M140.42 58.3363C139.509 58.3932 138.723 57.6808 138.665 56.7456C138.607 55.8105 139.298 55.0068 140.209 54.9499C141.12 54.8936 141.906 55.606 141.964 56.5412C142.022 57.4764 141.331 58.28 140.42 58.3363Z" stroke="#B5B5B5" stroke-width="2" stroke-miterlimit="10" stroke-linejoin="round"/>
<path d="M157.797 42.2467L157.622 38.9357L154.083 35.5174L153.781 30.7744" stroke="#B5B5B5" stroke-width="2" stroke-miterlimit="10" stroke-linecap="round" stroke-linejoin="round"/>
<path d="M151.945 29.2352C151.887 28.3243 152.598 27.5376 153.533 27.4782C154.468 27.4187 155.273 28.1089 155.331 29.0197C155.389 29.9306 154.678 30.7172 153.743 30.7767C152.808 30.8362 152.003 30.146 151.945 29.2352Z" stroke="#B5B5B5" stroke-width="2" stroke-miterlimit="10" stroke-linejoin="round"/>
<path d="M150.664 50.4091L147.357 50.6503L143.522 47.5664L138.779 47.8608" stroke="#B5B5B5" stroke-width="2" stroke-miterlimit="10" stroke-linecap="round" stroke-linejoin="round"/>
<path d="M137.022 46.2317C136.111 46.2882 135.42 47.0921 135.478 48.0272C135.536 48.9622 136.322 49.6746 137.233 49.6183C138.143 49.5614 138.835 48.7576 138.777 47.8225C138.719 46.8873 137.933 46.1751 137.022 46.2317Z" stroke="#B5B5B5" stroke-width="2" stroke-miterlimit="10" stroke-linejoin="round"/>
<path d="M168.55 44.2056L168.304 40.8992L171.382 37.0599L171.08 32.3169" stroke="#B5B5B5" stroke-width="2" stroke-miterlimit="10" stroke-linecap="round" stroke-linejoin="round"/>
<path d="M172.707 30.5579C172.649 29.647 171.844 28.9568 170.909 29.0163C169.974 29.0758 169.263 29.8624 169.321 30.7733C169.379 31.6842 170.184 32.3743 171.119 32.3149C172.054 32.2554 172.765 31.4687 172.707 30.5579Z" stroke="#B5B5B5" stroke-width="2" stroke-miterlimit="10" stroke-linejoin="round"/>
<path d="M153.956 60.8315L150.645 61.0016L147.221 64.5356L142.478 64.8302" stroke="#B5B5B5" stroke-width="2" stroke-miterlimit="10" stroke-linecap="round" stroke-linejoin="round"/>
<path d="M140.936 66.6644C140.025 66.7214 139.24 66.009 139.182 65.0738C139.124 64.1386 139.815 63.3349 140.726 63.278C141.637 63.2217 142.422 63.9341 142.48 64.8687C142.539 65.8039 141.847 66.6081 140.936 66.6644Z" stroke="#B5B5B5" stroke-width="2" stroke-miterlimit="10" stroke-linejoin="round"/>
<path d="M141.742 56.5545L150.782 56.0454" stroke="#B5B5B5" stroke-width="2" stroke-miterlimit="10" stroke-linejoin="round"/>
<path d="M140.42 58.3363C139.509 58.3932 138.723 57.6808 138.665 56.7456C138.607 55.8105 139.298 55.0068 140.209 54.9499C141.12 54.8936 141.906 55.606 141.964 56.5412C142.022 57.4764 141.331 58.28 140.42 58.3363Z" stroke="#B5B5B5" stroke-width="2" stroke-miterlimit="10" stroke-linejoin="round"/>
<path d="M183.848 53.3159L174.816 53.956" stroke="#B5B5B5" stroke-width="2" stroke-miterlimit="10" stroke-linejoin="round"/>
<path d="M185.385 54.9161C186.295 54.8569 186.985 54.0509 186.923 53.1157C186.862 52.1811 186.075 51.471 185.164 51.5303C184.254 51.5902 183.564 52.3962 183.625 53.3308C183.686 54.266 184.474 54.9754 185.385 54.9161Z" stroke="#B5B5B5" stroke-width="2" stroke-miterlimit="10" stroke-linejoin="round"/>
<path d="M150.664 50.4091L147.357 50.6503L143.522 47.5664L138.779 47.8608" stroke="#B5B5B5" stroke-width="2" stroke-miterlimit="10" stroke-linecap="round" stroke-linejoin="round"/>
<path d="M137.022 46.2317C136.111 46.2882 135.42 47.0921 135.478 48.0272C135.536 48.9622 136.322 49.6746 137.233 49.6183C138.143 49.5614 138.835 48.7576 138.777 47.8225C138.719 46.8873 137.933 46.1751 137.022 46.2317Z" stroke="#B5B5B5" stroke-width="2" stroke-miterlimit="10" stroke-linejoin="round"/>
<path d="M174.215 48.3517L177.526 48.1717L180.938 44.6269L185.681 44.3179" stroke="#B5B5B5" stroke-width="2" stroke-miterlimit="10" stroke-linecap="round" stroke-linejoin="round"/>
<path d="M187.217 42.4776C188.128 42.4183 188.916 43.1281 188.977 44.063C189.037 44.998 188.349 45.804 187.438 45.8634C186.527 45.9227 185.739 45.2129 185.678 44.2779C185.618 43.343 186.306 42.537 187.217 42.4776Z" stroke="#B5B5B5" stroke-width="2" stroke-miterlimit="10" stroke-linejoin="round"/>
<path d="M153.956 60.8315L150.645 61.0016L147.221 64.5356L142.478 64.8302" stroke="#B5B5B5" stroke-width="2" stroke-miterlimit="10" stroke-linecap="round" stroke-linejoin="round"/>
<path d="M140.936 66.6644C140.025 66.7214 139.24 66.009 139.182 65.0738C139.124 64.1386 139.815 63.3349 140.726 63.278C141.637 63.2217 142.422 63.9341 142.48 64.8687C142.539 65.8039 141.847 66.6081 140.936 66.6644Z" stroke="#B5B5B5" stroke-width="2" stroke-miterlimit="10" stroke-linejoin="round"/>
<path d="M172.272 59.1058L175.578 58.8545L179.422 61.9262L184.164 61.6175" stroke="#B5B5B5" stroke-width="2" stroke-miterlimit="10" stroke-linecap="round" stroke-linejoin="round"/>
<path d="M185.926 63.2408C186.837 63.1816 187.525 62.3756 187.465 61.4404C187.404 60.5058 186.616 59.7957 185.705 59.855C184.795 59.9143 184.106 60.7203 184.166 61.6555C184.227 62.5907 185.015 63.3001 185.926 63.2408Z" stroke="#B5B5B5" stroke-width="2" stroke-miterlimit="10" stroke-linejoin="round"/>
<path d="M165.879 77.0274L165.355 67.9883" stroke="#B5B5B5" stroke-width="2" stroke-miterlimit="10" stroke-linejoin="round"/>
<path d="M167.664 78.3484C167.722 79.2587 167.011 80.0457 166.076 80.105C165.141 80.1643 164.336 79.4744 164.278 78.5635C164.22 77.6526 164.931 76.8661 165.866 76.8063C166.801 76.747 167.606 77.4375 167.664 78.3484Z" stroke="#B5B5B5" stroke-width="2" stroke-miterlimit="10" stroke-linejoin="round"/>
<path d="M159.722 68.1138L159.968 71.4202L156.891 75.2594L157.192 80.0024" stroke="#B5B5B5" stroke-width="2" stroke-miterlimit="10" stroke-linecap="round" stroke-linejoin="round"/>
<path d="M155.566 81.7617C155.624 82.6721 156.429 83.3625 157.364 83.3032C158.299 83.2434 159.01 82.4569 158.952 81.546C158.894 80.6351 158.089 79.9453 157.154 80.0045C156.219 80.0638 155.508 80.8508 155.566 81.7617Z" stroke="#B5B5B5" stroke-width="2" stroke-miterlimit="10" stroke-linejoin="round"/>
<path d="M170.142 64.8066L170.317 68.1178L173.857 71.5362L174.158 76.2792" stroke="#B5B5B5" stroke-width="2" stroke-miterlimit="10" stroke-linecap="round" stroke-linejoin="round"/>
<path d="M175.993 77.8181C176.051 78.729 175.339 79.5154 174.404 79.5747C173.469 79.6346 172.664 78.9441 172.606 78.0332C172.548 77.1223 173.259 76.3358 174.194 76.2766C175.13 76.2167 175.934 76.9072 175.993 77.8181Z" stroke="#B5B5B5" stroke-width="2" stroke-miterlimit="10" stroke-linejoin="round"/>
<path d="M152.369 40.4677L153.449 69.6896C152.311 69.7353 150.913 69.401 150.857 68.4492L149.166 42.0359C149.068 40.4578 151.943 39.9687 152.369 40.4677Z" fill="#6B62B8"/>
<path d="M151.875 40.287L175.075 40.7184C176.108 40.7376 176.999 41.589 177.065 42.6202L178.44 64.2386C178.505 65.2698 177.73 66.2269 176.708 66.3775L153.749 69.7449C152.726 69.8949 151.845 69.1807 151.779 68.1495L150.123 42.1192C150.057 41.088 150.842 40.2677 151.875 40.287Z" fill="#A782D6"/>
<path d="M156.362 44.6316L157.112 64.9133C156.322 64.9446 155.352 64.7129 155.313 64.0521L154.139 45.7199C154.072 44.6247 156.067 44.2852 156.362 44.6316Z" fill="#BCB6C5"/>
<path d="M156.02 44.5046L172.123 44.8041C172.84 44.8174 173.458 45.4084 173.503 46.124L174.458 61.1281C174.503 61.844 173.965 62.5084 173.256 62.6127L157.321 64.9501C156.611 65.0544 155.999 64.5584 155.954 63.8431L154.804 45.7764C154.759 45.0606 155.303 44.4913 156.02 44.5046Z" fill="#E3D7F3"/>
<path d="M173.605 47.6909C171.994 49.1707 170.19 51.9312 168.801 56.8236C168.072 59.391 164.399 62.0307 163.121 64.099L173.257 62.6126C173.967 62.5089 174.506 61.8445 174.461 61.1286L173.605 47.6909Z" fill="#BCB6C5"/>
<path opacity="0.7" d="M230.65 41.4215H172.835C171.826 41.4215 171 40.5957 171 39.5861V10.4527C171 9.44301 171.826 8.61719 172.835 8.61719H230.65C231.66 8.61719 232.486 9.44301 232.486 10.4527V39.5861C232.485 40.5957 231.659 41.4215 230.65 41.4215Z" fill="white"/>
<path d="M230.65 41.4215H172.835C171.826 41.4215 171 40.5957 171 39.5861V10.4527C171 9.44301 171.826 8.61719 172.835 8.61719H230.65C231.66 8.61719 232.486 9.44301 232.486 10.4527V39.5861C232.485 40.5957 231.659 41.4215 230.65 41.4215Z" stroke="#DDC3FF" stroke-miterlimit="10"/>
<g opacity="0.8">
<path d="M195.141 32.1323H208.716C209.455 32.1323 210.21 31.5278 210.394 30.7892L212.335 23.0037C212.519 22.2651 212.065 21.6606 211.327 21.6606H197.752C197.013 21.6606 196.258 22.2651 196.074 23.0037L194.133 30.7892C193.949 31.5278 194.402 32.1323 195.141 32.1323Z" fill="#8166A2"/>
<path d="M208.347 32.1323H194.772C194.033 32.1323 193.278 31.5278 193.094 30.7892L191.153 23.0037C190.969 22.2651 191.423 21.6606 192.161 21.6606H205.736C206.475 21.6606 207.23 22.2651 207.414 23.0037L209.355 30.7892C209.539 31.5278 209.085 32.1323 208.347 32.1323Z" fill="#A782D6"/>
</g>
<path opacity="0.7" d="M132.623 21.66H96.2106C95.5748 21.66 95.0547 21.1399 95.0547 20.504V2.15596C95.0547 1.52007 95.5748 1 96.2106 1H132.623C133.259 1 133.779 1.52007 133.779 2.15596V20.504C133.779 21.1399 133.259 21.66 132.623 21.66Z" fill="white"/>
<path d="M132.623 21.66H96.2106C95.5748 21.66 95.0547 21.1399 95.0547 20.504V2.15596C95.0547 1.52007 95.5748 1 96.2106 1H132.623C133.259 1 133.779 1.52007 133.779 2.15596V20.504C133.779 21.1399 133.259 21.66 132.623 21.66Z" stroke="#DDC3FF" stroke-miterlimit="10"/>
<g opacity="0.8">
<path d="M114.418 5.64111L107.849 17.0201H120.988L114.418 5.64111Z" stroke="#B279FD" stroke-width="2.8347" stroke-miterlimit="10" stroke-linecap="round" stroke-linejoin="round"/>
<path d="M113.892 14.9958C113.892 14.6732 114.116 14.4396 114.421 14.4396C114.744 14.4396 114.95 14.6727 114.95 14.9958C114.95 15.3095 114.744 15.5515 114.421 15.5515C114.107 15.552 113.892 15.31 113.892 14.9958ZM114.116 13.7142L113.991 9.41064H114.851L114.725 13.7142H114.116Z" fill="#BF93FD"/>
</g>
<path opacity="0.7" d="M137.002 87.654H79.187C78.1774 87.654 77.3516 86.8281 77.3516 85.8185V56.6851C77.3516 55.6754 78.1774 54.8496 79.187 54.8496H137.002C138.011 54.8496 138.837 55.6754 138.837 56.6851V85.8185C138.837 86.8281 138.011 87.654 137.002 87.654Z" fill="white"/>
<path d="M137.002 87.654H79.187C78.1774 87.654 77.3516 86.8281 77.3516 85.8185V56.6851C77.3516 55.6754 78.1774 54.8496 79.187 54.8496H137.002C138.011 54.8496 138.837 55.6754 138.837 56.6851V85.8185C138.837 86.8281 138.011 87.654 137.002 87.654Z" stroke="#DDC3FF" stroke-miterlimit="10"/>
<g opacity="0.8">
<path d="M107.762 61.9399C107.95 61.7676 108.236 61.7681 108.425 61.9409C110.019 63.4002 114.158 67.1257 116.554 68.6841C116.704 68.7814 116.788 68.9541 116.777 69.1323L116.766 69.2085C116.364 71.0393 114.698 76.3226 108.365 80.6099C108.223 80.7055 108.037 80.7175 107.885 80.646L107.823 80.6099L107.243 80.2056C101.387 75.9962 99.8117 70.9819 99.4214 69.2085C99.3765 69.0048 99.4623 68.7953 99.6333 68.6841C102.029 67.1257 106.168 63.4003 107.762 61.9409V61.9399Z" fill="#B279FD" stroke="#B279FD"/>
<path d="M107.823 62.8081C107.978 62.6665 108.212 62.6666 108.365 62.8071C109.725 64.0515 113.125 67.1145 115.345 68.6636L115.772 68.9517C115.912 69.0419 115.982 69.2132 115.945 69.3813C115.58 71.0406 114.07 75.8392 108.316 79.7339C108.201 79.8117 108.048 79.8216 107.924 79.7632L107.873 79.7339L107.346 79.3667C102.026 75.5427 100.597 70.9883 100.243 69.3813C100.206 69.2136 100.277 69.0426 100.417 68.9517C102.602 67.5302 106.372 64.1346 107.822 62.8071L107.823 62.8081Z" fill="white" stroke="#B279FD"/>
<path d="M108.595 63.0137C110.18 64.4586 113.694 67.5987 115.772 68.9512C115.895 69.0308 115.964 69.1722 115.955 69.3184L115.946 69.3809C115.861 69.7668 115.707 70.328 115.456 71.0078H108.595V63.0137Z" fill="#B279FD" stroke="#B279FD"/>
<path d="M107.595 72.0088V79.542C103.978 77.0156 102.106 74.1477 101.141 72.0088H107.595Z" fill="#B279FD" stroke="#B279FD"/>
</g>
<path opacity="0.7" d="M232.765 85.8344H190.553C189.816 85.8344 189.213 85.2313 189.213 84.4941V63.2236C189.213 62.4864 189.816 61.8833 190.553 61.8833H232.765C233.502 61.8833 234.105 62.4864 234.105 63.2236V84.4941C234.104 85.2313 233.501 85.8344 232.765 85.8344Z" fill="white"/>
<path d="M232.765 85.8344H190.553C189.816 85.8344 189.213 85.2313 189.213 84.4941V63.2236C189.213 62.4864 189.816 61.8833 190.553 61.8833H232.765C233.502 61.8833 234.105 62.4864 234.105 63.2236V84.4941C234.104 85.2313 233.501 85.8344 232.765 85.8344Z" stroke="#DDC3FF" stroke-miterlimit="10"/>
<path d="M218.919 72.8219L218.313 72.654L218.86 72.344C218.93 72.3041 218.955 72.2146 218.916 72.1447L216.531 67.9331C216.491 67.8632 216.402 67.8383 216.332 67.8777L215.784 68.1877L215.952 67.5814C215.974 67.504 215.928 67.4229 215.85 67.4013L211.186 66.1093C211.109 66.0878 211.028 66.1337 211.006 66.2111L210.838 66.8174L210.528 66.2702C210.488 66.2003 210.399 66.1754 210.329 66.2148L206.117 68.5994C206.047 68.6393 206.022 68.7289 206.062 68.7992L206.372 69.3465L205.765 69.1786C205.688 69.157 205.607 69.203 205.585 69.2804L204.293 73.9445C204.272 74.0219 204.318 74.103 204.395 74.1246L205.002 74.2925L204.454 74.6025C204.384 74.6418 204.36 74.7319 204.399 74.8018L206.784 79.0134C206.823 79.0832 206.913 79.1086 206.983 79.0687L207.53 78.7587L207.362 79.3651C207.341 79.4425 207.387 79.5236 207.464 79.5452L212.128 80.8371C212.206 80.8587 212.287 80.8127 212.308 80.7354L212.476 80.129L212.786 80.6767C212.826 80.7466 212.916 80.7715 212.986 80.7321L217.197 78.3475C217.267 78.3081 217.292 78.2181 217.253 78.1482L216.943 77.6009L217.549 77.7688C217.627 77.7904 217.708 77.7444 217.729 77.667L219.021 73.0029C219.043 72.9246 218.997 72.8434 218.919 72.8219ZM210.632 77.177C208.587 76.6105 207.388 74.4932 207.954 72.4476C208.521 70.4021 210.638 69.2035 212.684 69.7699C214.729 70.3364 215.928 72.4537 215.362 74.4993C214.795 76.5444 212.677 77.7435 210.632 77.177Z" fill="#A782D6"/>
<path d="M187.556 79.5763C187.665 79.1566 187.869 78.6862 188.289 78.5798C188.856 78.4363 189.325 79.0656 189.439 79.6391C189.552 80.2127 189.51 80.8528 189.861 81.3208C190.278 81.0028 190.927 81.0464 191.298 81.4164C191.669 81.7869 191.713 82.4364 191.396 82.8538C191.349 82.9152 191.295 82.9748 191.277 83.0498C191.213 83.3227 191.609 83.4221 191.872 83.5211C192.372 83.7096 192.609 84.3305 192.498 84.8538C192.387 85.3772 192.007 85.8044 191.583 86.1299C190.091 87.2755 188.865 86.4947 188.153 85.063C187.317 83.3823 187.084 81.3982 187.556 79.5763Z" fill="#A05E47"/>
<path d="M232.266 76.7489C232.341 76.5623 232.461 76.386 232.637 76.2875C233.036 76.0638 233.579 76.3564 233.737 76.786C233.806 76.9731 233.883 77.2296 234.082 77.2174C234.441 76.3114 233.968 75.2633 234.211 74.3193C234.276 74.0651 234.427 73.7964 234.684 73.742C234.959 73.6839 235.217 73.8991 235.371 74.1345C235.655 74.5725 235.738 75.1057 235.848 75.6164C235.872 75.7294 235.902 75.85 235.989 75.9259C236.07 75.9963 236.182 76.0136 236.284 76.046C236.567 76.1365 236.8 76.3724 236.887 76.657C236.922 76.7719 236.934 76.892 236.962 77.0087C237.107 77.5987 237.645 78.0104 237.887 78.568C238.091 79.0383 238.067 79.5828 237.924 80.0756C237.781 80.568 237.527 81.0201 237.276 81.467C237.218 81.5692 237.152 81.679 237.043 81.7231C236.967 81.754 236.88 81.747 236.798 81.7357C236.499 81.6935 236.211 81.5978 235.929 81.4895C235.072 81.1594 234.264 80.7036 233.538 80.1408C232.639 79.4449 231.803 77.91 232.266 76.7489Z" fill="#A05E47"/>
<path d="M232.513 78.7324C227.077 88.2952 219.895 89.5544 219.528 89.6125C217.809 89.8592 216.606 91.4461 216.838 93.1718C216.961 94.0919 217.468 94.8657 218.175 95.3552C218.802 95.789 219.585 95.9996 220.4 95.8898C220.827 95.8326 230.929 94.3423 238.022 81.865C236.077 80.0563 232.513 78.7324 232.513 78.7324Z" fill="#2481D3"/>
<path d="M219.528 89.6116C217.809 89.8583 216.606 91.4452 216.838 93.1709C216.961 94.091 217.468 94.8648 218.175 95.3544C218.802 95.7882 219.585 95.9987 220.4 95.889C220.589 95.8636 222.668 95.5565 225.54 94.1478C223.173 91.4968 222.814 89.3171 222.775 88.4702C220.951 89.3664 219.677 89.5882 219.528 89.6116Z" fill="#1C74B5"/>
<path d="M200.862 141.153V142.72C200.862 142.72 194.622 143.934 188.977 142.72L191.549 141.153H200.862Z" fill="#171C27"/>
<path d="M240.462 131.802H242.163C242.163 131.802 243.256 137.898 242.163 140.534C242.163 140.534 241.391 141.659 239.784 141.498C239.784 141.498 240.723 140.838 240.462 139.625V131.802Z" fill="#171C27"/>
<path d="M222.957 116.26L223.221 130.842L240.464 131.802C240.464 131.802 241.592 137.219 240.464 139.625H223.221C223.221 139.625 214.368 141.21 213.878 132.714C213.389 124.218 213.347 118.571 213.347 118.571C213.347 118.571 219.363 115.534 222.957 116.26Z" fill="#062538"/>
<path d="M223.23 114.114C223.23 114.114 225.247 120.572 221.489 121.94C217.73 123.308 200.08 121.94 200.08 121.94L200.862 141.154C200.862 141.154 195.847 142.717 191.548 141.154L190.962 118.554C190.962 118.554 189.573 112.085 202.164 113.145L223.23 114.114Z" fill="#0A3759"/>
<path d="M218.955 83.3179L218.683 88.5344L216.165 90.5978L213.905 89.0531L214.068 85.9158L218.955 83.3179Z" fill="#A05E47"/>
<path d="M214.953 87.8777L213.609 87.8079C211.543 87.7 209.942 85.9222 210.049 83.8565L210.318 78.7056C210.426 76.6403 212.203 75.0384 214.269 75.1463L215.613 75.2161C217.679 75.324 219.281 77.1018 219.173 79.1675L218.904 84.3184C218.797 86.3837 217.019 87.9851 214.953 87.8777Z" fill="#A05E47"/>
<path d="M214.571 85.4424C213.932 84.7104 213.675 83.7303 213.442 82.7872C213.404 82.6329 213.366 82.4711 213.406 82.3173C213.446 82.1658 213.555 82.0444 213.654 81.9229C213.894 81.628 214.095 81.2776 214.104 80.8978C214.112 80.5179 213.876 80.1137 213.505 80.0335C213.068 79.9393 212.646 80.3271 212.535 80.7599C212.424 81.1928 212.54 81.6472 212.655 82.0786C212.213 82.2709 211.756 81.7555 211.715 81.2748C211.673 80.7942 211.858 80.314 211.808 79.8342C211.728 79.0572 211.078 78.4869 210.612 77.8604C210.146 77.2339 209.894 76.236 210.505 75.7502C210.758 75.5494 211.097 75.4969 211.383 75.3464C211.866 75.0918 212.162 74.5778 212.622 74.2833C212.945 74.0765 213.329 73.9902 213.709 73.9335C215.988 73.593 218.605 74.4076 219.684 76.4437C220.497 77.98 220.29 79.8333 220.061 81.5567C219.87 82.9977 219.888 85.3012 218.438 86.0708C217.208 86.7235 215.504 86.5111 214.571 85.4424Z" fill="#171C27"/>
<path d="M218.532 88.282C218.532 88.282 223.595 88.282 223.211 93.7279C222.826 99.1737 222.121 102.412 222.762 105.945C223.403 109.477 223.231 114.114 223.231 114.114C223.231 114.114 212.764 117.542 207.06 113.789C207.06 113.789 207.893 96.0829 208.086 93.3597C208.278 90.6365 210.837 88.2543 214.879 88.2815C218.92 88.3087 218.92 88.3087 218.92 88.3087" fill="#2481D3"/>
<path d="M214.538 113.894C219.61 113.894 223.244 112.076 223.295 112.049C223.344 112.025 223.363 111.964 223.338 111.916C223.313 111.867 223.252 111.848 223.205 111.873C223.131 111.91 215.729 115.61 207.305 112.362C207.253 112.342 207.196 112.367 207.177 112.419C207.157 112.47 207.183 112.528 207.234 112.547C209.824 113.546 212.319 113.894 214.538 113.894Z" fill="#8A38F5"/>
<path d="M223.154 109.486C223.156 109.486 223.157 109.486 223.158 109.486C223.213 109.483 223.256 109.437 223.254 109.382C223.176 107.621 222.864 105.944 222.86 105.927C222.402 103.401 222.631 101.078 222.947 97.8622C223.067 96.6462 223.203 95.2675 223.311 93.7355C223.315 93.6806 223.273 93.6332 223.218 93.629C223.173 93.6267 223.116 93.666 223.112 93.7214C223.004 95.2502 222.868 96.6275 222.749 97.8425C222.442 100.953 222.2 103.409 222.664 105.963C222.667 105.98 222.977 107.644 223.054 109.39C223.057 109.443 223.101 109.486 223.154 109.486Z" fill="#8A38F5"/>
<path d="M222.754 114.203C222.809 114.203 222.854 114.159 222.854 114.104V112.714C222.854 112.659 222.809 112.615 222.754 112.615C222.699 112.615 222.655 112.659 222.655 112.714V114.104C222.655 114.159 222.699 114.203 222.754 114.203Z" fill="#8A38F5"/>
<path d="M222.097 114.126C222.152 114.126 222.197 114.081 222.197 114.026V113.042C222.197 112.987 222.152 112.942 222.097 112.942C222.043 112.942 221.998 112.987 221.998 113.042V114.026C221.998 114.081 222.043 114.126 222.097 114.126Z" fill="#8A38F5"/>
<path d="M221.391 114.479C221.446 114.479 221.491 114.434 221.491 114.379V113.243C221.491 113.189 221.446 113.144 221.391 113.144C221.337 113.144 221.292 113.189 221.292 113.243V114.379C221.292 114.434 221.337 114.479 221.391 114.479Z" fill="#8A38F5"/>
<path d="M220.557 114.631C220.612 114.631 220.657 114.587 220.657 114.532V113.622C220.657 113.567 220.612 113.523 220.557 113.523C220.503 113.523 220.458 113.567 220.458 113.622V114.532C220.458 114.587 220.503 114.631 220.557 114.631Z" fill="#8A38F5"/>
<path d="M219.802 114.809C219.856 114.809 219.901 114.765 219.901 114.71V113.698C219.901 113.643 219.856 113.598 219.802 113.598C219.747 113.598 219.702 113.643 219.702 113.698V114.71C219.702 114.765 219.747 114.809 219.802 114.809Z" fill="#8A38F5"/>
<path d="M219.07 114.99C219.125 114.99 219.17 114.946 219.17 114.891V113.875C219.17 113.82 219.125 113.775 219.07 113.775C219.015 113.775 218.971 113.82 218.971 113.875V114.891C218.971 114.946 219.015 114.99 219.07 114.99Z" fill="#8A38F5"/>
<path d="M218.212 114.986C218.267 114.986 218.311 114.941 218.311 114.886V113.925C218.311 113.87 218.267 113.826 218.212 113.826C218.157 113.826 218.112 113.87 218.112 113.925V114.886C218.112 114.941 218.157 114.986 218.212 114.986Z" fill="#8A38F5"/>
<path d="M217.48 115.034C217.535 115.034 217.58 114.989 217.58 114.934V114.102C217.58 114.047 217.535 114.002 217.48 114.002C217.425 114.002 217.381 114.047 217.381 114.102V114.934C217.381 114.989 217.425 115.034 217.48 115.034Z" fill="#8A38F5"/>
<path d="M216.826 115.294C216.881 115.294 216.926 115.249 216.926 115.194V114.202C216.926 114.148 216.881 114.103 216.826 114.103C216.772 114.103 216.727 114.148 216.727 114.202V115.194C216.727 115.25 216.772 115.294 216.826 115.294Z" fill="#8A38F5"/>
<path d="M215.943 115.11C215.998 115.11 216.042 115.065 216.042 115.01V114.379C216.042 114.324 215.998 114.279 215.943 114.279C215.888 114.279 215.843 114.324 215.843 114.379V115.01C215.843 115.065 215.888 115.11 215.943 115.11Z" fill="#8A38F5"/>
<path d="M215.336 115.312C215.391 115.312 215.436 115.267 215.436 115.212V114.429C215.436 114.375 215.391 114.33 215.336 114.33C215.281 114.33 215.237 114.375 215.237 114.429V115.212C215.237 115.267 215.281 115.312 215.336 115.312Z" fill="#8A38F5"/>
<path d="M214.757 115.392C214.812 115.392 214.857 115.347 214.857 115.293V114.304C214.857 114.249 214.812 114.204 214.757 114.204C214.702 114.204 214.658 114.249 214.658 114.304V115.293C214.658 115.347 214.702 115.392 214.757 115.392Z" fill="#8A38F5"/>
<path d="M214.126 115.423C214.181 115.423 214.225 115.379 214.225 115.324V114.304C214.225 114.249 214.181 114.204 214.126 114.204C214.071 114.204 214.026 114.249 214.026 114.304V115.324C214.026 115.379 214.071 115.423 214.126 115.423Z" fill="#8A38F5"/>
<path d="M213.447 115.214C213.501 115.214 213.546 115.169 213.546 115.114V114.304C213.546 114.249 213.501 114.204 213.447 114.204C213.392 114.204 213.347 114.249 213.347 114.304V115.114C213.347 115.169 213.392 115.214 213.447 115.214Z" fill="#8A38F5"/>
<path d="M212.79 115.11C212.845 115.11 212.89 115.066 212.89 115.011V114.304C212.89 114.249 212.845 114.204 212.79 114.204C212.735 114.204 212.691 114.249 212.691 114.304V115.011C212.691 115.065 212.735 115.11 212.79 115.11Z" fill="#8A38F5"/>
<path d="M212.007 115.293C212.062 115.293 212.106 115.249 212.106 115.194V114.227C212.106 114.172 212.062 114.128 212.007 114.128C211.952 114.128 211.907 114.172 211.907 114.227V115.194C211.907 115.249 211.952 115.293 212.007 115.293Z" fill="#8A38F5"/>
<path d="M211.275 115.124C211.33 115.124 211.375 115.079 211.375 115.024V113.975C211.375 113.92 211.33 113.875 211.275 113.875C211.22 113.875 211.176 113.92 211.176 113.975V115.024C211.176 115.079 211.22 115.124 211.275 115.124Z" fill="#8A38F5"/>
<path d="M210.721 114.954C210.776 114.954 210.821 114.91 210.821 114.855V113.9C210.821 113.845 210.776 113.801 210.721 113.801C210.667 113.801 210.622 113.845 210.622 113.9V114.855C210.622 114.91 210.667 114.954 210.721 114.954Z" fill="#8A38F5"/>
<path d="M210.015 114.86C210.07 114.86 210.114 114.815 210.114 114.76V113.723C210.114 113.669 210.07 113.624 210.015 113.624C209.96 113.624 209.916 113.669 209.916 113.723V114.76C209.916 114.815 209.96 114.86 210.015 114.86Z" fill="#8A38F5"/>
<path d="M209.411 114.708C209.466 114.708 209.51 114.664 209.51 114.609V113.596C209.51 113.542 209.466 113.497 209.411 113.497C209.356 113.497 209.312 113.542 209.312 113.596V114.609C209.312 114.664 209.356 114.708 209.411 114.708Z" fill="#8A38F5"/>
<path d="M208.702 114.53C208.757 114.53 208.801 114.485 208.801 114.431V113.521C208.801 113.466 208.757 113.422 208.702 113.422C208.647 113.422 208.603 113.466 208.603 113.521V114.431C208.603 114.485 208.647 114.53 208.702 114.53Z" fill="#8A38F5"/>
<path d="M208.021 114.151C208.076 114.151 208.12 114.107 208.12 114.052V113.117C208.12 113.063 208.076 113.018 208.021 113.018C207.966 113.018 207.921 113.063 207.921 113.117V114.052C207.921 114.107 207.966 114.151 208.021 114.151Z" fill="#8A38F5"/>
<path d="M207.519 113.976C207.574 113.976 207.618 113.931 207.618 113.876V112.89C207.618 112.836 207.574 112.791 207.519 112.791C207.464 112.791 207.419 112.836 207.419 112.89V113.876C207.419 113.931 207.464 113.976 207.519 113.976Z" fill="#8A38F5"/>
<path d="M214.812 90.7104C213.965 89.1788 212.034 88.6236 210.506 89.471C210.133 89.6759 201.271 94.3907 193.584 82.6201C191.036 83.1749 188.278 86.0847 188.278 86.0847C196.356 98.4546 206.98 97.9111 212.416 95.5804C212.833 95.4013 213.22 95.2118 213.573 95.0168C215.104 94.1703 215.659 92.2425 214.812 90.7104Z" fill="#2481D3"/>
<path d="M207.893 96.7746C207.893 96.7746 209.309 96.6592 210.609 96.2227L207.717 100.226L207.893 96.7746Z" fill="#1C74B5"/>
</svg>
