<svg width="788" height="975" viewBox="0 0 788 975" fill="none" xmlns="http://www.w3.org/2000/svg">
<rect x="1" y="0.5" width="786" height="974" rx="14.5" fill="#7F758E" fill-opacity="0.2"/>
<rect x="1" y="0.5" width="786" height="974" rx="14.5" stroke="#B680FE"/>
<path d="M417.822 569.895H359.232C357.005 569.895 355.258 567.984 355.457 565.766L361.54 497.84C361.715 495.885 363.353 494.388 365.315 494.388H411.33C413.284 494.388 414.917 495.873 415.103 497.818L421.594 565.744C421.808 567.969 420.058 569.895 417.822 569.895Z" fill="#D1D3D4"/>
<path d="M411.331 494.388H365.316C363.354 494.388 361.716 495.886 361.541 497.84L357.991 537.483C368.309 534.69 390.213 530.692 418.769 536.162L415.105 497.818C414.918 495.873 413.285 494.388 411.331 494.388Z" fill="#D1D3D4"/>
<path d="M528.346 526.593H248.708C243.702 526.593 239.607 522.498 239.607 517.492V352.186C239.607 347.18 243.703 343.085 248.708 343.085H528.346C533.352 343.085 537.447 347.181 537.447 352.186V517.492C537.448 522.498 533.352 526.593 528.346 526.593Z" fill="white"/>
<path d="M528.346 343.085H248.708C243.702 343.085 239.607 347.181 239.607 352.186V490.564H537.447V352.186C537.448 347.181 533.352 343.085 528.346 343.085Z" fill="#383838"/>
<path d="M525.787 353.041H251.27V480.516H525.787V353.041Z" fill="#E1D6EF"/>
<path d="M259.238 361.509C259.238 362.634 258.326 363.546 257.201 363.546C256.076 363.546 255.164 362.634 255.164 361.509C255.164 360.384 256.076 359.472 257.201 359.472C258.326 359.472 259.238 360.383 259.238 361.509Z" fill="#E54C64"/>
<path d="M266.766 361.509C266.766 362.634 265.854 363.546 264.729 363.546C263.604 363.546 262.692 362.634 262.692 361.509C262.692 360.384 263.604 359.472 264.729 359.472C265.854 359.471 266.766 360.383 266.766 361.509Z" fill="#FBB040"/>
<path d="M274.296 361.509C274.296 362.634 273.384 363.546 272.259 363.546C271.134 363.546 270.222 362.634 270.222 361.509C270.222 360.384 271.134 359.472 272.259 359.472C273.384 359.471 274.296 360.383 274.296 361.509Z" fill="#8DC63F"/>
<path d="M518.814 363.546H301.762C300.232 363.546 298.98 362.294 298.98 360.764C298.98 359.234 300.232 357.981 301.762 357.981H518.814C520.344 357.981 521.597 359.233 521.597 360.764C521.596 362.294 520.344 363.546 518.814 363.546Z" fill="white"/>
<path d="M303.27 362.275L302.461 359.617H302.89L303.464 361.652H303.492L304.059 359.617H304.495L305.056 361.645H305.083L305.658 359.617H306.087L305.277 362.275H304.876L304.294 360.233H304.253L303.672 362.275H303.27ZM307.229 362.275L306.419 359.617H306.848L307.422 361.652H307.45L308.018 359.617H308.454L309.014 361.645H309.042L309.616 359.617H310.045L309.236 362.275H308.834L308.253 360.233H308.211L307.63 362.275H307.229ZM311.187 362.275L310.378 359.617H310.807L311.381 361.652H311.409L311.976 359.617H312.412L312.973 361.645H313L313.575 359.617H314.004L313.194 362.275H312.793L312.211 360.233H312.17L311.589 362.275H311.187ZM314.48 362.303C314.394 362.303 314.321 362.272 314.26 362.211C314.199 362.15 314.168 362.077 314.168 361.991C314.168 361.906 314.199 361.833 314.26 361.771C314.321 361.71 314.394 361.68 314.48 361.68C314.565 361.68 314.638 361.71 314.699 361.771C314.76 361.833 314.791 361.906 314.791 361.991C314.791 362.048 314.777 362.1 314.748 362.147C314.72 362.194 314.683 362.232 314.635 362.261C314.589 362.289 314.537 362.303 314.48 362.303Z" fill="#1F74C2"/>
<path d="M440.405 567.088H336.652C336.417 567.088 336.224 567.28 336.224 567.515V569.467C336.224 569.702 336.416 569.895 336.652 569.895H440.404C440.639 569.895 440.832 569.703 440.832 569.467V567.515C440.832 567.28 440.64 567.088 440.405 567.088Z" fill="white"/>
<path opacity="0.4" d="M373.712 541.805H308.628C307.492 541.805 306.562 540.875 306.562 539.739V506.942C306.562 505.806 307.492 504.876 308.628 504.876H373.712C374.848 504.876 375.778 505.806 375.778 506.942V539.739C375.779 540.875 374.849 541.805 373.712 541.805Z" fill="#F6F3FA"/>
<path d="M373.712 541.805H308.628C307.492 541.805 306.562 540.875 306.562 539.739V506.942C306.562 505.806 307.492 504.876 308.628 504.876H373.712C374.848 504.876 375.778 505.806 375.778 506.942V539.739C375.779 540.875 374.849 541.805 373.712 541.805Z" stroke="#8A38F5" stroke-miterlimit="10"/>
<g opacity="0.8">
<path opacity="0.6" d="M351.493 525.67C348.378 527.739 344.176 526.891 342.108 523.776C340.039 520.661 340.887 516.459 344.002 514.39C347.117 512.321 351.319 513.169 353.388 516.283C355.455 519.399 354.607 523.602 351.493 525.67Z" fill="white"/>
<path opacity="0.6" d="M351.492 525.67C351.834 525.443 352.147 525.189 352.434 524.914L346.929 513.31C345.913 513.433 344.91 513.786 344 514.391C343.931 514.437 343.865 514.485 343.798 514.532L349.744 526.499C350.349 526.312 350.938 526.038 351.492 525.67Z" fill="white"/>
<path opacity="0.6" d="M348.704 526.734L342.763 515.448C342.551 515.678 342.358 515.921 342.182 516.174L347.636 526.799C347.991 526.806 348.348 526.785 348.704 526.734Z" fill="white"/>
<path d="M341.617 524.102C339.372 520.722 340.295 516.147 343.675 513.902C347.055 511.657 351.63 512.58 353.875 515.96C356.12 519.34 355.197 523.916 351.817 526.16C348.438 528.405 343.862 527.482 341.617 524.102ZM352.897 516.61C351.011 513.77 347.166 512.994 344.326 514.881C341.486 516.767 340.711 520.612 342.597 523.452C344.483 526.292 348.328 527.068 351.168 525.181C354.007 523.295 354.783 519.45 352.897 516.61Z" fill="#BF93FD"/>
<path d="M342.432 524.266L328.905 533.813C328.428 534.149 327.769 534.036 327.433 533.559C327.096 533.082 327.21 532.423 327.687 532.087C327.702 532.076 327.721 532.064 327.737 532.054L341.782 523.287C342.057 523.115 342.42 523.199 342.592 523.474C342.758 523.74 342.684 524.088 342.432 524.266Z" fill="#BF93FD"/>
</g>
<path d="M399.918 369.253L401.254 388.514" stroke="#B5B5B5" stroke-width="2" stroke-miterlimit="10" stroke-linejoin="round"/>
<path d="M403.334 365.979C403.21 364.037 401.493 362.565 399.5 362.692C397.506 362.819 395.989 364.496 396.113 366.438C396.237 368.381 397.953 369.853 399.947 369.726C401.941 369.599 403.457 367.921 403.334 365.979Z" stroke="#B5B5B5" stroke-width="2" stroke-miterlimit="10" stroke-linejoin="round"/>
<path d="M355.06 420.286L374.337 419.201" stroke="#B5B5B5" stroke-width="2" stroke-miterlimit="10" stroke-linejoin="round"/>
<path d="M352.239 424.086C350.297 424.207 348.622 422.688 348.498 420.694C348.374 418.7 349.849 416.986 351.791 416.865C353.734 416.745 355.409 418.264 355.533 420.258C355.656 422.252 354.182 423.966 352.239 424.086Z" stroke="#B5B5B5" stroke-width="2" stroke-miterlimit="10" stroke-linejoin="round"/>
<path d="M389.301 389.775L388.928 382.715L381.38 375.426L380.737 365.312" stroke="#B5B5B5" stroke-width="2" stroke-miterlimit="10" stroke-linecap="round" stroke-linejoin="round"/>
<path d="M376.822 362.029C376.698 360.087 378.214 358.409 380.208 358.283C382.202 358.156 383.918 359.627 384.042 361.57C384.166 363.512 382.649 365.19 380.656 365.316C378.662 365.443 376.945 363.971 376.822 362.029Z" stroke="#B5B5B5" stroke-width="2" stroke-miterlimit="10" stroke-linejoin="round"/>
<path d="M374.086 407.182L367.035 407.696L358.858 401.12L348.743 401.748" stroke="#B5B5B5" stroke-width="2" stroke-miterlimit="10" stroke-linecap="round" stroke-linejoin="round"/>
<path d="M344.998 398.274C343.056 398.394 341.581 400.109 341.705 402.103C341.829 404.096 343.504 405.616 345.446 405.496C347.389 405.374 348.863 403.66 348.74 401.666C348.616 399.672 346.941 398.153 344.998 398.274Z" stroke="#B5B5B5" stroke-width="2" stroke-miterlimit="10" stroke-linejoin="round"/>
<path d="M412.229 393.953L411.705 386.903L418.268 378.716L417.624 368.602" stroke="#B5B5B5" stroke-width="2" stroke-miterlimit="10" stroke-linecap="round" stroke-linejoin="round"/>
<path d="M421.092 364.85C420.968 362.908 419.252 361.436 417.258 361.563C415.264 361.69 413.748 363.367 413.871 365.309C413.995 367.252 415.711 368.724 417.705 368.597C419.699 368.47 421.216 366.792 421.092 364.85Z" stroke="#B5B5B5" stroke-width="2" stroke-miterlimit="10" stroke-linejoin="round"/>
<path d="M381.108 429.407L374.047 429.769L366.746 437.305L356.631 437.934" stroke="#B5B5B5" stroke-width="2" stroke-miterlimit="10" stroke-linecap="round" stroke-linejoin="round"/>
<path d="M353.339 441.845C351.396 441.966 349.721 440.447 349.598 438.453C349.474 436.458 350.948 434.745 352.891 434.623C354.833 434.503 356.508 436.022 356.632 438.015C356.756 440.01 355.281 441.725 353.339 441.845Z" stroke="#B5B5B5" stroke-width="2" stroke-miterlimit="10" stroke-linejoin="round"/>
<path d="M355.06 420.286L374.337 419.201" stroke="#B5B5B5" stroke-width="2" stroke-miterlimit="10" stroke-linejoin="round"/>
<path d="M352.239 424.086C350.297 424.207 348.622 422.688 348.498 420.694C348.374 418.7 349.849 416.986 351.791 416.865C353.734 416.745 355.409 418.264 355.533 420.258C355.656 422.252 354.182 423.966 352.239 424.086Z" stroke="#B5B5B5" stroke-width="2" stroke-miterlimit="10" stroke-linejoin="round"/>
<path d="M444.845 413.38L425.584 414.745" stroke="#B5B5B5" stroke-width="2" stroke-miterlimit="10" stroke-linejoin="round"/>
<path d="M448.125 416.792C450.066 416.666 451.536 414.947 451.405 412.953C451.275 410.96 449.596 409.446 447.653 409.572C445.712 409.7 444.242 411.419 444.372 413.412C444.503 415.406 446.182 416.919 448.125 416.792Z" stroke="#B5B5B5" stroke-width="2" stroke-miterlimit="10" stroke-linejoin="round"/>
<path d="M374.086 407.182L367.035 407.696L358.858 401.12L348.743 401.748" stroke="#B5B5B5" stroke-width="2" stroke-miterlimit="10" stroke-linecap="round" stroke-linejoin="round"/>
<path d="M344.998 398.274C343.056 398.394 341.581 400.109 341.705 402.103C341.829 404.096 343.504 405.616 345.446 405.496C347.389 405.374 348.863 403.66 348.74 401.666C348.616 399.672 346.941 398.153 344.998 398.274Z" stroke="#B5B5B5" stroke-width="2" stroke-miterlimit="10" stroke-linejoin="round"/>
<path d="M424.307 402.794L431.367 402.41L438.644 394.851L448.758 394.192" stroke="#B5B5B5" stroke-width="2" stroke-miterlimit="10" stroke-linecap="round" stroke-linejoin="round"/>
<path d="M452.033 390.269C453.976 390.142 455.655 391.656 455.785 393.65C455.914 395.643 454.446 397.362 452.503 397.489C450.561 397.615 448.881 396.102 448.751 394.108C448.622 392.114 450.091 390.395 452.033 390.269Z" stroke="#B5B5B5" stroke-width="2" stroke-miterlimit="10" stroke-linejoin="round"/>
<path d="M381.108 429.407L374.047 429.769L366.746 437.305L356.631 437.934" stroke="#B5B5B5" stroke-width="2" stroke-miterlimit="10" stroke-linecap="round" stroke-linejoin="round"/>
<path d="M353.339 441.845C351.396 441.966 349.721 440.447 349.598 438.453C349.474 436.458 350.948 434.745 352.891 434.623C354.833 434.503 356.508 436.022 356.632 438.015C356.756 440.01 355.281 441.725 353.339 441.845Z" stroke="#B5B5B5" stroke-width="2" stroke-miterlimit="10" stroke-linejoin="round"/>
<path d="M420.163 425.728L427.213 425.192L435.409 431.742L445.522 431.084" stroke="#B5B5B5" stroke-width="2" stroke-miterlimit="10" stroke-linecap="round" stroke-linejoin="round"/>
<path d="M449.279 434.545C451.222 434.419 452.69 432.7 452.561 430.706C452.431 428.713 450.751 427.199 448.809 427.325C446.867 427.452 445.398 429.17 445.527 431.165C445.657 433.159 447.337 434.672 449.279 434.545Z" stroke="#B5B5B5" stroke-width="2" stroke-miterlimit="10" stroke-linejoin="round"/>
<path d="M406.534 463.944L405.418 444.668" stroke="#B5B5B5" stroke-width="2" stroke-miterlimit="10" stroke-linejoin="round"/>
<path d="M410.339 466.76C410.462 468.701 408.946 470.379 406.952 470.506C404.958 470.632 403.241 469.161 403.118 467.219C402.994 465.276 404.511 463.599 406.504 463.471C408.498 463.345 410.215 464.817 410.339 466.76Z" stroke="#B5B5B5" stroke-width="2" stroke-miterlimit="10" stroke-linejoin="round"/>
<path d="M393.403 444.935L393.927 451.986L387.364 460.173L388.008 470.287" stroke="#B5B5B5" stroke-width="2" stroke-miterlimit="10" stroke-linecap="round" stroke-linejoin="round"/>
<path d="M384.539 474.038C384.662 475.98 386.379 477.452 388.373 477.326C390.367 477.198 391.883 475.521 391.759 473.578C391.636 471.636 389.919 470.165 387.925 470.291C385.931 470.418 384.415 472.096 384.539 474.038Z" stroke="#B5B5B5" stroke-width="2" stroke-miterlimit="10" stroke-linejoin="round"/>
<path d="M415.617 437.883L415.99 444.944L423.538 452.234L424.181 462.348" stroke="#B5B5B5" stroke-width="2" stroke-miterlimit="10" stroke-linecap="round" stroke-linejoin="round"/>
<path d="M428.096 465.63C428.22 467.572 426.703 469.249 424.709 469.376C422.715 469.503 420.998 468.031 420.875 466.089C420.751 464.146 422.267 462.469 424.261 462.343C426.256 462.215 427.972 463.687 428.096 465.63Z" stroke="#B5B5B5" stroke-width="2" stroke-miterlimit="10" stroke-linejoin="round"/>
<path d="M377.723 385.983L380.027 448.297C377.6 448.394 374.619 447.681 374.5 445.652L370.893 389.327C370.685 385.962 376.815 384.919 377.723 385.983Z" fill="#6B62B8"/>
<path d="M376.672 385.597L426.146 386.517C428.348 386.558 430.248 388.374 430.388 390.573L433.32 436.673C433.461 438.872 431.806 440.913 429.627 441.234L380.669 448.415C378.489 448.734 376.608 447.211 376.468 445.012L372.937 389.505C372.797 387.306 374.469 385.556 376.672 385.597Z" fill="#A782D6"/>
<path d="M386.239 394.862L387.838 438.111C386.153 438.178 384.085 437.684 384.002 436.275L381.499 397.183C381.354 394.847 385.609 394.123 386.239 394.862Z" fill="#BCB6C5"/>
<path d="M385.511 394.592L419.849 395.23C421.378 395.259 422.696 396.519 422.793 398.045L424.828 430.04C424.925 431.567 423.777 432.984 422.264 433.206L388.285 438.19C386.772 438.413 385.467 437.355 385.37 435.83L382.919 397.304C382.822 395.777 383.982 394.563 385.511 394.592Z" fill="#E3D7F3"/>
<path d="M423.008 401.386C419.571 404.542 415.724 410.428 412.762 420.861C411.207 426.336 403.374 431.965 400.649 436.375L422.265 433.206C423.778 432.985 424.927 431.568 424.831 430.041L423.008 401.386Z" fill="#BCB6C5"/>
<path opacity="0.7" d="M544.655 388.017H421.37C419.217 388.017 417.456 386.256 417.456 384.103V321.978C417.456 319.825 419.217 318.064 421.37 318.064H544.656C546.809 318.064 548.57 319.825 548.57 321.978V384.103C548.569 386.256 546.808 388.017 544.655 388.017Z" fill="white"/>
<path d="M544.655 388.017H421.37C419.217 388.017 417.456 386.256 417.456 384.103V321.978C417.456 319.825 419.217 318.064 421.37 318.064H544.656C546.809 318.064 548.57 319.825 548.57 321.978V384.103C548.569 386.256 546.808 388.017 544.655 388.017Z" stroke="#DDC3FF" stroke-miterlimit="10"/>
<g opacity="0.8">
<path d="M468.932 368.208H497.88C499.455 368.208 501.065 366.919 501.458 365.344L505.597 348.742C505.99 347.167 505.022 345.878 503.447 345.878H474.499C472.924 345.878 471.314 347.167 470.921 348.742L466.782 365.344C466.389 366.919 467.357 368.208 468.932 368.208Z" fill="#8166A2"/>
<path d="M497.093 368.208H468.145C466.57 368.208 464.96 366.919 464.567 365.344L460.428 348.742C460.035 347.167 461.003 345.878 462.578 345.878H491.526C493.101 345.878 494.711 347.167 495.104 348.742L499.243 365.344C499.636 366.919 498.668 368.208 497.093 368.208Z" fill="#A782D6"/>
</g>
<path opacity="0.7" d="M335.618 345.878H257.972C256.616 345.878 255.507 344.769 255.507 343.413V304.287C255.507 302.931 256.616 301.822 257.972 301.822H335.618C336.974 301.822 338.083 302.931 338.083 304.287V343.413C338.083 344.769 336.974 345.878 335.618 345.878Z" fill="white"/>
<path d="M335.618 345.878H257.972C256.616 345.878 255.507 344.769 255.507 343.413V304.287C255.507 302.931 256.616 301.822 257.972 301.822H335.618C336.974 301.822 338.083 302.931 338.083 304.287V343.413C338.083 344.769 336.974 345.878 335.618 345.878Z" stroke="#DDC3FF" stroke-miterlimit="10"/>
<g opacity="0.8">
<path d="M296.795 311.718L282.786 335.983H310.805L296.795 311.718Z" stroke="#B279FD" stroke-width="2.8347" stroke-miterlimit="10" stroke-linecap="round" stroke-linejoin="round"/>
<path d="M295.667 331.666C295.667 330.978 296.145 330.48 296.795 330.48C297.483 330.48 297.923 330.977 297.923 331.666C297.923 332.335 297.483 332.851 296.795 332.851C296.126 332.852 295.667 332.336 295.667 331.666ZM296.145 328.933L295.877 319.756H297.712L297.444 328.933H296.145Z" fill="#BF93FD"/>
</g>
<path opacity="0.7" d="M344.955 486.604H221.669C219.516 486.604 217.755 484.843 217.755 482.69V420.565C217.755 418.412 219.516 416.651 221.669 416.651H344.955C347.108 416.651 348.869 418.412 348.869 420.565V482.69C348.869 484.843 347.108 486.604 344.955 486.604Z" fill="white"/>
<path d="M344.955 486.604H221.669C219.516 486.604 217.755 484.843 217.755 482.69V420.565C217.755 418.412 219.516 416.651 221.669 416.651H344.955C347.108 416.651 348.869 418.412 348.869 420.565V482.69C348.869 484.843 347.108 486.604 344.955 486.604Z" stroke="#DDC3FF" stroke-miterlimit="10"/>
<g opacity="0.8">
<path d="M282.225 431.355C282.842 430.789 283.783 430.789 284.402 431.355C287.813 434.477 296.601 442.387 301.663 445.679C302.226 446.046 302.504 446.73 302.358 447.392V447.393C301.479 451.394 297.866 462.807 284.208 472.053C283.706 472.393 283.041 472.414 282.52 472.117L282.417 472.053L281.784 471.618C268.647 462.452 265.133 451.329 264.267 447.392C264.121 446.73 264.399 446.046 264.963 445.679C270.025 442.387 278.815 434.477 282.225 431.355Z" fill="#B279FD" stroke="#B279FD"/>
<path d="M282.352 433.204C282.864 432.736 283.626 432.707 284.167 433.116L284.272 433.204C287.376 436.044 295.381 443.249 299.993 446.25H299.994C300.491 446.572 300.736 447.176 300.607 447.761C299.82 451.339 296.627 461.453 284.678 469.79L284.102 470.185C283.66 470.484 283.072 470.503 282.612 470.241L282.522 470.185C270.876 462.302 267.263 452.685 266.198 448.52L266.017 447.761L265.997 447.652C265.919 447.102 266.164 446.553 266.631 446.25C270.668 443.624 277.301 437.781 280.975 434.458L282.352 433.204Z" fill="white" stroke="#B279FD"/>
<path d="M283.812 432.92C283.978 432.982 284.134 433.077 284.272 433.204C287.376 436.045 295.382 443.249 299.994 446.249C300.492 446.573 300.737 447.178 300.608 447.762C300.407 448.678 300.035 450.035 299.407 451.675H283.812V432.92Z" fill="#B279FD" stroke="#B279FD"/>
<path d="M282.814 452.676V470.334C282.712 470.296 282.614 470.247 282.523 470.186C273.852 464.316 269.646 457.498 267.619 452.676H282.814Z" fill="#B279FD" stroke="#B279FD"/>
</g>
<path opacity="0.7" d="M549.164 482.723H459.151C457.579 482.723 456.293 481.437 456.293 479.865V434.507C456.293 432.935 457.579 431.649 459.151 431.649H549.164C550.736 431.649 552.022 432.935 552.022 434.507V479.865C552.021 481.437 550.735 482.723 549.164 482.723Z" fill="white"/>
<path d="M549.164 482.723H459.151C457.579 482.723 456.293 481.437 456.293 479.865V434.507C456.293 432.935 457.579 431.649 459.151 431.649H549.164C550.736 431.649 552.022 432.935 552.022 434.507V479.865C552.021 481.437 550.735 482.723 549.164 482.723Z" stroke="#DDC3FF" stroke-miterlimit="10"/>
<path d="M519.642 454.975L518.349 454.617L519.516 453.956C519.665 453.871 519.718 453.68 519.634 453.531L514.549 444.55C514.464 444.401 514.273 444.348 514.124 444.432L512.956 445.093L513.314 443.8C513.36 443.635 513.262 443.462 513.097 443.416L503.151 440.661C502.986 440.615 502.813 440.713 502.767 440.878L502.409 442.171L501.748 441.004C501.663 440.855 501.472 440.802 501.323 440.886L492.342 445.971C492.193 446.056 492.139 446.247 492.224 446.397L492.885 447.564L491.592 447.206C491.427 447.16 491.254 447.258 491.208 447.423L488.453 457.369C488.407 457.534 488.505 457.707 488.67 457.753L489.963 458.111L488.796 458.772C488.646 458.856 488.594 459.048 488.678 459.197L493.763 468.178C493.848 468.327 494.039 468.381 494.188 468.296L495.355 467.635L494.997 468.928C494.951 469.093 495.049 469.266 495.214 469.312L505.16 472.067C505.325 472.113 505.498 472.015 505.544 471.85L505.902 470.557L506.563 471.725C506.648 471.874 506.839 471.927 506.989 471.843L515.97 466.758C516.119 466.674 516.172 466.482 516.088 466.333L515.427 465.166L516.72 465.524C516.885 465.57 517.058 465.472 517.104 465.307L519.859 455.361C519.906 455.194 519.808 455.021 519.642 454.975ZM501.97 464.262C497.608 463.054 495.052 458.539 496.26 454.177C497.468 449.815 501.983 447.259 506.345 448.467C510.707 449.675 513.263 454.19 512.055 458.552C510.846 462.913 506.331 465.47 501.97 464.262Z" fill="#A782D6"/>
<path d="M452.759 469.379C452.991 468.484 453.427 467.481 454.323 467.254C455.531 466.948 456.532 468.29 456.774 469.513C457.016 470.736 456.926 472.101 457.674 473.099C458.563 472.421 459.948 472.514 460.739 473.303C461.53 474.093 461.624 475.478 460.948 476.368C460.848 476.499 460.732 476.626 460.694 476.786C460.558 477.368 461.402 477.58 461.962 477.791C463.029 478.193 463.534 479.517 463.298 480.633C463.062 481.749 462.25 482.66 461.346 483.354C458.164 485.797 455.551 484.132 454.032 481.079C452.249 477.495 451.753 473.264 452.759 469.379Z" fill="#A05E47"/>
<path d="M548.104 463.35C548.263 462.952 548.52 462.576 548.894 462.366C549.746 461.889 550.903 462.513 551.24 463.429C551.387 463.828 551.552 464.375 551.976 464.349C552.742 462.417 551.733 460.182 552.251 458.169C552.39 457.627 552.712 457.054 553.26 456.938C553.845 456.814 554.397 457.273 554.724 457.775C555.331 458.709 555.507 459.846 555.741 460.935C555.793 461.176 555.857 461.433 556.043 461.595C556.215 461.745 556.455 461.782 556.672 461.851C557.276 462.044 557.772 462.547 557.957 463.154C558.031 463.399 558.057 463.655 558.118 463.904C558.427 465.162 559.574 466.04 560.09 467.229C560.525 468.232 560.474 469.393 560.169 470.444C559.864 471.494 559.323 472.458 558.786 473.411C558.663 473.629 558.523 473.863 558.291 473.957C558.127 474.023 557.943 474.008 557.768 473.984C557.131 473.894 556.515 473.69 555.914 473.459C554.087 472.755 552.363 471.783 550.815 470.583C548.899 469.099 547.116 465.826 548.104 463.35Z" fill="#A05E47"/>
<path d="M548.632 467.579C537.04 487.971 521.725 490.656 520.944 490.78C517.277 491.306 514.712 494.69 515.206 498.37C515.469 500.332 516.55 501.982 518.058 503.026C519.394 503.951 521.065 504.4 522.803 504.166C523.713 504.044 545.254 500.866 560.381 474.259C556.233 470.402 548.632 467.579 548.632 467.579Z" fill="#2481D3"/>
<path d="M520.944 490.779C517.277 491.305 514.712 494.689 515.206 498.369C515.469 500.331 516.55 501.981 518.058 503.025C519.394 503.95 521.065 504.399 522.803 504.165C523.205 504.111 527.638 503.456 533.763 500.452C528.716 494.799 527.951 490.151 527.868 488.345C523.978 490.256 521.261 490.729 520.944 490.779Z" fill="#1C74B5"/>
<path d="M481.137 600.688V604.028C481.137 604.028 467.831 606.617 455.793 604.028L461.277 600.688H481.137Z" fill="#171C27"/>
<path d="M565.581 580.746H569.207C569.207 580.746 571.538 593.746 569.207 599.366C569.207 599.366 567.562 601.765 564.135 601.422C564.135 601.422 566.136 600.015 565.581 597.429V580.746Z" fill="#171C27"/>
<path d="M528.248 547.603L528.811 578.7L565.581 580.746C565.581 580.746 567.987 592.297 565.581 597.429H528.811C528.811 597.429 509.933 600.809 508.889 582.691C507.845 564.573 507.756 552.532 507.756 552.532C507.756 552.532 520.585 546.055 528.248 547.603Z" fill="#062538"/>
<path d="M528.836 543.028C528.836 543.028 533.137 556.8 525.122 559.717C517.108 562.634 479.47 559.717 479.47 559.717L481.137 600.688C481.137 600.688 470.443 604.021 461.276 600.688L460.026 552.495C460.026 552.495 457.064 538.701 483.914 540.961L528.836 543.028Z" fill="#0A3759"/>
<path d="M519.722 477.357L519.141 488.481L513.772 492.881L508.952 489.587L509.301 482.897L519.722 477.357Z" fill="#A05E47"/>
<path d="M511.185 487.08L508.318 486.931C503.913 486.701 500.498 482.91 500.727 478.505L501.3 467.521C501.53 463.117 505.321 459.701 509.725 459.931L512.592 460.08C516.997 460.31 520.413 464.101 520.183 468.506L519.61 479.49C519.381 483.894 515.589 487.309 511.185 487.08Z" fill="#A05E47"/>
<path d="M510.374 481.887C509.012 480.326 508.463 478.236 507.967 476.225C507.886 475.896 507.805 475.551 507.89 475.223C507.975 474.9 508.208 474.641 508.419 474.382C508.93 473.753 509.359 473.006 509.377 472.196C509.395 471.386 508.892 470.524 508.1 470.353C507.169 470.152 506.268 470.979 506.032 471.902C505.796 472.825 506.043 473.794 506.289 474.714C505.346 475.124 504.371 474.025 504.283 473C504.195 471.975 504.589 470.951 504.483 469.928C504.312 468.271 502.925 467.055 501.931 465.719C500.937 464.383 500.4 462.255 501.704 461.219C502.244 460.791 502.966 460.679 503.575 460.358C504.605 459.815 505.236 458.719 506.217 458.091C506.906 457.65 507.726 457.466 508.535 457.345C513.395 456.619 518.976 458.356 521.276 462.698C523.011 465.974 522.569 469.926 522.081 473.601C521.673 476.674 521.713 481.586 518.621 483.227C515.998 484.619 512.363 484.166 510.374 481.887Z" fill="#171C27"/>
<path d="M518.816 487.943C518.816 487.943 529.613 487.943 528.793 499.556C527.973 511.169 526.47 518.074 527.836 525.608C529.203 533.141 528.837 543.028 528.837 543.028C528.837 543.028 506.516 550.339 494.353 542.335C494.353 542.335 496.13 504.578 496.54 498.771C496.95 492.964 502.408 487.884 511.026 487.942C519.644 488 519.644 488 519.644 488" fill="#2481D3"/>
<path d="M510.303 542.56C521.119 542.56 528.867 538.683 528.977 538.626C529.081 538.573 529.122 538.444 529.069 538.341C529.015 538.237 528.884 538.196 528.784 538.249C528.627 538.329 512.843 546.218 494.879 539.292C494.769 539.25 494.647 539.304 494.605 539.413C494.563 539.523 494.618 539.646 494.727 539.686C500.25 541.817 505.571 542.56 510.303 542.56Z" fill="#8A38F5"/>
<path d="M528.67 533.158C528.673 533.158 528.676 533.158 528.679 533.158C528.796 533.152 528.887 533.054 528.882 532.937C528.716 529.181 528.05 525.605 528.043 525.569C527.066 520.184 527.554 515.229 528.228 508.372C528.483 505.779 528.773 502.839 529.004 499.572C529.012 499.455 528.923 499.354 528.806 499.345C528.711 499.34 528.588 499.424 528.579 499.542C528.349 502.802 528.06 505.739 527.805 508.33C527.152 514.962 526.636 520.201 527.624 525.646C527.631 525.682 528.292 529.231 528.456 532.954C528.463 533.068 528.557 533.158 528.67 533.158Z" fill="#8A38F5"/>
<path d="M527.816 543.218C527.933 543.218 528.028 543.123 528.028 543.006V540.043C528.028 539.926 527.933 539.831 527.816 539.831C527.699 539.831 527.604 539.926 527.604 540.043V543.006C527.604 543.123 527.699 543.218 527.816 543.218Z" fill="#8A38F5"/>
<path d="M526.418 543.053C526.535 543.053 526.63 542.958 526.63 542.841V540.742C526.63 540.625 526.535 540.53 526.418 540.53C526.301 540.53 526.206 540.625 526.206 540.742V542.841C526.206 542.958 526.301 543.053 526.418 543.053Z" fill="#8A38F5"/>
<path d="M524.911 543.806C525.028 543.806 525.123 543.711 525.123 543.594V541.172C525.123 541.055 525.028 540.96 524.911 540.96C524.794 540.96 524.699 541.055 524.699 541.172V543.594C524.699 543.711 524.794 543.806 524.911 543.806Z" fill="#8A38F5"/>
<path d="M523.136 544.131C523.253 544.131 523.348 544.036 523.348 543.919V541.98C523.348 541.863 523.253 541.768 523.136 541.768C523.019 541.768 522.924 541.863 522.924 541.98V543.919C522.924 544.036 523.019 544.131 523.136 544.131Z" fill="#8A38F5"/>
<path d="M521.523 544.511C521.64 544.511 521.735 544.416 521.735 544.299V542.14C521.735 542.023 521.64 541.928 521.523 541.928C521.406 541.928 521.311 542.023 521.311 542.14V544.299C521.311 544.416 521.406 544.511 521.523 544.511Z" fill="#8A38F5"/>
<path d="M519.962 544.897C520.079 544.897 520.174 544.802 520.174 544.685V542.518C520.174 542.401 520.079 542.306 519.962 542.306C519.845 542.306 519.75 542.401 519.75 542.518V544.685C519.75 544.802 519.845 544.897 519.962 544.897Z" fill="#8A38F5"/>
<path d="M518.134 544.887C518.251 544.887 518.346 544.792 518.346 544.675V542.625C518.346 542.508 518.251 542.413 518.134 542.413C518.017 542.413 517.922 542.508 517.922 542.625V544.675C517.921 544.792 518.017 544.887 518.134 544.887Z" fill="#8A38F5"/>
<path d="M516.574 544.989C516.691 544.989 516.786 544.894 516.786 544.777V543.002C516.786 542.885 516.691 542.79 516.574 542.79C516.457 542.79 516.362 542.885 516.362 543.002V544.777C516.362 544.894 516.457 544.989 516.574 544.989Z" fill="#8A38F5"/>
<path d="M515.175 545.543C515.292 545.543 515.387 545.448 515.387 545.331V543.216C515.387 543.099 515.292 543.004 515.175 543.004C515.058 543.004 514.963 543.099 514.963 543.216V545.331C514.963 545.449 515.058 545.543 515.175 545.543Z" fill="#8A38F5"/>
<path d="M513.294 545.152C513.411 545.152 513.506 545.057 513.506 544.94V543.593C513.506 543.476 513.411 543.381 513.294 543.381C513.177 543.381 513.082 543.476 513.082 543.593V544.94C513.082 545.056 513.177 545.152 513.294 545.152Z" fill="#8A38F5"/>
<path d="M512.002 545.582C512.119 545.582 512.214 545.487 512.214 545.37V543.701C512.214 543.584 512.119 543.489 512.002 543.489C511.885 543.489 511.79 543.584 511.79 543.701V545.37C511.79 545.487 511.885 545.582 512.002 545.582Z" fill="#8A38F5"/>
<path d="M510.765 545.753C510.882 545.753 510.977 545.658 510.977 545.541V543.432C510.977 543.315 510.882 543.22 510.765 543.22C510.648 543.22 510.553 543.315 510.553 543.432V545.541C510.553 545.658 510.648 545.753 510.765 545.753Z" fill="#8A38F5"/>
<path d="M509.421 545.82C509.538 545.82 509.633 545.725 509.633 545.608V543.432C509.633 543.315 509.538 543.22 509.421 543.22C509.304 543.22 509.208 543.315 509.208 543.432V545.608C509.208 545.725 509.304 545.82 509.421 545.82Z" fill="#8A38F5"/>
<path d="M507.968 545.373C508.085 545.373 508.18 545.278 508.18 545.161V543.432C508.18 543.315 508.085 543.22 507.968 543.22C507.851 543.22 507.756 543.315 507.756 543.432V545.161C507.756 545.277 507.851 545.373 507.968 545.373Z" fill="#8A38F5"/>
<path d="M506.569 545.152C506.686 545.152 506.781 545.057 506.781 544.94V543.432C506.781 543.315 506.686 543.22 506.569 543.22C506.452 543.22 506.357 543.315 506.357 543.432V544.94C506.357 545.056 506.452 545.152 506.569 545.152Z" fill="#8A38F5"/>
<path d="M504.901 545.543C505.018 545.543 505.113 545.448 505.113 545.331V543.27C505.113 543.153 505.018 543.058 504.901 543.058C504.784 543.058 504.689 543.153 504.689 543.27V545.331C504.689 545.449 504.784 545.543 504.901 545.543Z" fill="#8A38F5"/>
<path d="M503.342 545.182C503.459 545.182 503.554 545.087 503.554 544.97V542.732C503.554 542.615 503.459 542.52 503.342 542.52C503.225 542.52 503.13 542.615 503.13 542.732V544.97C503.13 545.087 503.225 545.182 503.342 545.182Z" fill="#8A38F5"/>
<path d="M502.159 544.82C502.276 544.82 502.371 544.725 502.371 544.608V542.572C502.371 542.455 502.276 542.36 502.159 542.36C502.042 542.36 501.947 542.455 501.947 542.572V544.608C501.946 544.725 502.042 544.82 502.159 544.82Z" fill="#8A38F5"/>
<path d="M500.652 544.618C500.769 544.618 500.864 544.523 500.864 544.406V542.195C500.864 542.078 500.769 541.983 500.652 541.983C500.535 541.983 500.44 542.078 500.44 542.195V544.406C500.44 544.523 500.535 544.618 500.652 544.618Z" fill="#8A38F5"/>
<path d="M499.362 544.296C499.479 544.296 499.574 544.201 499.574 544.084V541.925C499.574 541.808 499.479 541.713 499.362 541.713C499.245 541.713 499.15 541.808 499.15 541.925V544.084C499.15 544.201 499.245 544.296 499.362 544.296Z" fill="#8A38F5"/>
<path d="M497.856 543.916C497.973 543.916 498.068 543.821 498.068 543.704V541.765C498.068 541.648 497.973 541.553 497.856 541.553C497.739 541.553 497.644 541.648 497.644 541.765V543.704C497.644 543.821 497.739 543.916 497.856 543.916Z" fill="#8A38F5"/>
<path d="M496.403 543.107C496.52 543.107 496.615 543.012 496.615 542.895V540.903C496.615 540.786 496.52 540.691 496.403 540.691C496.286 540.691 496.191 540.786 496.191 540.903V542.895C496.191 543.012 496.286 543.107 496.403 543.107Z" fill="#8A38F5"/>
<path d="M495.327 542.733C495.444 542.733 495.539 542.638 495.539 542.521V540.419C495.539 540.302 495.444 540.207 495.327 540.207C495.21 540.207 495.115 540.302 495.115 540.419V542.521C495.115 542.638 495.21 542.733 495.327 542.733Z" fill="#8A38F5"/>
<path d="M510.88 493.121C509.074 489.855 504.957 488.671 501.697 490.478C500.903 490.915 482.004 500.969 465.614 475.869C460.179 477.052 454.299 483.257 454.299 483.257C471.524 509.635 494.18 508.476 505.771 503.506C506.661 503.124 507.486 502.72 508.238 502.304C511.503 500.499 512.686 496.388 510.88 493.121Z" fill="#2481D3"/>
<path d="M496.127 506.053C496.127 506.053 499.148 505.807 501.919 504.876L495.752 513.412L496.127 506.053Z" fill="#1C74B5"/>
<path d="M210.391 642.429L206.453 665.179H204.625L195.281 645.663L191.891 665.179H190L193.922 642.429H195.75L205.125 661.944L208.516 642.429H210.391ZM212.078 657.038L212.156 656.522C212.312 655.418 212.615 654.351 213.062 653.319C213.51 652.288 214.094 651.371 214.812 650.569C215.542 649.757 216.396 649.116 217.375 648.647C218.354 648.179 219.443 647.95 220.641 647.96C221.828 647.97 222.839 648.22 223.672 648.71C224.505 649.189 225.172 649.835 225.672 650.647C226.182 651.46 226.531 652.371 226.719 653.382C226.906 654.382 226.938 655.408 226.812 656.46L226.75 656.976C226.594 658.08 226.286 659.142 225.828 660.163C225.38 661.184 224.792 662.101 224.062 662.913C223.344 663.715 222.495 664.351 221.516 664.819C220.536 665.278 219.448 665.502 218.25 665.491C217.073 665.481 216.062 665.236 215.219 664.757C214.385 664.267 213.719 663.621 213.219 662.819C212.719 662.007 212.375 661.101 212.188 660.101C212 659.101 211.964 658.08 212.078 657.038ZM213.984 656.522L213.922 657.038C213.818 657.819 213.812 658.611 213.906 659.413C214 660.215 214.214 660.955 214.547 661.632C214.891 662.299 215.37 662.84 215.984 663.257C216.599 663.674 217.37 663.887 218.297 663.897C219.245 663.908 220.099 663.715 220.859 663.319C221.62 662.924 222.276 662.392 222.828 661.726C223.391 661.049 223.844 660.299 224.188 659.476C224.531 658.642 224.771 657.809 224.906 656.976L224.969 656.46C225.073 655.689 225.073 654.903 224.969 654.101C224.875 653.288 224.661 652.543 224.328 651.866C223.995 651.189 223.521 650.642 222.906 650.226C222.292 649.799 221.521 649.58 220.594 649.569C219.646 649.549 218.792 649.741 218.031 650.147C217.271 650.543 216.615 651.08 216.062 651.757C215.51 652.434 215.057 653.189 214.703 654.022C214.359 654.845 214.12 655.679 213.984 656.522ZM240.922 651.601L237.453 671.679H235.609L239.656 648.272H241.375L240.922 651.601ZM251.453 656.522L251.406 656.851C251.25 657.851 250.984 658.861 250.609 659.882C250.245 660.903 249.755 661.84 249.141 662.694C248.526 663.549 247.776 664.236 246.891 664.757C246.016 665.267 244.99 665.512 243.812 665.491C242.938 665.491 242.141 665.325 241.422 664.991C240.703 664.647 240.094 664.184 239.594 663.601C239.094 663.007 238.719 662.325 238.469 661.554C238.219 660.783 238.12 659.965 238.172 659.101L238.859 654.788C239.068 653.882 239.396 653.017 239.844 652.194C240.292 651.371 240.844 650.637 241.5 649.991C242.167 649.345 242.917 648.845 243.75 648.491C244.594 648.127 245.5 647.95 246.469 647.96C247.635 647.97 248.578 648.241 249.297 648.772C250.016 649.304 250.552 649.996 250.906 650.851C251.26 651.705 251.469 652.632 251.531 653.632C251.604 654.621 251.578 655.585 251.453 656.522ZM249.562 656.851L249.609 656.507C249.714 655.799 249.755 655.049 249.734 654.257C249.714 653.455 249.583 652.705 249.344 652.007C249.115 651.309 248.734 650.736 248.203 650.288C247.672 649.83 246.938 649.595 246 649.585C245.292 649.575 244.609 649.7 243.953 649.96C243.307 650.21 242.714 650.559 242.172 651.007C241.63 651.455 241.161 651.976 240.766 652.569C240.38 653.163 240.099 653.799 239.922 654.476L239.047 659.491C239.016 660.335 239.203 661.09 239.609 661.757C240.016 662.413 240.557 662.934 241.234 663.319C241.922 663.694 242.667 663.887 243.469 663.897C244.427 663.908 245.255 663.705 245.953 663.288C246.661 662.861 247.255 662.299 247.734 661.601C248.224 660.892 248.615 660.127 248.906 659.304C249.208 658.47 249.427 657.653 249.562 656.851ZM258.234 651.132L255.812 665.179H253.984L256.906 648.272H258.688L258.234 651.132ZM264.5 648.147L264.266 649.851C264.078 649.819 263.885 649.793 263.688 649.772C263.49 649.752 263.292 649.741 263.094 649.741C262.25 649.731 261.5 649.887 260.844 650.21C260.198 650.533 259.63 650.97 259.141 651.522C258.661 652.075 258.26 652.7 257.938 653.397C257.615 654.085 257.365 654.793 257.188 655.522L256.453 655.788C256.609 654.882 256.844 653.965 257.156 653.038C257.479 652.111 257.906 651.262 258.438 650.491C258.979 649.71 259.641 649.085 260.422 648.616C261.214 648.147 262.151 647.924 263.234 647.944C263.453 647.944 263.667 647.965 263.875 648.007C264.083 648.038 264.292 648.085 264.5 648.147ZM264.547 657.038L264.625 656.522C264.781 655.418 265.083 654.351 265.531 653.319C265.979 652.288 266.562 651.371 267.281 650.569C268.01 649.757 268.865 649.116 269.844 648.647C270.823 648.179 271.911 647.95 273.109 647.96C274.297 647.97 275.307 648.22 276.141 648.71C276.974 649.189 277.641 649.835 278.141 650.647C278.651 651.46 279 652.371 279.188 653.382C279.375 654.382 279.406 655.408 279.281 656.46L279.219 656.976C279.062 658.08 278.755 659.142 278.297 660.163C277.849 661.184 277.26 662.101 276.531 662.913C275.812 663.715 274.964 664.351 273.984 664.819C273.005 665.278 271.917 665.502 270.719 665.491C269.542 665.481 268.531 665.236 267.688 664.757C266.854 664.267 266.188 663.621 265.688 662.819C265.188 662.007 264.844 661.101 264.656 660.101C264.469 659.101 264.432 658.08 264.547 657.038ZM266.453 656.522L266.391 657.038C266.286 657.819 266.281 658.611 266.375 659.413C266.469 660.215 266.682 660.955 267.016 661.632C267.359 662.299 267.839 662.84 268.453 663.257C269.068 663.674 269.839 663.887 270.766 663.897C271.714 663.908 272.568 663.715 273.328 663.319C274.089 662.924 274.745 662.392 275.297 661.726C275.859 661.049 276.312 660.299 276.656 659.476C277 658.642 277.24 657.809 277.375 656.976L277.438 656.46C277.542 655.689 277.542 654.903 277.438 654.101C277.344 653.288 277.13 652.543 276.797 651.866C276.464 651.189 275.99 650.642 275.375 650.226C274.76 649.799 273.99 649.58 273.062 649.569C272.115 649.549 271.26 649.741 270.5 650.147C269.74 650.543 269.083 651.08 268.531 651.757C267.979 652.434 267.526 653.189 267.172 654.022C266.828 654.845 266.589 655.679 266.453 656.522ZM292.75 661.819L296.328 641.179H298.156L294 665.179H292.297L292.75 661.819ZM282.219 656.96L282.266 656.632C282.422 655.611 282.688 654.59 283.062 653.569C283.438 652.538 283.938 651.595 284.562 650.741C285.188 649.887 285.943 649.205 286.828 648.694C287.724 648.184 288.76 647.939 289.938 647.96C290.865 647.97 291.677 648.168 292.375 648.554C293.073 648.929 293.651 649.439 294.109 650.085C294.578 650.731 294.917 651.46 295.125 652.272C295.344 653.075 295.427 653.908 295.375 654.772L294.703 658.944C294.516 659.84 294.198 660.684 293.75 661.476C293.302 662.267 292.75 662.97 292.094 663.585C291.448 664.189 290.708 664.663 289.875 665.007C289.052 665.351 288.167 665.512 287.219 665.491C286.083 665.481 285.156 665.205 284.438 664.663C283.729 664.121 283.193 663.424 282.828 662.569C282.464 661.715 282.24 660.793 282.156 659.804C282.083 658.814 282.104 657.866 282.219 656.96ZM284.141 656.616L284.094 656.944C283.99 657.653 283.943 658.403 283.953 659.194C283.964 659.986 284.078 660.736 284.297 661.444C284.526 662.142 284.906 662.715 285.438 663.163C285.969 663.611 286.693 663.845 287.609 663.866C288.516 663.877 289.38 663.689 290.203 663.304C291.026 662.908 291.745 662.366 292.359 661.679C292.984 660.991 293.422 660.215 293.672 659.351L294.516 654.476C294.557 653.819 294.479 653.2 294.281 652.616C294.094 652.033 293.807 651.517 293.422 651.069C293.036 650.621 292.568 650.267 292.016 650.007C291.474 649.736 290.87 649.601 290.203 649.601C289.255 649.58 288.427 649.783 287.719 650.21C287.021 650.627 286.427 651.184 285.938 651.882C285.448 652.569 285.057 653.33 284.766 654.163C284.474 654.986 284.266 655.804 284.141 656.616ZM309.969 661.194L312.188 648.272H314.031L311.109 665.179H309.344L309.969 661.194ZM310.797 658.147L311.734 658.116C311.578 659.137 311.307 660.101 310.922 661.007C310.547 661.903 310.052 662.689 309.438 663.366C308.823 664.043 308.083 664.575 307.219 664.96C306.354 665.335 305.359 665.512 304.234 665.491C303.286 665.481 302.5 665.304 301.875 664.96C301.25 664.616 300.766 664.147 300.422 663.554C300.078 662.95 299.859 662.267 299.766 661.507C299.672 660.736 299.677 659.929 299.781 659.085L301.625 648.272H303.453L301.609 659.132C301.526 659.715 301.5 660.288 301.531 660.851C301.573 661.403 301.693 661.903 301.891 662.351C302.099 662.799 302.411 663.158 302.828 663.429C303.255 663.7 303.812 663.84 304.5 663.851C305.698 663.871 306.729 663.637 307.594 663.147C308.458 662.647 309.156 661.965 309.688 661.101C310.229 660.236 310.599 659.252 310.797 658.147ZM322.203 663.897C323.036 663.897 323.807 663.736 324.516 663.413C325.224 663.09 325.823 662.632 326.312 662.038C326.812 661.444 327.172 660.752 327.391 659.96H329.156C328.948 661.064 328.5 662.033 327.812 662.866C327.125 663.7 326.286 664.351 325.297 664.819C324.318 665.278 323.271 665.502 322.156 665.491C320.969 665.481 319.974 665.231 319.172 664.741C318.37 664.252 317.74 663.606 317.281 662.804C316.823 661.991 316.516 661.09 316.359 660.101C316.214 659.101 316.208 658.09 316.344 657.069L316.422 656.413C316.568 655.33 316.849 654.283 317.266 653.272C317.682 652.252 318.229 651.34 318.906 650.538C319.594 649.736 320.411 649.106 321.359 648.647C322.307 648.179 323.375 647.95 324.562 647.96C325.74 647.97 326.75 648.241 327.594 648.772C328.438 649.293 329.078 650.007 329.516 650.913C329.964 651.809 330.167 652.83 330.125 653.976L328.391 653.96C328.422 653.147 328.292 652.413 328 651.757C327.719 651.09 327.281 650.564 326.688 650.179C326.094 649.783 325.37 649.575 324.516 649.554C323.547 649.543 322.698 649.736 321.969 650.132C321.25 650.517 320.635 651.043 320.125 651.71C319.615 652.377 319.203 653.116 318.891 653.929C318.578 654.741 318.359 655.569 318.234 656.413L318.141 657.069C318.047 657.84 318.026 658.627 318.078 659.429C318.141 660.22 318.312 660.955 318.594 661.632C318.885 662.299 319.323 662.84 319.906 663.257C320.49 663.663 321.255 663.877 322.203 663.897ZM340.969 648.272L340.719 649.804H332.469L332.734 648.272H340.969ZM336.5 643.929H338.328L335.391 661.085C335.328 661.533 335.312 661.965 335.344 662.382C335.385 662.799 335.526 663.142 335.766 663.413C336.005 663.674 336.396 663.809 336.938 663.819C337.198 663.819 337.453 663.804 337.703 663.772C337.964 663.731 338.219 663.694 338.469 663.663L338.391 665.257C338.078 665.34 337.766 665.397 337.453 665.429C337.141 665.47 336.823 665.486 336.5 665.476C335.625 665.465 334.964 665.252 334.516 664.835C334.068 664.418 333.776 663.877 333.641 663.21C333.505 662.533 333.49 661.814 333.594 661.054L336.5 643.929ZM352.5 660.819C352.625 660.069 352.495 659.465 352.109 659.007C351.724 658.538 351.219 658.179 350.594 657.929C349.969 657.668 349.359 657.465 348.766 657.319C348.141 657.163 347.51 656.976 346.875 656.757C346.25 656.528 345.682 656.241 345.172 655.897C344.661 655.543 344.266 655.101 343.984 654.569C343.703 654.038 343.599 653.387 343.672 652.616C343.745 651.835 343.979 651.153 344.375 650.569C344.781 649.986 345.286 649.502 345.891 649.116C346.505 648.72 347.167 648.429 347.875 648.241C348.594 648.054 349.307 647.96 350.016 647.96C351.047 647.97 351.984 648.168 352.828 648.554C353.682 648.939 354.349 649.507 354.828 650.257C355.318 650.996 355.526 651.918 355.453 653.022L353.641 653.007C353.703 652.267 353.568 651.647 353.234 651.147C352.911 650.637 352.458 650.252 351.875 649.991C351.302 649.72 350.667 649.58 349.969 649.569C349.323 649.569 348.677 649.674 348.031 649.882C347.396 650.09 346.844 650.413 346.375 650.851C345.906 651.288 345.615 651.856 345.5 652.554C345.406 653.106 345.464 653.569 345.672 653.944C345.891 654.309 346.198 654.606 346.594 654.835C347 655.064 347.438 655.252 347.906 655.397C348.375 655.543 348.818 655.674 349.234 655.788C350.089 656.017 350.927 656.314 351.75 656.679C352.573 657.043 353.229 657.549 353.719 658.194C354.219 658.83 354.417 659.668 354.312 660.71C354.24 661.543 353.995 662.262 353.578 662.866C353.161 663.47 352.635 663.97 352 664.366C351.365 664.752 350.672 665.033 349.922 665.21C349.172 665.397 348.427 665.491 347.688 665.491C346.667 665.481 345.698 665.288 344.781 664.913C343.875 664.538 343.146 663.976 342.594 663.226C342.042 662.476 341.802 661.538 341.875 660.413L343.703 660.429C343.682 661.22 343.854 661.871 344.219 662.382C344.583 662.892 345.073 663.267 345.688 663.507C346.312 663.746 346.99 663.871 347.719 663.882C348.375 663.882 349.047 663.778 349.734 663.569C350.422 663.361 351.021 663.033 351.531 662.585C352.052 662.137 352.375 661.549 352.5 660.819ZM375.797 662.147L377.25 653.413C377.365 652.611 377.292 651.924 377.031 651.351C376.781 650.767 376.375 650.325 375.812 650.022C375.26 649.71 374.578 649.549 373.766 649.538C373.047 649.528 372.339 649.653 371.641 649.913C370.943 650.174 370.333 650.554 369.812 651.054C369.302 651.554 368.964 652.179 368.797 652.929L366.969 652.913C367.083 652.111 367.365 651.403 367.812 650.788C368.26 650.163 368.812 649.642 369.469 649.226C370.135 648.799 370.854 648.481 371.625 648.272C372.396 648.054 373.156 647.95 373.906 647.96C375.021 647.96 375.99 648.184 376.812 648.632C377.635 649.069 378.25 649.7 378.656 650.522C379.073 651.335 379.208 652.314 379.062 653.46L377.688 661.632C377.594 662.184 377.531 662.746 377.5 663.319C377.469 663.882 377.51 664.434 377.625 664.976L377.609 665.179H375.703C375.63 664.679 375.604 664.174 375.625 663.663C375.656 663.153 375.714 662.647 375.797 662.147ZM377.375 655.335L377.172 656.772H373.719C373.073 656.772 372.391 656.83 371.672 656.944C370.953 657.059 370.266 657.257 369.609 657.538C368.953 657.819 368.396 658.21 367.938 658.71C367.479 659.2 367.188 659.825 367.062 660.585C366.958 661.241 367.031 661.814 367.281 662.304C367.542 662.783 367.922 663.158 368.422 663.429C368.922 663.689 369.484 663.825 370.109 663.835C371.026 663.845 371.896 663.679 372.719 663.335C373.542 662.981 374.276 662.491 374.922 661.866C375.568 661.241 376.073 660.512 376.438 659.679L377.078 660.772C376.797 661.481 376.401 662.132 375.891 662.726C375.391 663.309 374.818 663.809 374.172 664.226C373.526 664.632 372.833 664.95 372.094 665.179C371.354 665.397 370.604 665.507 369.844 665.507C368.917 665.486 368.083 665.283 367.344 664.897C366.615 664.512 366.047 663.965 365.641 663.257C365.234 662.549 365.083 661.715 365.188 660.757C365.302 659.736 365.625 658.882 366.156 658.194C366.698 657.496 367.37 656.939 368.172 656.522C368.974 656.106 369.839 655.804 370.766 655.616C371.693 655.429 372.594 655.335 373.469 655.335H377.375ZM393.156 661.819L396.734 641.179H398.562L394.406 665.179H392.703L393.156 661.819ZM382.625 656.96L382.672 656.632C382.828 655.611 383.094 654.59 383.469 653.569C383.844 652.538 384.344 651.595 384.969 650.741C385.594 649.887 386.349 649.205 387.234 648.694C388.13 648.184 389.167 647.939 390.344 647.96C391.271 647.97 392.083 648.168 392.781 648.554C393.479 648.929 394.057 649.439 394.516 650.085C394.984 650.731 395.323 651.46 395.531 652.272C395.75 653.075 395.833 653.908 395.781 654.772L395.109 658.944C394.922 659.84 394.604 660.684 394.156 661.476C393.708 662.267 393.156 662.97 392.5 663.585C391.854 664.189 391.115 664.663 390.281 665.007C389.458 665.351 388.573 665.512 387.625 665.491C386.49 665.481 385.562 665.205 384.844 664.663C384.135 664.121 383.599 663.424 383.234 662.569C382.87 661.715 382.646 660.793 382.562 659.804C382.49 658.814 382.51 657.866 382.625 656.96ZM384.547 656.616L384.5 656.944C384.396 657.653 384.349 658.403 384.359 659.194C384.37 659.986 384.484 660.736 384.703 661.444C384.932 662.142 385.312 662.715 385.844 663.163C386.375 663.611 387.099 663.845 388.016 663.866C388.922 663.877 389.786 663.689 390.609 663.304C391.432 662.908 392.151 662.366 392.766 661.679C393.391 660.991 393.828 660.215 394.078 659.351L394.922 654.476C394.964 653.819 394.885 653.2 394.688 652.616C394.5 652.033 394.214 651.517 393.828 651.069C393.443 650.621 392.974 650.267 392.422 650.007C391.88 649.736 391.276 649.601 390.609 649.601C389.661 649.58 388.833 649.783 388.125 650.21C387.427 650.627 386.833 651.184 386.344 651.882C385.854 652.569 385.464 653.33 385.172 654.163C384.88 654.986 384.672 655.804 384.547 656.616ZM410.406 661.819L413.984 641.179H415.812L411.656 665.179H409.953L410.406 661.819ZM399.875 656.96L399.922 656.632C400.078 655.611 400.344 654.59 400.719 653.569C401.094 652.538 401.594 651.595 402.219 650.741C402.844 649.887 403.599 649.205 404.484 648.694C405.38 648.184 406.417 647.939 407.594 647.96C408.521 647.97 409.333 648.168 410.031 648.554C410.729 648.929 411.307 649.439 411.766 650.085C412.234 650.731 412.573 651.46 412.781 652.272C413 653.075 413.083 653.908 413.031 654.772L412.359 658.944C412.172 659.84 411.854 660.684 411.406 661.476C410.958 662.267 410.406 662.97 409.75 663.585C409.104 664.189 408.365 664.663 407.531 665.007C406.708 665.351 405.823 665.512 404.875 665.491C403.74 665.481 402.812 665.205 402.094 664.663C401.385 664.121 400.849 663.424 400.484 662.569C400.12 661.715 399.896 660.793 399.812 659.804C399.74 658.814 399.76 657.866 399.875 656.96ZM401.797 656.616L401.75 656.944C401.646 657.653 401.599 658.403 401.609 659.194C401.62 659.986 401.734 660.736 401.953 661.444C402.182 662.142 402.562 662.715 403.094 663.163C403.625 663.611 404.349 663.845 405.266 663.866C406.172 663.877 407.036 663.689 407.859 663.304C408.682 662.908 409.401 662.366 410.016 661.679C410.641 660.991 411.078 660.215 411.328 659.351L412.172 654.476C412.214 653.819 412.135 653.2 411.938 652.616C411.75 652.033 411.464 651.517 411.078 651.069C410.693 650.621 410.224 650.267 409.672 650.007C409.13 649.736 408.526 649.601 407.859 649.601C406.911 649.58 406.083 649.783 405.375 650.21C404.677 650.627 404.083 651.184 403.594 651.882C403.104 652.569 402.714 653.33 402.422 654.163C402.13 654.986 401.922 655.804 401.797 656.616ZM423.031 665.491C421.885 665.481 420.896 665.241 420.062 664.772C419.229 664.304 418.552 663.679 418.031 662.897C417.521 662.106 417.161 661.22 416.953 660.241C416.755 659.262 416.714 658.257 416.828 657.226L416.922 656.538C417.057 655.496 417.344 654.465 417.781 653.444C418.219 652.424 418.786 651.502 419.484 650.679C420.193 649.845 421.021 649.184 421.969 648.694C422.917 648.194 423.969 647.95 425.125 647.96C426.219 647.97 427.135 648.2 427.875 648.647C428.625 649.085 429.219 649.674 429.656 650.413C430.094 651.153 430.38 651.981 430.516 652.897C430.661 653.814 430.677 654.752 430.562 655.71L430.406 656.851H417.969L418.203 655.257H428.766L428.812 655.038C428.948 654.153 428.901 653.293 428.672 652.46C428.453 651.627 428.047 650.939 427.453 650.397C426.859 649.856 426.062 649.58 425.062 649.569C424.125 649.549 423.292 649.746 422.562 650.163C421.833 650.569 421.203 651.121 420.672 651.819C420.151 652.507 419.729 653.267 419.406 654.101C419.083 654.924 418.859 655.736 418.734 656.538L418.656 657.21C418.552 657.991 418.557 658.772 418.672 659.554C418.797 660.335 419.036 661.054 419.391 661.71C419.755 662.356 420.245 662.882 420.859 663.288C421.484 663.684 422.245 663.887 423.141 663.897C424.141 663.918 425.042 663.72 425.844 663.304C426.656 662.877 427.401 662.314 428.078 661.616L429.172 662.522C428.672 663.168 428.099 663.715 427.453 664.163C426.818 664.611 426.125 664.944 425.375 665.163C424.625 665.382 423.844 665.491 423.031 665.491ZM443.719 661.819L447.297 641.179H449.125L444.969 665.179H443.266L443.719 661.819ZM433.188 656.96L433.234 656.632C433.391 655.611 433.656 654.59 434.031 653.569C434.406 652.538 434.906 651.595 435.531 650.741C436.156 649.887 436.911 649.205 437.797 648.694C438.693 648.184 439.729 647.939 440.906 647.96C441.833 647.97 442.646 648.168 443.344 648.554C444.042 648.929 444.62 649.439 445.078 650.085C445.547 650.731 445.885 651.46 446.094 652.272C446.312 653.075 446.396 653.908 446.344 654.772L445.672 658.944C445.484 659.84 445.167 660.684 444.719 661.476C444.271 662.267 443.719 662.97 443.062 663.585C442.417 664.189 441.677 664.663 440.844 665.007C440.021 665.351 439.135 665.512 438.188 665.491C437.052 665.481 436.125 665.205 435.406 664.663C434.698 664.121 434.161 663.424 433.797 662.569C433.432 661.715 433.208 660.793 433.125 659.804C433.052 658.814 433.073 657.866 433.188 656.96ZM435.109 656.616L435.062 656.944C434.958 657.653 434.911 658.403 434.922 659.194C434.932 659.986 435.047 660.736 435.266 661.444C435.495 662.142 435.875 662.715 436.406 663.163C436.938 663.611 437.661 663.845 438.578 663.866C439.484 663.877 440.349 663.689 441.172 663.304C441.995 662.908 442.714 662.366 443.328 661.679C443.953 660.991 444.391 660.215 444.641 659.351L445.484 654.476C445.526 653.819 445.448 653.2 445.25 652.616C445.062 652.033 444.776 651.517 444.391 651.069C444.005 650.621 443.536 650.267 442.984 650.007C442.443 649.736 441.839 649.601 441.172 649.601C440.224 649.58 439.396 649.783 438.688 650.21C437.99 650.627 437.396 651.184 436.906 651.882C436.417 652.569 436.026 653.33 435.734 654.163C435.443 654.986 435.234 655.804 435.109 656.616ZM460.594 665.179H458.766L462.016 646.179C462.172 645.158 462.484 644.246 462.953 643.444C463.432 642.642 464.062 642.007 464.844 641.538C465.625 641.069 466.557 640.835 467.641 640.835C467.984 640.835 468.323 640.861 468.656 640.913C468.99 640.955 469.323 641.017 469.656 641.101L469.359 642.679C469.099 642.616 468.833 642.569 468.562 642.538C468.292 642.496 468.021 642.476 467.75 642.476C467.01 642.476 466.37 642.642 465.828 642.976C465.297 643.309 464.865 643.757 464.531 644.319C464.208 644.871 463.984 645.491 463.859 646.179L460.594 665.179ZM467.422 648.272L467.156 649.804H458.703L458.969 648.272H467.422ZM468.172 657.038L468.25 656.522C468.406 655.418 468.708 654.351 469.156 653.319C469.604 652.288 470.188 651.371 470.906 650.569C471.635 649.757 472.49 649.116 473.469 648.647C474.448 648.179 475.536 647.95 476.734 647.96C477.922 647.97 478.932 648.22 479.766 648.71C480.599 649.189 481.266 649.835 481.766 650.647C482.276 651.46 482.625 652.371 482.812 653.382C483 654.382 483.031 655.408 482.906 656.46L482.844 656.976C482.688 658.08 482.38 659.142 481.922 660.163C481.474 661.184 480.885 662.101 480.156 662.913C479.438 663.715 478.589 664.351 477.609 664.819C476.63 665.278 475.542 665.502 474.344 665.491C473.167 665.481 472.156 665.236 471.312 664.757C470.479 664.267 469.812 663.621 469.312 662.819C468.812 662.007 468.469 661.101 468.281 660.101C468.094 659.101 468.057 658.08 468.172 657.038ZM470.078 656.522L470.016 657.038C469.911 657.819 469.906 658.611 470 659.413C470.094 660.215 470.307 660.955 470.641 661.632C470.984 662.299 471.464 662.84 472.078 663.257C472.693 663.674 473.464 663.887 474.391 663.897C475.339 663.908 476.193 663.715 476.953 663.319C477.714 662.924 478.37 662.392 478.922 661.726C479.484 661.049 479.938 660.299 480.281 659.476C480.625 658.642 480.865 657.809 481 656.976L481.062 656.46C481.167 655.689 481.167 654.903 481.062 654.101C480.969 653.288 480.755 652.543 480.422 651.866C480.089 651.189 479.615 650.642 479 650.226C478.385 649.799 477.615 649.58 476.688 649.569C475.74 649.549 474.885 649.741 474.125 650.147C473.365 650.543 472.708 651.08 472.156 651.757C471.604 652.434 471.151 653.189 470.797 654.022C470.453 654.845 470.214 655.679 470.078 656.522ZM489.391 651.132L486.969 665.179H485.141L488.062 648.272H489.844L489.391 651.132ZM495.656 648.147L495.422 649.851C495.234 649.819 495.042 649.793 494.844 649.772C494.646 649.752 494.448 649.741 494.25 649.741C493.406 649.731 492.656 649.887 492 650.21C491.354 650.533 490.786 650.97 490.297 651.522C489.818 652.075 489.417 652.7 489.094 653.397C488.771 654.085 488.521 654.793 488.344 655.522L487.609 655.788C487.766 654.882 488 653.965 488.312 653.038C488.635 652.111 489.062 651.262 489.594 650.491C490.135 649.71 490.797 649.085 491.578 648.616C492.37 648.147 493.307 647.924 494.391 647.944C494.609 647.944 494.823 647.965 495.031 648.007C495.24 648.038 495.448 648.085 495.656 648.147ZM508.266 648.272L505.344 665.179H503.516L506.438 648.272H508.266ZM506.969 643.397C506.979 643.043 507.109 642.741 507.359 642.491C507.609 642.241 507.911 642.116 508.266 642.116C508.63 642.106 508.927 642.226 509.156 642.476C509.396 642.726 509.5 643.028 509.469 643.382C509.458 643.726 509.323 644.022 509.062 644.272C508.802 644.512 508.5 644.632 508.156 644.632C507.802 644.642 507.51 644.528 507.281 644.288C507.052 644.049 506.948 643.752 506.969 643.397ZM514.375 651.96L512.094 665.179H510.266L513.188 648.272H514.938L514.375 651.96ZM513.359 655.679L512.625 655.21C512.833 654.293 513.151 653.403 513.578 652.538C514.005 651.663 514.536 650.882 515.172 650.194C515.818 649.496 516.557 648.95 517.391 648.554C518.234 648.147 519.172 647.95 520.203 647.96C521.13 647.97 521.896 648.142 522.5 648.476C523.115 648.799 523.589 649.252 523.922 649.835C524.255 650.408 524.464 651.069 524.547 651.819C524.641 652.559 524.63 653.345 524.516 654.179L522.656 665.179H520.812L522.703 654.147C522.818 653.335 522.812 652.585 522.688 651.897C522.573 651.2 522.281 650.642 521.812 650.226C521.344 649.799 520.641 649.585 519.703 649.585C518.87 649.575 518.104 649.746 517.406 650.101C516.708 650.444 516.083 650.913 515.531 651.507C514.99 652.09 514.531 652.746 514.156 653.476C513.792 654.194 513.526 654.929 513.359 655.679ZM536.859 671.679L540.359 651.444L541.016 648.272H542.734L538.688 671.679H536.859ZM528.031 656.944L528.078 656.616C528.234 655.595 528.5 654.575 528.875 653.554C529.25 652.522 529.75 651.585 530.375 650.741C531 649.887 531.76 649.21 532.656 648.71C533.552 648.2 534.594 647.95 535.781 647.96C536.698 647.97 537.51 648.168 538.219 648.554C538.927 648.929 539.516 649.439 539.984 650.085C540.464 650.72 540.812 651.444 541.031 652.257C541.25 653.069 541.339 653.908 541.297 654.772L540.609 658.944C540.422 659.84 540.099 660.689 539.641 661.491C539.193 662.283 538.635 662.986 537.969 663.601C537.302 664.205 536.552 664.679 535.719 665.022C534.896 665.356 534.005 665.512 533.047 665.491C531.901 665.481 530.969 665.205 530.25 664.663C529.531 664.121 528.99 663.429 528.625 662.585C528.271 661.731 528.052 660.809 527.969 659.819C527.885 658.83 527.906 657.871 528.031 656.944ZM529.953 656.616L529.891 656.944C529.786 657.653 529.74 658.408 529.75 659.21C529.771 660.002 529.896 660.752 530.125 661.46C530.354 662.158 530.734 662.736 531.266 663.194C531.797 663.642 532.521 663.877 533.438 663.897C534.344 663.908 535.214 663.715 536.047 663.319C536.88 662.924 537.609 662.382 538.234 661.694C538.859 660.996 539.302 660.215 539.562 659.351L540.391 654.476C540.432 653.83 540.354 653.215 540.156 652.632C539.958 652.038 539.661 651.517 539.266 651.069C538.87 650.611 538.396 650.246 537.844 649.976C537.302 649.705 536.703 649.569 536.047 649.569C535.089 649.549 534.255 649.752 533.547 650.179C532.849 650.595 532.255 651.158 531.766 651.866C531.276 652.564 530.88 653.33 530.578 654.163C530.286 654.996 530.078 655.814 529.953 656.616ZM555.844 661.194L558.062 648.272H559.906L556.984 665.179H555.219L555.844 661.194ZM556.672 658.147L557.609 658.116C557.453 659.137 557.182 660.101 556.797 661.007C556.422 661.903 555.927 662.689 555.312 663.366C554.698 664.043 553.958 664.575 553.094 664.96C552.229 665.335 551.234 665.512 550.109 665.491C549.161 665.481 548.375 665.304 547.75 664.96C547.125 664.616 546.641 664.147 546.297 663.554C545.953 662.95 545.734 662.267 545.641 661.507C545.547 660.736 545.552 659.929 545.656 659.085L547.5 648.272H549.328L547.484 659.132C547.401 659.715 547.375 660.288 547.406 660.851C547.448 661.403 547.568 661.903 547.766 662.351C547.974 662.799 548.286 663.158 548.703 663.429C549.13 663.7 549.688 663.84 550.375 663.851C551.573 663.871 552.604 663.637 553.469 663.147C554.333 662.647 555.031 661.965 555.562 661.101C556.104 660.236 556.474 659.252 556.672 658.147ZM566.672 648.272L563.75 665.179H561.922L564.844 648.272H566.672ZM565.375 643.397C565.385 643.043 565.516 642.741 565.766 642.491C566.016 642.241 566.318 642.116 566.672 642.116C567.036 642.106 567.333 642.226 567.562 642.476C567.802 642.726 567.906 643.028 567.875 643.382C567.865 643.726 567.729 644.022 567.469 644.272C567.208 644.512 566.906 644.632 566.562 644.632C566.208 644.642 565.917 644.528 565.688 644.288C565.458 644.049 565.354 643.752 565.375 643.397ZM572.922 651.132L570.5 665.179H568.672L571.594 648.272H573.375L572.922 651.132ZM579.188 648.147L578.953 649.851C578.766 649.819 578.573 649.793 578.375 649.772C578.177 649.752 577.979 649.741 577.781 649.741C576.938 649.731 576.188 649.887 575.531 650.21C574.885 650.533 574.318 650.97 573.828 651.522C573.349 652.075 572.948 652.7 572.625 653.397C572.302 654.085 572.052 654.793 571.875 655.522L571.141 655.788C571.297 654.882 571.531 653.965 571.844 653.038C572.167 652.111 572.594 651.262 573.125 650.491C573.667 649.71 574.328 649.085 575.109 648.616C575.901 648.147 576.839 647.924 577.922 647.944C578.141 647.944 578.354 647.965 578.562 648.007C578.771 648.038 578.979 648.085 579.188 648.147ZM584.531 663.413L592.266 648.288H594.297L584 667.897C583.729 668.429 583.427 668.939 583.094 669.429C582.76 669.929 582.385 670.371 581.969 670.757C581.552 671.153 581.078 671.46 580.547 671.679C580.026 671.908 579.438 672.028 578.781 672.038C578.542 672.028 578.297 672.002 578.047 671.96C577.797 671.929 577.557 671.882 577.328 671.819L577.453 670.241C577.609 670.262 577.766 670.283 577.922 670.304C578.068 670.335 578.214 670.351 578.359 670.351C579.057 670.371 579.661 670.241 580.172 669.96C580.682 669.689 581.125 669.319 581.5 668.851C581.885 668.382 582.224 667.861 582.516 667.288L584.531 663.413ZM582.375 648.257L585.125 662.866L585.281 664.788L583.875 665.538L580.453 648.257H582.375ZM592.516 664.038C592.526 663.684 592.661 663.377 592.922 663.116C593.182 662.856 593.495 662.72 593.859 662.71C594.234 662.71 594.542 662.84 594.781 663.101C595.021 663.351 595.13 663.658 595.109 664.022C595.089 664.387 594.948 664.694 594.688 664.944C594.427 665.194 594.115 665.319 593.75 665.319C593.375 665.33 593.068 665.215 592.828 664.976C592.589 664.726 592.484 664.413 592.516 664.038Z" fill="#797878"/>
</svg>
