<svg width="421" height="335" viewBox="0 0 421 335" fill="none" xmlns="http://www.w3.org/2000/svg">
<path d="M209.893 334.391C325.814 334.391 419.786 326.145 419.786 315.972C419.786 305.8 325.814 297.553 209.893 297.553C93.9723 297.553 0 305.8 0 315.972C0 326.145 93.9723 334.391 209.893 334.391Z" fill="#EDF0FC"/>
<path d="M356.43 307.606C356.43 307.606 325.242 244.294 420.381 216.695C420.381 216.695 427.008 312.637 356.43 307.606Z" fill="#EB725F"/>
<mask id="mask0_1466_5794" style="mask-type:luminance" maskUnits="userSpaceOnUse" x="351" y="216" width="70" height="92">
<path d="M356.43 307.606C356.43 307.606 325.242 244.294 420.381 216.695C420.381 216.695 427.008 312.637 356.43 307.606Z" fill="white"/>
</mask>
<g mask="url(#mask0_1466_5794)">
<path d="M433.139 231.432L432.594 230.52C413.786 241.715 396.667 245.645 391.609 246.626C396.32 241.061 400.966 235.962 405.171 231.547C407.062 231.195 420.024 228.504 433.184 218.698L432.548 217.848C421.47 226.102 410.571 229.231 406.476 230.183C415.612 220.684 422.365 214.665 422.567 214.486L421.86 213.692C421.655 213.873 414.757 220.023 405.459 229.712C406.356 217.654 412.276 205.842 412.338 205.72L411.388 205.241C411.323 205.369 404.888 218.196 404.32 230.905C400.104 235.338 395.448 240.453 390.728 246.035C391.067 230.253 397.824 211.762 397.894 211.571L396.896 211.204C396.822 211.402 389.626 231.084 389.647 247.321C385.096 252.762 380.517 258.62 376.237 264.709C375.404 241.976 382.123 218.528 382.193 218.288L381.17 217.994C381.098 218.239 374.051 242.814 375.23 266.152C372.064 270.737 369.08 275.441 366.425 280.187C361.717 255.749 367.785 233.565 367.848 233.34L366.823 233.054C366.758 233.286 360.407 256.459 365.625 281.645C363.021 286.428 360.765 291.242 358.994 296.01C352.973 278.918 351.803 254.438 352.064 253.025L351.016 252.834C350.735 254.364 351.82 279.903 358.428 297.578C356.812 302.201 355.665 306.771 355.133 311.212L356.189 311.338C356.703 307.05 357.8 302.638 359.342 298.173C360.583 298.431 364.166 299.042 370.33 299.042C370.816 299.042 371.321 299.039 371.841 299.031C379.799 298.907 393.229 297.693 412.005 292.619L411.726 291.595C379.708 300.248 362.904 297.78 359.694 297.157C361.475 292.208 363.803 287.199 366.507 282.223C367.364 282.307 369.595 282.488 372.846 282.488C383.081 282.488 403.196 280.673 420.692 268.223L420.074 267.358C398.13 282.974 372 281.626 367.065 281.208C369.782 276.303 372.855 271.438 376.131 266.699C379.414 266.366 408.643 263.017 428.114 247.839L427.459 247.004C409.43 261.056 382.871 264.851 376.936 265.543C381.268 259.364 385.918 253.417 390.537 247.902C393.044 247.48 412.052 243.983 433.139 231.432Z" fill="#FFC271"/>
</g>
<path opacity="0.1" d="M420.38 216.695C414.752 218.328 409.581 220.089 404.805 221.951C406.864 228.114 407.991 234.775 407.991 241.727C407.991 273.315 384.776 298.922 356.138 298.922C355.226 298.922 354.319 298.895 353.418 298.843C354.797 304.285 356.428 307.606 356.428 307.606C427.007 312.637 420.38 216.695 420.38 216.695Z" fill="#8A38F5"/>
<path d="M73.5518 300.915C73.5518 300.915 18.2918 314.093 13.4648 234.675C13.4648 234.675 90.0058 246.531 73.5518 300.915Z" fill="#FFC271"/>
<mask id="mask1_1466_5794" style="mask-type:luminance" maskUnits="userSpaceOnUse" x="13" y="234" width="63" height="68">
<path d="M73.5518 300.915C73.5518 300.915 18.2918 314.093 13.4648 234.675C13.4648 234.676 90.0058 246.531 73.5518 300.915Z" fill="white"/>
</mask>
<g mask="url(#mask1_1466_5794)">
<path d="M27.2991 227.301L26.4861 227.566C31.9491 244.286 32.0031 258.392 31.8781 262.528C28.3411 257.849 25.1591 253.305 22.4351 249.227C22.4931 247.684 22.6761 237.053 17.3031 225.003L16.5231 225.35C21.0441 235.493 21.5721 244.585 21.5941 247.961C15.7511 239.118 12.2191 232.76 12.1141 232.569L11.3651 232.982C11.4711 233.175 15.0801 239.67 21.0451 248.674C11.7321 245.829 3.50109 239.094 3.41609 239.024L2.87109 239.683C2.96009 239.757 11.8971 247.076 21.7791 249.779C24.5151 253.869 27.7081 258.424 31.2571 263.113C18.9191 260.043 5.59109 251.466 5.45309 251.377L4.98809 252.093C5.13009 252.186 19.3171 261.319 32.0761 264.188C35.5441 268.719 39.3351 273.347 43.3601 277.78C25.3551 274.393 8.12509 264.965 7.94909 264.868L7.53609 265.617C7.71609 265.717 25.7721 275.603 44.3141 278.825C47.3551 282.12 50.5221 285.292 53.7791 288.215C33.7471 287.561 17.3961 278.866 17.2301 278.777L16.8241 279.529C16.9951 279.621 34.0731 288.713 54.7821 289.1C58.0781 291.989 61.4601 294.611 64.8921 296.846C50.3981 298.525 30.9611 295.092 29.8971 294.637L29.5611 295.424C30.7131 295.916 50.9671 299.604 66.0231 297.568C69.3681 299.655 72.7551 301.365 76.1491 302.571L76.4351 301.766C73.1581 300.602 69.8861 298.959 66.6521 296.958C67.0751 296.032 68.1901 293.334 69.2811 288.507C69.3671 288.126 69.4541 287.73 69.5401 287.322C70.8521 281.067 72.2771 270.333 71.6181 254.726L70.7641 254.762C71.8891 281.377 66.9741 294.099 65.9161 296.503C62.3441 294.229 58.8221 291.515 55.3911 288.514C55.6081 287.858 56.1461 286.143 56.7221 283.596C58.5351 275.579 60.6731 259.502 53.9921 243.588L53.2041 243.918C61.5841 263.879 55.8961 284.105 54.6941 287.896C51.3231 284.896 48.0451 281.625 44.9021 278.218C45.2221 275.588 47.7691 252.1 39.2951 234.153L38.5231 234.518C46.3681 251.135 44.6441 272.611 44.1371 277.382C40.0501 272.891 36.2031 268.193 32.6881 263.595C32.8031 261.556 33.4241 246.047 27.2991 227.301Z" fill="#EB725F"/>
</g>
<path opacity="0.1" d="M13.4648 234.676C13.7498 239.374 14.2178 243.737 14.8348 247.809C20.0418 247.291 25.4738 247.592 30.9348 248.827C55.7488 254.439 71.7518 277.171 66.6788 299.601C66.5168 300.315 66.3348 301.021 66.1348 301.717C70.6548 301.604 73.5518 300.916 73.5518 300.916C90.0058 246.531 13.4648 234.676 13.4648 234.676Z" fill="#8A38F5"/>
<path d="M367.714 265.692C367.714 270.092 364.114 273.692 359.714 273.692H60.0703C55.6703 273.692 52.0703 270.092 52.0703 265.692V85.129C52.0703 80.729 55.6703 77.129 60.0703 77.129H359.714C364.114 77.129 367.714 80.729 367.714 85.129V265.692Z" fill="#8A38F5"/>
<path d="M358.806 86.769H60.9805V264.051H358.806V86.769Z" fill="#D0DBF7"/>
<path d="M258.893 273.692H160.891V298.236H258.893V273.692Z" fill="#8397ED"/>
<path d="M305.796 312.327C287.873 297.857 251.655 287.964 209.89 287.964C168.125 287.964 131.907 297.857 113.984 312.327H305.796Z" fill="#8A38F5"/>
<path d="M113.985 314.827C115.698 314.827 117.411 314.827 119.124 314.827C123.785 314.827 128.447 314.827 133.108 314.827C139.967 314.827 146.826 314.827 153.685 314.827C162.089 314.827 170.493 314.827 178.897 314.827C188.103 314.827 197.31 314.827 206.516 314.827C215.768 314.827 225.02 314.827 234.272 314.827C242.938 314.827 251.605 314.827 260.271 314.827C267.594 314.827 274.916 314.827 282.239 314.827C287.484 314.827 292.729 314.827 297.973 314.827C300.47 314.827 302.976 314.888 305.473 314.827C305.581 314.824 305.689 314.827 305.796 314.827C309.013 314.827 309.019 309.827 305.796 309.827C304.083 309.827 302.37 309.827 300.657 309.827C295.996 309.827 291.334 309.827 286.673 309.827C279.814 309.827 272.955 309.827 266.096 309.827C257.692 309.827 249.288 309.827 240.884 309.827C231.678 309.827 222.471 309.827 213.265 309.827C204.013 309.827 194.761 309.827 185.509 309.827C176.843 309.827 168.176 309.827 159.51 309.827C152.187 309.827 144.865 309.827 137.542 309.827C132.297 309.827 127.052 309.827 121.808 309.827C119.311 309.827 116.805 309.766 114.308 309.827C114.2 309.83 114.092 309.827 113.985 309.827C110.768 309.827 110.762 314.827 113.985 314.827Z" fill="#8397ED"/>
<path d="M342.538 99.103H77.2461V252.486H342.538V99.103Z" fill="white"/>
<path d="M342.538 99.103H77.2461V113.883H342.538V99.103Z" fill="#E2E6FF"/>
<path d="M90.1429 106.833C90.1429 108.701 88.6289 110.215 86.7609 110.215C84.8929 110.215 83.3789 108.701 83.3789 106.833C83.3789 104.965 84.8929 103.451 86.7609 103.451C88.6279 103.451 90.1429 104.965 90.1429 106.833Z" fill="#EB725F"/>
<path d="M101.53 106.833C101.53 108.701 100.016 110.215 98.1476 110.215C96.2796 110.215 94.7656 108.701 94.7656 106.833C94.7656 104.965 96.2796 103.451 98.1476 103.451C100.016 103.451 101.53 104.965 101.53 106.833Z" fill="#FFC271"/>
<path d="M112.92 106.833C112.92 108.701 111.406 110.215 109.538 110.215C107.67 110.215 106.156 108.701 106.156 106.833C106.156 104.965 107.67 103.451 109.538 103.451C111.406 103.451 112.92 104.965 112.92 106.833Z" fill="#8A38F5"/>
<path d="M303.629 178.759C303.629 187.9 295.773 195.379 286.172 195.379H138.574C128.972 195.379 121.117 187.9 121.117 178.759C121.117 169.618 128.973 162.139 138.574 162.139H286.172C295.773 162.139 303.629 169.618 303.629 178.759Z" fill="#E2E6FF"/>
<path d="M157.628 186.594L151.571 180.958C152.485 179.664 152.957 178.118 152.899 176.507C152.829 174.562 152.006 172.761 150.581 171.435C149.156 170.109 147.301 169.418 145.356 169.488C143.411 169.558 141.61 170.381 140.285 171.806C138.959 173.231 138.267 175.087 138.337 177.031C138.407 178.976 139.23 180.777 140.655 182.103C142.08 183.429 143.935 184.12 145.88 184.05C147.49 183.992 148.998 183.411 150.223 182.406L156.28 188.042L157.628 186.594ZM142.003 180.655C140.965 179.689 140.366 178.377 140.315 176.961C140.264 175.544 140.768 174.193 141.734 173.155C142.699 172.117 144.012 171.518 145.428 171.467C146.845 171.416 148.196 171.92 149.234 172.885C150.272 173.851 150.871 175.163 150.922 176.579C150.973 177.996 150.469 179.347 149.503 180.385C148.537 181.423 147.225 182.022 145.809 182.073C144.392 182.125 143.04 181.621 142.003 180.655Z" fill="#8A38F5"/>
<path d="M183.893 180.189C184.839 180.189 185.606 179.422 185.606 178.476C185.606 177.53 184.839 176.763 183.893 176.763C182.947 176.763 182.18 177.53 182.18 178.476C182.18 179.422 182.947 180.189 183.893 180.189Z" fill="#B6C3F2"/>
<path d="M203.893 180.189C204.839 180.189 205.606 179.422 205.606 178.476C205.606 177.53 204.839 176.763 203.893 176.763C202.947 176.763 202.18 177.53 202.18 178.476C202.18 179.422 202.947 180.189 203.893 180.189Z" fill="#B6C3F2"/>
<path d="M223.893 180.189C224.839 180.189 225.606 179.422 225.606 178.476C225.606 177.53 224.839 176.763 223.893 176.763C222.947 176.763 222.18 177.53 222.18 178.476C222.18 179.422 222.947 180.189 223.893 180.189Z" fill="#B6C3F2"/>
<path d="M243.893 180.189C244.839 180.189 245.606 179.422 245.606 178.476C245.606 177.53 244.839 176.763 243.893 176.763C242.947 176.763 242.18 177.53 242.18 178.476C242.18 179.422 242.947 180.189 243.893 180.189Z" fill="#B6C3F2"/>
<path d="M401.602 39.229H269.555V184.508H401.602V39.229Z" fill="#F5F9FF"/>
<path d="M401.602 39.229H269.555V55.606H401.602V39.229Z" fill="#E2E6FF"/>
<path d="M283.844 47.795C283.844 49.865 282.166 51.543 280.096 51.543C278.026 51.543 276.348 49.865 276.348 47.795C276.348 45.725 278.026 44.047 280.096 44.047C282.166 44.047 283.844 45.726 283.844 47.795Z" fill="#EB725F"/>
<path d="M296.465 47.795C296.465 49.865 294.787 51.543 292.717 51.543C290.647 51.543 288.969 49.865 288.969 47.795C288.969 45.725 290.647 44.047 292.717 44.047C294.787 44.047 296.465 45.726 296.465 47.795Z" fill="#FFC271"/>
<path d="M309.082 47.795C309.082 49.865 307.404 51.543 305.334 51.543C303.264 51.543 301.586 49.865 301.586 47.795C301.586 45.725 303.264 44.047 305.334 44.047C307.404 44.047 309.082 45.726 309.082 47.795Z" fill="#8A38F5"/>
<path d="M362.829 130.301L357.375 135.755L406.255 184.635L411.709 179.181L362.829 130.301Z" fill="#EB725F"/>
<path d="M364.523 127.187L354.262 137.449L368.565 151.752L378.826 141.491L364.523 127.187Z" fill="#8A38F5"/>
<g opacity="0.2">
<path d="M360.103 133.027C347.318 145.812 326.514 145.812 313.729 133.027C300.944 120.242 300.944 99.438 313.729 86.653C326.514 73.868 347.318 73.868 360.103 86.653C372.888 99.438 372.888 120.242 360.103 133.027Z" fill="#F5F9FF"/>
</g>
<path d="M363.217 136.14C348.716 150.641 325.119 150.642 310.618 136.14C296.117 121.638 296.117 98.042 310.618 83.541C325.119 69.04 348.716 69.039 363.217 83.541C377.718 98.042 377.718 121.638 363.217 136.14ZM316.071 88.994C304.576 100.489 304.577 119.191 316.071 130.685C327.565 142.179 346.268 142.18 357.762 130.685C369.257 119.19 369.256 100.488 357.762 88.994C346.268 77.5 327.566 77.499 316.071 88.994Z" fill="#EB725F"/>
<path d="M353.225 98.333L348.422 93.53L336.915 105.037L325.408 93.53L320.605 98.333L332.112 109.84L320.605 121.346L325.408 126.15L336.915 114.643L348.422 126.15L353.225 121.346L341.718 109.84L353.225 98.333Z" fill="#FFC271"/>
<path d="M126.491 207.077H66.7578V314.988H158.893V238.117L126.491 207.077Z" fill="#EB725F"/>
<path d="M126.492 207.077L158.894 238.117H126.492V207.077Z" fill="#4D4D4D"/>
<path d="M103 248.548C103 251.787 101.118 254.413 98.7968 254.413C96.4758 254.413 94.5938 251.787 94.5938 248.548C94.5938 245.309 96.4758 242.683 98.7968 242.683C101.118 242.683 103 245.309 103 248.548Z" fill="black"/>
<path d="M126.738 254.413C129.059 254.413 130.941 251.787 130.941 248.548C130.941 245.309 129.059 242.683 126.738 242.683C124.417 242.683 122.535 245.309 122.535 248.548C122.535 251.787 124.417 254.413 126.738 254.413Z" fill="black"/>
<path d="M101.078 266.154C102.827 264.239 105.259 262.733 107.68 261.86C113.806 259.651 119.728 261.959 124.394 266.154C125.64 267.274 127.491 265.434 126.239 264.309C121.066 259.659 114.356 256.927 107.475 259.176C104.457 260.162 101.393 261.942 99.2321 264.309C98.1031 265.547 99.9431 267.398 101.078 266.154Z" fill="black"/>
<path d="M95.0161 25.125H27.8261C23.8181 25.125 20.5391 28.404 20.5391 32.412V79.543C20.5391 83.551 23.8181 86.83 27.8261 86.83H51.4341L61.4211 98.995L71.4081 86.83H95.0161C99.0241 86.83 102.303 83.551 102.303 79.543V32.412C102.303 28.404 99.0241 25.125 95.0161 25.125Z" fill="#FFC271"/>
<path d="M61.4219 33.882C49.1529 33.882 39.1719 43.863 39.1719 56.132C39.1719 68.401 49.1529 78.382 61.4219 78.382C73.6909 78.382 83.6719 68.4 83.6719 56.132C83.6719 43.863 73.6909 33.882 61.4219 33.882ZM61.4219 38.077C65.6449 38.077 69.5309 39.539 72.6099 41.977L47.2679 67.32C44.8299 64.241 43.3679 60.355 43.3679 56.132C43.3669 46.177 51.4669 38.077 61.4219 38.077ZM61.4219 74.186C57.1989 74.186 53.3129 72.725 50.2339 70.286L75.5759 44.944C78.0149 48.022 79.4759 51.909 79.4759 56.132C79.4769 66.087 71.3779 74.186 61.4219 74.186Z" fill="white"/>
<path d="M345.809 214.631L290.082 214.263L289.418 314.935L375.372 315.503L375.846 243.788L345.809 214.631Z" fill="#D0DBF7"/>
<path d="M345.808 214.631L375.845 243.788L345.617 243.588L345.808 214.631Z" fill="#E3EBFC"/>
<path d="M350.955 252.158L345.647 246.78L332.761 259.496L320.043 246.611L314.665 251.919L327.382 264.804L314.496 277.521L319.804 282.899L332.69 270.183L345.408 283.068L350.786 277.76L338.069 264.875L350.955 252.158Z" fill="#EEF4FF"/>
<path d="M64.8342 136.978L31.4842 120.262L1.28516 180.511L52.7272 206.295L74.2382 163.376L64.8342 136.978Z" fill="#D0DBF7"/>
<path d="M64.8344 136.978L74.2384 163.376L56.1484 154.308L64.8344 136.978Z" fill="#E3EBFC"/>
<path d="M56.816 161.034L55.221 156.234L43.72 160.055L39.898 148.553L35.098 150.148L38.919 161.649L27.418 165.47L29.013 170.271L40.514 166.45L44.336 177.951L49.137 176.356L45.315 164.855L56.816 161.034Z" fill="#EEF4FF"/>
<path d="M189.587 25.14L162.895 33.826L178.586 82.047L219.758 68.65L208.58 34.299L189.587 25.14Z" fill="#D0DBF7"/>
<path d="M189.586 25.14L208.579 34.299L194.1 39.01L189.586 25.14Z" fill="#E3EBFC"/>
<path d="M198.015 42.257L194.623 40.531L190.487 48.658L182.359 44.521L180.633 47.913L188.76 52.05L184.623 60.177L188.015 61.903L192.152 53.776L200.279 57.913L202.006 54.52L193.879 50.384L198.015 42.257Z" fill="#EEF4FF"/>
<path d="M271.989 20.513L269.652 20.505C269.164 18.439 268.357 16.501 267.283 14.737L268.944 13.088C270.239 11.802 270.247 9.68902 268.96 8.39402L267.033 6.45302C265.746 5.15802 263.634 5.15002 262.339 6.43702L260.678 8.08602C258.921 7.00102 256.989 6.18002 254.927 5.67802L254.935 3.34002C254.941 1.51402 253.453 0.0150208 251.627 0.00902077L248.892 1.80816e-05C247.066 -0.00598192 245.567 1.48202 245.561 3.30802L245.553 5.64602C243.487 6.13502 241.549 6.94102 239.785 8.01502L238.136 6.35402C236.849 5.05802 234.737 5.05102 233.442 6.33802L231.501 8.26502C230.206 9.55202 230.198 11.664 231.485 12.959L233.134 14.62C232.048 16.377 231.228 18.309 230.725 20.372L228.387 20.364C226.561 20.358 225.062 21.846 225.056 23.672L225.047 26.407C225.041 28.233 226.529 29.732 228.355 29.738L230.693 29.746C231.181 31.812 231.988 33.75 233.062 35.514L231.401 37.163C230.106 38.449 230.098 40.562 231.385 41.857L233.312 43.798C234.598 45.093 236.711 45.101 238.007 43.814L239.667 42.165C241.424 43.251 243.356 44.071 245.419 44.574L245.411 46.912C245.405 48.738 246.893 50.237 248.719 50.243L251.454 50.252C253.28 50.258 254.778 48.77 254.785 46.944L254.793 44.606C256.859 44.118 258.797 43.311 260.561 42.237L262.21 43.898C263.496 45.193 265.609 45.201 266.904 43.914L268.845 41.987C270.14 40.701 270.148 38.588 268.861 37.293L267.212 35.633C268.298 33.876 269.118 31.944 269.621 29.881L271.958 29.889C273.784 29.895 275.283 28.407 275.289 26.581L275.298 23.846C275.303 22.019 273.814 20.52 271.989 20.513ZM250.139 34.387C245.024 34.369 240.892 30.208 240.909 25.093C240.927 19.978 245.088 15.846 250.203 15.863C255.318 15.881 259.45 20.041 259.433 25.157C259.415 30.272 255.254 34.404 250.139 34.387Z" fill="#EB725F"/>
<path d="M250.217 11.911C242.919 11.886 236.982 17.782 236.957 25.079C236.932 32.377 242.827 38.314 250.125 38.339C257.423 38.364 263.359 32.468 263.385 25.17C263.41 17.873 257.515 11.936 250.217 11.911ZM250.143 33.331C245.611 33.315 241.95 29.629 241.965 25.097C241.981 20.565 245.667 16.904 250.199 16.919C254.731 16.935 258.392 20.621 258.377 25.154C258.361 29.685 254.675 33.347 250.143 33.331Z" fill="#FFC271"/>
<path d="M90.4016 286.979H92.7998L95.1865 290.709V286.979H97.7912V295H95.393L93.0063 291.259V295H90.4016V286.979ZM102.724 295.172C101.905 295.172 101.163 294.996 100.498 294.644C99.8398 294.292 99.3196 293.803 98.9371 293.176C98.5546 292.541 98.3634 291.814 98.3634 290.995C98.3634 290.177 98.5546 289.45 98.9371 288.815C99.3196 288.18 99.8398 287.687 100.498 287.335C101.163 286.983 101.905 286.807 102.724 286.807C103.535 286.807 104.269 286.983 104.927 287.335C105.592 287.687 106.116 288.18 106.499 288.815C106.881 289.45 107.073 290.177 107.073 290.995C107.073 291.814 106.881 292.541 106.499 293.176C106.116 293.803 105.592 294.292 104.927 294.644C104.269 294.996 103.535 295.172 102.724 295.172ZM102.724 292.613C103.183 292.613 103.561 292.468 103.86 292.177C104.158 291.887 104.307 291.493 104.307 290.995C104.307 290.498 104.158 290.104 103.86 289.814C103.561 289.523 103.183 289.377 102.724 289.377C102.257 289.377 101.875 289.523 101.576 289.814C101.278 290.104 101.129 290.498 101.129 290.995C101.129 291.493 101.278 291.887 101.576 292.177C101.882 292.468 102.265 292.613 102.724 292.613ZM111.087 286.979H114.162C115.05 286.979 115.826 287.14 116.492 287.461C117.165 287.783 117.685 288.242 118.052 288.838C118.419 289.435 118.603 290.139 118.603 290.95C118.603 292.281 118.205 293.29 117.41 293.979C116.622 294.66 115.539 295 114.162 295H111.087V286.979ZM114.346 292.476C115.34 292.476 115.838 291.967 115.838 290.95C115.838 290.483 115.707 290.127 115.447 289.882C115.187 289.63 114.82 289.504 114.346 289.504H113.807V292.476H114.346ZM121.41 286.979H123.98L127.193 295H124.405L123.889 293.6H121.502L120.986 295H118.197L121.41 286.979ZM123.292 291.604L122.695 289.756L122.099 291.604H123.292ZM127.99 289.263H125.936V286.979H132.764V289.263H130.71V295H127.99V289.263ZM134.711 286.979H137.281L140.494 295H137.706L137.19 293.6H134.803L134.287 295H131.498L134.711 286.979ZM136.593 291.604L135.996 289.756L135.4 291.604H136.593Z" fill="white"/>
</svg>
